G04 #@! TF.GenerationSoftware,KiCad,Pcbnew,5.1.5+dfsg1-2build2*
G04 #@! TF.CreationDate,2021-05-15T16:51:55+02:00*
G04 #@! TF.ProjectId,fg99,66673939-2e6b-4696-9361-645f70636258,1*
G04 #@! TF.SameCoordinates,Original*
G04 #@! TF.FileFunction,Copper,L1,Top*
G04 #@! TF.FilePolarity,Positive*
%FSLAX46Y46*%
G04 Gerber Fmt 4.6, Leading zero omitted, Abs format (unit mm)*
G04 Created by KiCad (PCBNEW 5.1.5+dfsg1-2build2) date 2021-05-15 16:51:55*
%MOMM*%
%LPD*%
G04 APERTURE LIST*
%ADD10R,1.727200X1.727200*%
%ADD11O,1.727200X1.727200*%
%ADD12C,1.000000*%
%ADD13C,5.300000*%
%ADD14R,0.300000X1.500000*%
%ADD15R,1.500000X0.300000*%
%ADD16R,1.778000X15.000000*%
%ADD17C,2.000000*%
%ADD18R,2.000000X1.900000*%
%ADD19C,1.900000*%
%ADD20R,1.800000X1.230000*%
%ADD21R,2.032000X3.657600*%
%ADD22R,2.032000X1.016000*%
%ADD23R,0.477000X1.517400*%
%ADD24R,0.550000X1.600000*%
%ADD25R,1.600000X0.550000*%
%ADD26R,0.800000X0.750000*%
%ADD27R,0.750000X0.800000*%
%ADD28R,0.750000X0.900000*%
%ADD29C,1.778000*%
%ADD30R,1.778000X1.778000*%
%ADD31R,0.998220X1.498600*%
%ADD32R,2.000000X2.000000*%
%ADD33C,0.600000*%
%ADD34C,0.500000*%
%ADD35C,0.600000*%
%ADD36C,0.200000*%
%ADD37C,0.400000*%
%ADD38C,0.300000*%
G04 APERTURE END LIST*
D10*
X155783000Y-88738000D03*
D11*
X153243000Y-88738000D03*
X155783000Y-86198000D03*
X153243000Y-86198000D03*
X155783000Y-83658000D03*
X153243000Y-83658000D03*
D12*
X190783000Y-49458000D03*
X190783000Y-92658000D03*
D13*
X143583000Y-55858000D03*
D14*
X136083000Y-58458000D03*
X135583000Y-58458000D03*
X135083000Y-58458000D03*
X134583000Y-58458000D03*
X134083000Y-58458000D03*
X133583000Y-58458000D03*
X133083000Y-58458000D03*
X132583000Y-58458000D03*
X132083000Y-58458000D03*
X131583000Y-58458000D03*
X131083000Y-58458000D03*
X130583000Y-58458000D03*
X130083000Y-58458000D03*
X129583000Y-58458000D03*
X129083000Y-58458000D03*
X128583000Y-58458000D03*
X128083000Y-58458000D03*
X127583000Y-58458000D03*
X127083000Y-58458000D03*
X126583000Y-58458000D03*
X126083000Y-58458000D03*
X125583000Y-58458000D03*
X125083000Y-58458000D03*
X124583000Y-58458000D03*
X124083000Y-58458000D03*
D15*
X122383000Y-60158000D03*
X122383000Y-60658000D03*
X122383000Y-61158000D03*
X122383000Y-61658000D03*
X122383000Y-62158000D03*
X122383000Y-62658000D03*
X122383000Y-63158000D03*
X122383000Y-63658000D03*
X122383000Y-64158000D03*
X122383000Y-64658000D03*
X122383000Y-65158000D03*
X122383000Y-65658000D03*
X122383000Y-66158000D03*
X122383000Y-66658000D03*
X122383000Y-67158000D03*
X122383000Y-67658000D03*
X122383000Y-68158000D03*
X122383000Y-68658000D03*
X122383000Y-69158000D03*
X122383000Y-69658000D03*
X122383000Y-70158000D03*
X122383000Y-70658000D03*
X122383000Y-71158000D03*
X122383000Y-71658000D03*
X122383000Y-72158000D03*
D14*
X124083000Y-73858000D03*
X124583000Y-73858000D03*
X125083000Y-73858000D03*
X125583000Y-73858000D03*
X126083000Y-73858000D03*
X126583000Y-73858000D03*
X127083000Y-73858000D03*
X127583000Y-73858000D03*
X128083000Y-73858000D03*
X128583000Y-73858000D03*
X129083000Y-73858000D03*
X129583000Y-73858000D03*
X130083000Y-73858000D03*
X130583000Y-73858000D03*
X131083000Y-73858000D03*
X131583000Y-73858000D03*
X132083000Y-73858000D03*
X132583000Y-73858000D03*
X133083000Y-73858000D03*
X133583000Y-73858000D03*
X134083000Y-73858000D03*
X134583000Y-73858000D03*
X135083000Y-73858000D03*
X135583000Y-73858000D03*
X136083000Y-73858000D03*
D15*
X137783000Y-72158000D03*
X137783000Y-71658000D03*
X137783000Y-71158000D03*
X137783000Y-70658000D03*
X137783000Y-70158000D03*
X137783000Y-69658000D03*
X137783000Y-69158000D03*
X137783000Y-68658000D03*
X137783000Y-68158000D03*
X137783000Y-67658000D03*
X137783000Y-67158000D03*
X137783000Y-66658000D03*
X137783000Y-66158000D03*
X137783000Y-65658000D03*
X137783000Y-65158000D03*
X137783000Y-64658000D03*
X137783000Y-64158000D03*
X137783000Y-63658000D03*
X137783000Y-63158000D03*
X137783000Y-62658000D03*
X137783000Y-62158000D03*
X137783000Y-61658000D03*
X137783000Y-61158000D03*
X137783000Y-60658000D03*
X137783000Y-60158000D03*
D16*
X165143000Y-40158000D03*
X162603000Y-40158000D03*
X160063000Y-40158000D03*
X157523000Y-40158000D03*
X154983000Y-40158000D03*
X152443000Y-40158000D03*
X149903000Y-40158000D03*
X147363000Y-40158000D03*
X144823000Y-40158000D03*
X142283000Y-40158000D03*
X139743000Y-40158000D03*
X137203000Y-40158000D03*
X134663000Y-40158000D03*
X132123000Y-40158000D03*
X129583000Y-40158000D03*
X127043000Y-40158000D03*
X124503000Y-40158000D03*
X121963000Y-40158000D03*
D17*
X121083000Y-91458000D03*
X121083000Y-86958000D03*
X127583000Y-91458000D03*
X127583000Y-86958000D03*
D18*
X99383000Y-91658000D03*
D19*
X99383000Y-89118000D03*
D20*
X107383000Y-51258000D03*
X110003000Y-51258000D03*
X107363000Y-54058000D03*
X109983000Y-54058000D03*
D21*
X97379000Y-53858000D03*
D22*
X103983000Y-53858000D03*
X103983000Y-51572000D03*
X103983000Y-56144000D03*
D23*
X97383000Y-78268800D03*
X98183000Y-78268800D03*
X98983000Y-78268800D03*
X99783000Y-78268800D03*
X100583000Y-78268800D03*
X101383000Y-78268800D03*
X102183000Y-78268800D03*
X102983000Y-78268800D03*
X103783000Y-78268800D03*
X104583000Y-78268800D03*
X105383000Y-78268800D03*
X106183000Y-78268800D03*
X106983000Y-78268800D03*
X107783000Y-78268800D03*
X108583000Y-78268800D03*
X109383000Y-78268800D03*
X110183000Y-78268800D03*
X110983000Y-78268800D03*
X111783000Y-78268800D03*
X112583000Y-78268800D03*
X113383000Y-78268800D03*
X114183000Y-78268800D03*
X97383000Y-66858000D03*
X98183000Y-66858000D03*
X98983000Y-66858000D03*
X99783000Y-66858000D03*
X100583000Y-66858000D03*
X101383000Y-66858000D03*
X102183000Y-66858000D03*
X102983000Y-66858000D03*
X103783000Y-66858000D03*
X104583000Y-66858000D03*
X105383000Y-66858000D03*
X106183000Y-66858000D03*
X106983000Y-66858000D03*
X107783000Y-66858000D03*
X108583000Y-66858000D03*
X109383000Y-66858000D03*
X110183000Y-66858000D03*
X110983000Y-66858000D03*
X111783000Y-66858000D03*
X112583000Y-66858000D03*
X113383000Y-66858000D03*
X114183000Y-66858000D03*
D24*
X151983000Y-70708000D03*
X152783000Y-70708000D03*
X153583000Y-70708000D03*
X154383000Y-70708000D03*
X155183000Y-70708000D03*
X155983000Y-70708000D03*
X156783000Y-70708000D03*
X157583000Y-70708000D03*
D25*
X159033000Y-69258000D03*
X159033000Y-68458000D03*
X159033000Y-67658000D03*
X159033000Y-66858000D03*
X159033000Y-66058000D03*
X159033000Y-65258000D03*
X159033000Y-64458000D03*
X159033000Y-63658000D03*
D24*
X157583000Y-62208000D03*
X156783000Y-62208000D03*
X155983000Y-62208000D03*
X155183000Y-62208000D03*
X154383000Y-62208000D03*
X153583000Y-62208000D03*
X152783000Y-62208000D03*
X151983000Y-62208000D03*
D25*
X150533000Y-63658000D03*
X150533000Y-64458000D03*
X150533000Y-65258000D03*
X150533000Y-66058000D03*
X150533000Y-66858000D03*
X150533000Y-67658000D03*
X150533000Y-68458000D03*
X150533000Y-69258000D03*
D26*
X106583000Y-62858000D03*
X105083000Y-62858000D03*
X105483000Y-81658000D03*
X106983000Y-81658000D03*
X153483000Y-73858000D03*
X151983000Y-73858000D03*
X155633000Y-73858000D03*
X157133000Y-73858000D03*
X156783000Y-57858000D03*
X158283000Y-57858000D03*
X135883000Y-54658000D03*
X137383000Y-54658000D03*
D27*
X118383000Y-59658000D03*
X118383000Y-58158000D03*
D26*
X142083000Y-60658000D03*
X143583000Y-60658000D03*
X118783000Y-66858000D03*
X117283000Y-66858000D03*
X120583000Y-75058000D03*
X119083000Y-75058000D03*
X126883000Y-77058000D03*
X128383000Y-77058000D03*
X142783000Y-66258000D03*
X144283000Y-66258000D03*
D12*
X95983000Y-49458000D03*
D28*
X147008000Y-83858000D03*
X145658000Y-83858000D03*
X158958000Y-53258000D03*
X160308000Y-53258000D03*
D29*
X167643000Y-52198000D03*
X170183000Y-52198000D03*
X172723000Y-52198000D03*
X175263000Y-52198000D03*
X177803000Y-52198000D03*
X180343000Y-52198000D03*
X182883000Y-52198000D03*
D30*
X185423000Y-52198000D03*
D29*
X185423000Y-49658000D03*
X182883000Y-49658000D03*
X180343000Y-49658000D03*
X177803000Y-49658000D03*
X175263000Y-49658000D03*
X172723000Y-49658000D03*
X170183000Y-49658000D03*
X167643000Y-49658000D03*
D28*
X145658000Y-80658000D03*
X147008000Y-80658000D03*
X98833000Y-84258000D03*
X100183000Y-84258000D03*
D17*
X114183000Y-86958000D03*
X114183000Y-91458000D03*
X107683000Y-86958000D03*
X107683000Y-91458000D03*
D31*
X182780440Y-68658000D03*
X180281080Y-68658000D03*
X176704760Y-68658000D03*
X175058840Y-68658000D03*
X172783000Y-68658000D03*
X170283640Y-68658000D03*
X167852860Y-68658000D03*
X166153600Y-68658000D03*
X185279800Y-68658000D03*
X178579280Y-68658000D03*
D32*
X162000628Y-90863600D03*
X190950628Y-89663600D03*
D31*
X162803340Y-68658000D03*
D33*
X170383000Y-66258000D03*
X176783000Y-66258000D03*
X121983000Y-51458000D03*
X103583000Y-62858000D03*
X101383000Y-80258000D03*
X146183000Y-60658000D03*
X139233000Y-54308000D03*
X150583000Y-73858000D03*
X158583000Y-73858000D03*
X134783000Y-66858000D03*
X145783000Y-66258000D03*
X153583000Y-72458000D03*
X155183000Y-72458000D03*
X158383000Y-56058000D03*
X135983000Y-72058000D03*
X136583000Y-76058000D03*
X135383000Y-76058000D03*
X134183000Y-76058000D03*
X132983000Y-76058000D03*
X134983000Y-72058000D03*
X133983000Y-72058000D03*
X132983000Y-72058000D03*
X131983000Y-72058000D03*
X125583000Y-56258000D03*
X127183000Y-61858000D03*
X127383000Y-60658000D03*
X124583000Y-62658000D03*
X124583000Y-61258000D03*
X134983000Y-60458000D03*
X135783000Y-61258000D03*
X118983000Y-73458000D03*
X129583000Y-72058000D03*
X124583000Y-68658000D03*
X106983000Y-83058000D03*
X106183000Y-76458000D03*
X105183000Y-64658000D03*
X128383000Y-78458000D03*
X118383000Y-56458000D03*
X154383000Y-60258000D03*
X143983000Y-83858000D03*
X115783000Y-66858000D03*
X106183000Y-56058000D03*
X112183000Y-54058000D03*
X112183000Y-51258000D03*
X115383000Y-49458000D03*
X108383000Y-64458000D03*
X105383000Y-80258000D03*
X173783000Y-61058000D03*
X174583000Y-66058000D03*
X126883000Y-84458000D03*
X126883000Y-78458000D03*
X109158736Y-57658000D03*
X118783000Y-68058000D03*
X142583000Y-80658000D03*
X153383000Y-77858000D03*
X154383000Y-57858000D03*
X155583000Y-75458000D03*
X153383000Y-75458000D03*
X140983000Y-66258000D03*
X140383000Y-60658000D03*
X134583000Y-54658000D03*
X120583000Y-73458000D03*
X116783000Y-59658000D03*
X124383000Y-48658000D03*
X126983000Y-48658000D03*
X128983000Y-48658000D03*
X131383000Y-48658000D03*
X133983000Y-48658000D03*
X136383000Y-48658000D03*
X138983000Y-48658000D03*
X141583000Y-48658000D03*
X146583000Y-48658000D03*
X148983000Y-48658000D03*
X151583000Y-48658000D03*
X159183000Y-48658000D03*
X167783000Y-66258000D03*
X165183000Y-63658000D03*
X172783000Y-62208000D03*
X172783000Y-66058000D03*
X164383000Y-62208000D03*
X180183000Y-66058000D03*
X177983000Y-62858000D03*
X163583000Y-64458000D03*
X155807272Y-66657990D03*
X134183000Y-68258000D03*
X132383000Y-68658000D03*
X156783000Y-68458000D03*
X160883000Y-67508000D03*
X156783000Y-66058000D03*
X154183000Y-48658000D03*
X152770448Y-67246905D03*
X135007267Y-70433723D03*
X139983000Y-68658000D03*
X154983000Y-67858000D03*
X181353000Y-62548000D03*
X156183000Y-92658000D03*
X100183000Y-48258000D03*
D34*
X170266012Y-68602400D02*
X170266012Y-66374988D01*
X170266012Y-66374988D02*
X170383000Y-66258000D01*
X176687132Y-68602400D02*
X176687132Y-66353868D01*
X176687132Y-66353868D02*
X176783000Y-66258000D01*
D35*
X121963000Y-40158000D02*
X121963000Y-51438000D01*
X121963000Y-51438000D02*
X121983000Y-51458000D01*
D34*
X107683000Y-91458000D02*
X114183000Y-91458000D01*
X185423000Y-49658000D02*
X185423000Y-52198000D01*
X167643000Y-52198000D02*
X167643000Y-49658000D01*
X105083000Y-62858000D02*
X103583000Y-62858000D01*
X101383000Y-78268800D02*
X101383000Y-80258000D01*
X143583000Y-60658000D02*
X146183000Y-60658000D01*
X137383000Y-54658000D02*
X138883000Y-54658000D01*
X138883000Y-54658000D02*
X139233000Y-54308000D01*
X151983000Y-73858000D02*
X150583000Y-73858000D01*
X157133000Y-73858000D02*
X158583000Y-73858000D01*
D36*
X136083000Y-68158000D02*
X134783000Y-66858000D01*
X137783000Y-68158000D02*
X136083000Y-68158000D01*
D34*
X144283000Y-66258000D02*
X145783000Y-66258000D01*
X154383000Y-62208000D02*
X154383000Y-60258000D01*
X153583000Y-70708000D02*
X153583000Y-72458000D01*
X155183000Y-70708000D02*
X155183000Y-72458000D01*
D37*
X158283000Y-57858000D02*
X158283000Y-56158000D01*
X158283000Y-56158000D02*
X158383000Y-56058000D01*
D36*
X136083000Y-73858000D02*
X136083000Y-72158000D01*
X136083000Y-72158000D02*
X135983000Y-72058000D01*
X135583000Y-73858000D02*
X135583000Y-75058000D01*
X135583000Y-75058000D02*
X136583000Y-76058000D01*
X134583000Y-73858000D02*
X134583000Y-75258000D01*
X134583000Y-75258000D02*
X135383000Y-76058000D01*
X133583000Y-73858000D02*
X133583000Y-75458000D01*
X133583000Y-75458000D02*
X134183000Y-76058000D01*
X132583000Y-73858000D02*
X132583000Y-75658000D01*
X132583000Y-75658000D02*
X132983000Y-76058000D01*
X135083000Y-73858000D02*
X135083000Y-72158000D01*
X135083000Y-72158000D02*
X134983000Y-72058000D01*
X134083000Y-73858000D02*
X134083000Y-72158000D01*
X134083000Y-72158000D02*
X133983000Y-72058000D01*
X133083000Y-73858000D02*
X133083000Y-72158000D01*
X133083000Y-72158000D02*
X132983000Y-72058000D01*
X132083000Y-73858000D02*
X132083000Y-72158000D01*
X132083000Y-72158000D02*
X131983000Y-72058000D01*
X125083000Y-58458000D02*
X125083000Y-56758000D01*
X125083000Y-56758000D02*
X125583000Y-56258000D01*
X125583000Y-58458000D02*
X125583000Y-60258000D01*
X125583000Y-60258000D02*
X127183000Y-61858000D01*
X126083000Y-58458000D02*
X126083000Y-59408000D01*
X126083000Y-59408000D02*
X127333000Y-60658000D01*
X127333000Y-60658000D02*
X127383000Y-60658000D01*
X122383000Y-62658000D02*
X124583000Y-62658000D01*
X122383000Y-60658000D02*
X123983000Y-60658000D01*
X123983000Y-60658000D02*
X124583000Y-61258000D01*
X137783000Y-60158000D02*
X135283000Y-60158000D01*
X135283000Y-60158000D02*
X134983000Y-60458000D01*
X137783000Y-60658000D02*
X136383000Y-60658000D01*
X136383000Y-60658000D02*
X135783000Y-61258000D01*
D37*
X119083000Y-75058000D02*
X119083000Y-73558000D01*
X119083000Y-73558000D02*
X118983000Y-73458000D01*
D36*
X129583000Y-73858000D02*
X129583000Y-72058000D01*
X123083000Y-69158000D02*
X124083000Y-69158000D01*
X124083000Y-69158000D02*
X124583000Y-68658000D01*
X122383000Y-69158000D02*
X123083000Y-69158000D01*
D34*
X106983000Y-81658000D02*
X106983000Y-83058000D01*
X106183000Y-78268800D02*
X106183000Y-76458000D01*
X105383000Y-66858000D02*
X105383000Y-64858000D01*
X105383000Y-64858000D02*
X105183000Y-64658000D01*
X128383000Y-77058000D02*
X128383000Y-78458000D01*
D37*
X118383000Y-58158000D02*
X118383000Y-56458000D01*
D34*
X145583000Y-83858000D02*
X143983000Y-83858000D01*
X117283000Y-66858000D02*
X115783000Y-66858000D01*
X103983000Y-56144000D02*
X106097000Y-56144000D01*
X106097000Y-56144000D02*
X106183000Y-56058000D01*
X109983000Y-54058000D02*
X112183000Y-54058000D01*
X110003000Y-51258000D02*
X112183000Y-51258000D01*
X115383000Y-49458000D02*
X106183000Y-49458000D01*
X105813000Y-49828000D02*
X105813000Y-51258000D01*
X106183000Y-49458000D02*
X105813000Y-49828000D01*
X103983000Y-51572000D02*
X105499000Y-51572000D01*
X105499000Y-51572000D02*
X105813000Y-51258000D01*
X105813000Y-51258000D02*
X107383000Y-51258000D01*
D36*
X172723000Y-49658000D02*
X172723000Y-52198000D01*
D34*
X106583000Y-65199300D02*
X106583000Y-64458000D01*
X108383000Y-64458000D02*
X106583000Y-64458000D01*
X106583000Y-64458000D02*
X106583000Y-62858000D01*
X106183000Y-65599300D02*
X106583000Y-65199300D01*
X95783000Y-60542000D02*
X95783000Y-64258000D01*
X95783000Y-64258000D02*
X95783000Y-79658000D01*
X100583000Y-66858000D02*
X100583000Y-65599300D01*
X100583000Y-65599300D02*
X99241700Y-64258000D01*
X99241700Y-64258000D02*
X95783000Y-64258000D01*
X105383000Y-80258000D02*
X105383000Y-81558000D01*
X105383000Y-81558000D02*
X105483000Y-81658000D01*
X105383000Y-80258000D02*
X105383000Y-78268800D01*
X106183000Y-66858000D02*
X106183000Y-65599300D01*
X173783000Y-61058000D02*
X167583000Y-54858000D01*
X167583000Y-54858000D02*
X167523000Y-54858000D01*
X175041212Y-68602400D02*
X175041212Y-66516212D01*
X175041212Y-66516212D02*
X174583000Y-66058000D01*
X97983000Y-81858000D02*
X101983000Y-81858000D01*
X95783000Y-79658000D02*
X97983000Y-81858000D01*
X104583000Y-84458000D02*
X126883000Y-84458000D01*
X101983000Y-81858000D02*
X104583000Y-84458000D01*
X126883000Y-84458000D02*
X137583000Y-84458000D01*
X126883000Y-77058000D02*
X126883000Y-78458000D01*
D36*
X124083000Y-74758000D02*
X123783000Y-75058000D01*
X123783000Y-75058000D02*
X120583000Y-75058000D01*
X124083000Y-73858000D02*
X124083000Y-74758000D01*
D34*
X157383000Y-54858000D02*
X158983000Y-54858000D01*
X158983000Y-54858000D02*
X167523000Y-54858000D01*
X158958000Y-53258000D02*
X158958000Y-54833000D01*
X158958000Y-54833000D02*
X158983000Y-54858000D01*
X109158736Y-57658000D02*
X100267000Y-57658000D01*
X100267000Y-57658000D02*
X99467000Y-56858000D01*
X118783000Y-66858000D02*
X118783000Y-68058000D01*
X105699000Y-54058000D02*
X107363000Y-54058000D01*
X103983000Y-53858000D02*
X105499000Y-53858000D01*
X105499000Y-53858000D02*
X105699000Y-54058000D01*
X153383000Y-77858000D02*
X144183000Y-77858000D01*
X144183000Y-77858000D02*
X142583000Y-79458000D01*
X142583000Y-79458000D02*
X142583000Y-80658000D01*
X141383000Y-80658000D02*
X142583000Y-80658000D01*
X142583000Y-80658000D02*
X145583000Y-80658000D01*
X154383000Y-57858000D02*
X157383000Y-54858000D01*
X167523000Y-54858000D02*
X170183000Y-52198000D01*
X154383000Y-57858000D02*
X156783000Y-57858000D01*
X155583000Y-75458000D02*
X155583000Y-73908000D01*
X155583000Y-73908000D02*
X155633000Y-73858000D01*
X153483000Y-73858000D02*
X153483000Y-75358000D01*
X153483000Y-75358000D02*
X153383000Y-75458000D01*
D36*
X137783000Y-61158000D02*
X139883000Y-61158000D01*
X139883000Y-61158000D02*
X140383000Y-60658000D01*
X137783000Y-66158000D02*
X140883000Y-66158000D01*
X140883000Y-66158000D02*
X140983000Y-66258000D01*
D34*
X142783000Y-66258000D02*
X140983000Y-66258000D01*
X142083000Y-60658000D02*
X140383000Y-60658000D01*
D36*
X134083000Y-58458000D02*
X134083000Y-57508000D01*
X134083000Y-57508000D02*
X134183000Y-57408000D01*
X134183000Y-57408000D02*
X134183000Y-56333000D01*
X134183000Y-56333000D02*
X135858000Y-54658000D01*
X135858000Y-54658000D02*
X135883000Y-54658000D01*
D34*
X135883000Y-54658000D02*
X134583000Y-54658000D01*
X126983000Y-77158000D02*
X126883000Y-77058000D01*
X120583000Y-73458000D02*
X120583000Y-75058000D01*
X116783000Y-59658000D02*
X118383000Y-59658000D01*
X99467000Y-56858000D02*
X95783000Y-60542000D01*
X102467000Y-53858000D02*
X99467000Y-56858000D01*
X103983000Y-53858000D02*
X102467000Y-53858000D01*
X137583000Y-84458000D02*
X141383000Y-80658000D01*
D36*
X119583000Y-59658000D02*
X120083000Y-60158000D01*
X120083000Y-60158000D02*
X122383000Y-60158000D01*
X118383000Y-59658000D02*
X119583000Y-59658000D01*
X156783000Y-61458000D02*
X156783000Y-62208000D01*
X156783000Y-57858000D02*
X156783000Y-61458000D01*
X155983000Y-71458000D02*
X155983000Y-70708000D01*
X155633000Y-73858000D02*
X155633000Y-73283000D01*
X155633000Y-73283000D02*
X155983000Y-72933000D01*
X155983000Y-72933000D02*
X155983000Y-71458000D01*
X153483000Y-73858000D02*
X154083000Y-73858000D01*
X154383000Y-73558000D02*
X154383000Y-70708000D01*
X154083000Y-73858000D02*
X154383000Y-73558000D01*
X127083000Y-73858000D02*
X127083000Y-75983000D01*
X127083000Y-75983000D02*
X126883000Y-76183000D01*
X126883000Y-76183000D02*
X126883000Y-77058000D01*
X124083000Y-74458000D02*
X124083000Y-73858000D01*
X118783000Y-66858000D02*
X119383000Y-66858000D01*
X120083000Y-66158000D02*
X122383000Y-66158000D01*
X119383000Y-66858000D02*
X120083000Y-66158000D01*
X142683000Y-66158000D02*
X142783000Y-66258000D01*
D34*
X170183000Y-52198000D02*
X170183000Y-49658000D01*
D36*
X124183000Y-50258000D02*
X124383000Y-50058000D01*
X124383000Y-50058000D02*
X124383000Y-48658000D01*
X124183000Y-57408000D02*
X124183000Y-50258000D01*
X124083000Y-58458000D02*
X124083000Y-57508000D01*
X124083000Y-57508000D02*
X124183000Y-57408000D01*
X124583000Y-58458000D02*
X124583000Y-51058000D01*
X124583000Y-51058000D02*
X126983000Y-48658000D01*
X126583000Y-52658000D02*
X128983000Y-50258000D01*
X128983000Y-50258000D02*
X128983000Y-48658000D01*
X126583000Y-58458000D02*
X126583000Y-52658000D01*
X127183000Y-52658000D02*
X129583000Y-50258000D01*
X129583000Y-50258000D02*
X129583000Y-40158000D01*
X127183000Y-57408000D02*
X127183000Y-52658000D01*
X127083000Y-58458000D02*
X127083000Y-57508000D01*
X127083000Y-57508000D02*
X127183000Y-57408000D01*
X127583000Y-53058000D02*
X131383000Y-49258000D01*
X131383000Y-49258000D02*
X131383000Y-48658000D01*
X127583000Y-58458000D02*
X127583000Y-53058000D01*
X128183000Y-53058000D02*
X132123000Y-49118000D01*
X132123000Y-49118000D02*
X132123000Y-40158000D01*
X128183000Y-57408000D02*
X128183000Y-53058000D01*
X128083000Y-58458000D02*
X128083000Y-57508000D01*
X128083000Y-57508000D02*
X128183000Y-57408000D01*
X133983000Y-49058000D02*
X133983000Y-48658000D01*
X133583000Y-49458000D02*
X133983000Y-49058000D01*
X132383000Y-49458000D02*
X133583000Y-49458000D01*
X128583000Y-53258000D02*
X132383000Y-49458000D01*
X128583000Y-58458000D02*
X128583000Y-53258000D01*
X134183000Y-49858000D02*
X134663000Y-49378000D01*
X134663000Y-49378000D02*
X134663000Y-40158000D01*
X132583000Y-49858000D02*
X134183000Y-49858000D01*
X129183000Y-53258000D02*
X132583000Y-49858000D01*
X129183000Y-57408000D02*
X129183000Y-53258000D01*
X129083000Y-58458000D02*
X129083000Y-57508000D01*
X129083000Y-57508000D02*
X129183000Y-57408000D01*
X135983000Y-50258000D02*
X136383000Y-49858000D01*
X136383000Y-49858000D02*
X136383000Y-48658000D01*
X132783000Y-50258000D02*
X135983000Y-50258000D01*
X129583000Y-53458000D02*
X132783000Y-50258000D01*
X129583000Y-58458000D02*
X129583000Y-53458000D01*
X136383000Y-50658000D02*
X137203000Y-49838000D01*
X137203000Y-49838000D02*
X137203000Y-40158000D01*
X132983000Y-50658000D02*
X136383000Y-50658000D01*
X130183000Y-53458000D02*
X132983000Y-50658000D01*
X130183000Y-57408000D02*
X130183000Y-53458000D01*
X130083000Y-58458000D02*
X130083000Y-57508000D01*
X130083000Y-57508000D02*
X130183000Y-57408000D01*
X138183000Y-51058000D02*
X138983000Y-50258000D01*
X138983000Y-50258000D02*
X138983000Y-48658000D01*
X133183000Y-51058000D02*
X138183000Y-51058000D01*
X130583000Y-53658000D02*
X133183000Y-51058000D01*
X130583000Y-58458000D02*
X130583000Y-53658000D01*
X139383000Y-51458000D02*
X139743000Y-51098000D01*
X139743000Y-51098000D02*
X139743000Y-40158000D01*
X133383000Y-51458000D02*
X139383000Y-51458000D01*
X131183000Y-53658000D02*
X133383000Y-51458000D01*
X131183000Y-57408000D02*
X131183000Y-53658000D01*
X131083000Y-58458000D02*
X131083000Y-57508000D01*
X131083000Y-57508000D02*
X131183000Y-57408000D01*
X141383000Y-50258000D02*
X141583000Y-50058000D01*
X141583000Y-50058000D02*
X141583000Y-48658000D01*
X141383000Y-50297798D02*
X141383000Y-50258000D01*
X133583000Y-51858000D02*
X139822798Y-51858000D01*
X139822798Y-51858000D02*
X141383000Y-50297798D01*
X131583000Y-53858000D02*
X133583000Y-51858000D01*
X131583000Y-58458000D02*
X131583000Y-53858000D01*
X132083000Y-58458000D02*
X132083000Y-57508000D01*
X132083000Y-57508000D02*
X132183000Y-57408000D01*
X132183000Y-57408000D02*
X132183000Y-53858000D01*
X132183000Y-53858000D02*
X133783000Y-52258000D01*
X139988498Y-52258000D02*
X142283000Y-49963498D01*
X133783000Y-52258000D02*
X139988498Y-52258000D01*
X142283000Y-49963498D02*
X142283000Y-40158000D01*
X132583000Y-58458000D02*
X132583000Y-54058000D01*
X132583000Y-54058000D02*
X133983000Y-52658000D01*
X143783000Y-50858000D02*
X144823000Y-49818000D01*
X133983000Y-52658000D02*
X140183002Y-52658000D01*
X140183002Y-52658000D02*
X141983002Y-50858000D01*
X141983002Y-50858000D02*
X143783000Y-50858000D01*
X144823000Y-49818000D02*
X144823000Y-40158000D01*
X143982989Y-51258011D02*
X146583000Y-48658000D01*
X142148689Y-51258011D02*
X143982989Y-51258011D01*
X134402287Y-53058011D02*
X140348689Y-53058011D01*
X133083000Y-54377298D02*
X134402287Y-53058011D01*
X140348689Y-53058011D02*
X142148689Y-51258011D01*
X133083000Y-58458000D02*
X133083000Y-54377298D01*
X147363000Y-49843700D02*
X147363000Y-40158000D01*
X133583000Y-54442998D02*
X134548689Y-53477309D01*
X142348689Y-51658011D02*
X145548689Y-51658011D01*
X133583000Y-58458000D02*
X133583000Y-54442998D01*
X134548689Y-53477309D02*
X140529391Y-53477309D01*
X145548689Y-51658011D02*
X147363000Y-49843700D01*
X140529391Y-53477309D02*
X142348689Y-51658011D01*
X148983000Y-49082264D02*
X148983000Y-48658000D01*
X146007242Y-52058022D02*
X148983000Y-49082264D01*
X142514378Y-52058022D02*
X146007242Y-52058022D01*
X138914400Y-55658000D02*
X142514378Y-52058022D01*
X135983000Y-55658000D02*
X138914400Y-55658000D01*
X134583000Y-57058000D02*
X135983000Y-55658000D01*
X134583000Y-58458000D02*
X134583000Y-57058000D01*
X142680067Y-52458033D02*
X148182967Y-52458033D01*
X149903000Y-50738000D02*
X149903000Y-40158000D01*
X148182967Y-52458033D02*
X149903000Y-50738000D01*
X138880100Y-56258000D02*
X142680067Y-52458033D01*
X136183000Y-56258000D02*
X138880100Y-56258000D01*
X135083000Y-58458000D02*
X135083000Y-57358000D01*
X135083000Y-57358000D02*
X136183000Y-56258000D01*
X146983000Y-59258000D02*
X151583000Y-54658000D01*
X151583000Y-54658000D02*
X151583000Y-48658000D01*
X141583000Y-59258000D02*
X146983000Y-59258000D01*
X139383000Y-57058000D02*
X141583000Y-59258000D01*
X136033000Y-57058000D02*
X139383000Y-57058000D01*
X135583000Y-58458000D02*
X135583000Y-57508000D01*
X135583000Y-57508000D02*
X136033000Y-57058000D01*
X147583000Y-59658000D02*
X152443000Y-54798000D01*
X152443000Y-54798000D02*
X152443000Y-40158000D01*
X137633000Y-59658000D02*
X147583000Y-59658000D01*
X136083000Y-58458000D02*
X136433000Y-58458000D01*
X136433000Y-58458000D02*
X137633000Y-59658000D01*
X154983000Y-53463211D02*
X154983000Y-40158000D01*
X146038188Y-62408023D02*
X154983000Y-53463211D01*
X145130806Y-62408023D02*
X146038188Y-62408023D01*
X144880783Y-62158000D02*
X145130806Y-62408023D01*
X137783000Y-62158000D02*
X144880783Y-62158000D01*
X146203877Y-62808034D02*
X156383000Y-52628911D01*
X157523000Y-50258000D02*
X157523000Y-40158000D01*
X156383000Y-52628911D02*
X156383000Y-51398000D01*
X156383000Y-51398000D02*
X157523000Y-50258000D01*
X144815083Y-62658000D02*
X144965117Y-62808034D01*
X137783000Y-62658000D02*
X144815083Y-62658000D01*
X144965117Y-62808034D02*
X146203877Y-62808034D01*
X157085300Y-51470000D02*
X159183000Y-49372300D01*
X146369566Y-63208045D02*
X157085300Y-52492311D01*
X144799428Y-63208045D02*
X146369566Y-63208045D01*
X144749383Y-63158000D02*
X144799428Y-63208045D01*
X137783000Y-63158000D02*
X144749383Y-63158000D01*
X159183000Y-49372300D02*
X159183000Y-48658000D01*
X157085300Y-52492311D02*
X157085300Y-51470000D01*
X157485311Y-51635689D02*
X160063000Y-49058000D01*
X146485311Y-63658000D02*
X157485311Y-52658000D01*
X160063000Y-49058000D02*
X160063000Y-40158000D01*
X157485311Y-52658000D02*
X157485311Y-51635689D01*
X137783000Y-63658000D02*
X146485311Y-63658000D01*
X161051011Y-49658000D02*
X162603000Y-48106011D01*
X160183000Y-49658000D02*
X161051011Y-49658000D01*
X157983000Y-51858000D02*
X160183000Y-49658000D01*
X146551011Y-64158000D02*
X157983000Y-52726011D01*
X157983000Y-52726011D02*
X157983000Y-51858000D01*
X137783000Y-64158000D02*
X146551011Y-64158000D01*
X162603000Y-48106011D02*
X162603000Y-40158000D01*
X167835232Y-68602400D02*
X167835232Y-66310232D01*
X167835232Y-66310232D02*
X167783000Y-66258000D01*
X182883000Y-57069999D02*
X182883000Y-52198000D01*
X165183000Y-63658000D02*
X176294999Y-63658000D01*
X176294999Y-63658000D02*
X182883000Y-57069999D01*
X159033000Y-63658000D02*
X165183000Y-63658000D01*
X182883000Y-52198000D02*
X182883000Y-49658000D01*
X172783000Y-62208000D02*
X174833000Y-62208000D01*
X174833000Y-62208000D02*
X180343000Y-56698000D01*
X164383000Y-62208000D02*
X172783000Y-62208000D01*
X172765372Y-68602400D02*
X172765372Y-66075628D01*
X172765372Y-66075628D02*
X172783000Y-66058000D01*
X157583000Y-62208000D02*
X164383000Y-62208000D01*
X180343000Y-56698000D02*
X180343000Y-52198000D01*
X180343000Y-52198000D02*
X180343000Y-49658000D01*
X180183000Y-66058000D02*
X180183000Y-68521948D01*
X180183000Y-68521948D02*
X180263452Y-68602400D01*
X177983000Y-62858000D02*
X184072001Y-56768999D01*
X176383000Y-64458000D02*
X177983000Y-62858000D01*
X179152980Y-48308020D02*
X177803000Y-49658000D01*
X183233020Y-48308020D02*
X179152980Y-48308020D01*
X184072001Y-49147001D02*
X183233020Y-48308020D01*
X184072001Y-56768999D02*
X184072001Y-49147001D01*
X163583000Y-64458000D02*
X176383000Y-64458000D01*
X159033000Y-64458000D02*
X163583000Y-64458000D01*
X177803000Y-49658000D02*
X177803000Y-52198000D01*
X176471001Y-65258000D02*
X181783000Y-59946001D01*
X159033000Y-65258000D02*
X176471001Y-65258000D01*
X181783000Y-59946001D02*
X181783000Y-59858000D01*
X181783000Y-59858000D02*
X186783000Y-54858000D01*
X182762812Y-68602400D02*
X182762812Y-60837812D01*
X182762812Y-60837812D02*
X181783000Y-59858000D01*
X185432732Y-47908010D02*
X177012990Y-47908010D01*
X177012990Y-47908010D02*
X175263000Y-49658000D01*
X186783000Y-54858000D02*
X186783000Y-49258278D01*
X186783000Y-49258278D02*
X185432732Y-47908010D01*
X162283278Y-53258000D02*
X160308000Y-53258000D01*
X162283278Y-53258000D02*
X167283278Y-48258000D01*
X167283278Y-48258000D02*
X173863000Y-48258000D01*
X173863000Y-48258000D02*
X175263000Y-49658000D01*
X175263000Y-52198000D02*
X175263000Y-49658000D01*
X159033000Y-66858000D02*
X156007282Y-66858000D01*
X156007282Y-66858000D02*
X155807272Y-66657990D01*
X134183000Y-68258000D02*
X131783000Y-70658000D01*
X131783000Y-70658000D02*
X122383000Y-70658000D01*
X132383000Y-68658000D02*
X131383000Y-69658000D01*
X131383000Y-69658000D02*
X122383000Y-69658000D01*
X157583000Y-70708000D02*
X157583000Y-69258000D01*
X157583000Y-69258000D02*
X156783000Y-68458000D01*
X159033000Y-66058000D02*
X160583000Y-66058000D01*
X153882990Y-93358010D02*
X98683010Y-93358010D01*
X160583000Y-66058000D02*
X161783000Y-67258000D01*
X161783000Y-67258000D02*
X161783000Y-85458000D01*
X161783000Y-85458000D02*
X153882990Y-93358010D01*
X97783000Y-90718000D02*
X99383000Y-89118000D01*
X98683010Y-93358010D02*
X97783000Y-92458000D01*
X97783000Y-92458000D02*
X97783000Y-90718000D01*
X142067998Y-65658000D02*
X142142999Y-65582999D01*
X148748111Y-63658000D02*
X150533000Y-63658000D01*
X146823112Y-65582999D02*
X148748111Y-63658000D01*
X137783000Y-65658000D02*
X142067998Y-65658000D01*
X142142999Y-65582999D02*
X146823112Y-65582999D01*
X149533000Y-67658000D02*
X150533000Y-67658000D01*
X147160506Y-69058012D02*
X148132988Y-69058012D01*
X137783000Y-67658000D02*
X140363596Y-67658000D01*
X146960528Y-68858034D02*
X147160506Y-69058012D01*
X141563630Y-68858034D02*
X146960528Y-68858034D01*
X148132988Y-69058012D02*
X149533000Y-67658000D01*
X140363596Y-67658000D02*
X141563630Y-68858034D01*
X146994817Y-69458023D02*
X148532977Y-69458023D01*
X148532977Y-69458023D02*
X149533000Y-68458000D01*
X149533000Y-68458000D02*
X150533000Y-68458000D01*
X138733000Y-69158000D02*
X138833045Y-69258045D01*
X138833045Y-69258045D02*
X146794839Y-69258045D01*
X146794839Y-69258045D02*
X146994817Y-69458023D01*
X137783000Y-69158000D02*
X138733000Y-69158000D01*
X148932966Y-69858034D02*
X149533000Y-69258000D01*
X149533000Y-69258000D02*
X150533000Y-69258000D01*
X146704094Y-69733000D02*
X146829128Y-69858034D01*
X138808000Y-69733000D02*
X146704094Y-69733000D01*
X138733000Y-69658000D02*
X138808000Y-69733000D01*
X137783000Y-69658000D02*
X138733000Y-69658000D01*
X146829128Y-69858034D02*
X148932966Y-69858034D01*
X147113394Y-70708000D02*
X151983000Y-70708000D01*
X146563394Y-70158000D02*
X147113394Y-70708000D01*
X137783000Y-70158000D02*
X146563394Y-70158000D01*
X143548700Y-72458000D02*
X152033000Y-72458000D01*
X152783000Y-71708000D02*
X152783000Y-70708000D01*
X152033000Y-72458000D02*
X152783000Y-71708000D01*
X141748700Y-70658000D02*
X143548700Y-72458000D01*
X137783000Y-70658000D02*
X141748700Y-70658000D01*
X146583002Y-76058002D02*
X158382998Y-76058002D01*
X160033000Y-74408000D02*
X160033000Y-70733000D01*
X158382998Y-76058002D02*
X160033000Y-74408000D01*
X141683000Y-71158000D02*
X146583002Y-76058002D01*
X159033000Y-69733000D02*
X159033000Y-69258000D01*
X160033000Y-70733000D02*
X159033000Y-69733000D01*
X137783000Y-71158000D02*
X141683000Y-71158000D01*
X158983000Y-69308000D02*
X159033000Y-69258000D01*
X159929277Y-68458000D02*
X159033000Y-68458000D01*
X160582977Y-74423723D02*
X160582977Y-69111700D01*
X158348697Y-76658003D02*
X160582977Y-74423723D01*
X143733003Y-76658003D02*
X158348697Y-76658003D01*
X137783000Y-71658000D02*
X138733000Y-71658000D01*
X160582977Y-69111700D02*
X159929277Y-68458000D01*
X138733000Y-71658000D02*
X143733003Y-76658003D01*
X160982988Y-74589412D02*
X160982988Y-68905650D01*
X143283014Y-77058014D02*
X158514386Y-77058014D01*
X159735338Y-67658000D02*
X159033000Y-67658000D01*
X137783000Y-72158000D02*
X138383000Y-72158000D01*
X138383000Y-72158000D02*
X143283014Y-77058014D01*
X158514386Y-77058014D02*
X160982988Y-74589412D01*
X160982988Y-68905650D02*
X159735338Y-67658000D01*
X137783000Y-64658000D02*
X146616711Y-64658000D01*
X150816711Y-60458000D02*
X152033000Y-60458000D01*
X152033000Y-60458000D02*
X152783000Y-61208000D01*
X152783000Y-61208000D02*
X152783000Y-62208000D01*
X146616711Y-64658000D02*
X150816711Y-60458000D01*
X149632411Y-62208000D02*
X151983000Y-62208000D01*
X137783000Y-65158000D02*
X146682411Y-65158000D01*
X146682411Y-65158000D02*
X149632411Y-62208000D01*
X107683000Y-86958000D02*
X114183000Y-86958000D01*
X146983000Y-82257990D02*
X143417311Y-82257990D01*
X143417311Y-82257990D02*
X140217301Y-85458000D01*
X140217301Y-85458000D02*
X115683000Y-85458000D01*
X115683000Y-85458000D02*
X114183000Y-86958000D01*
X154183010Y-82257990D02*
X155383000Y-81058000D01*
X155383000Y-81058000D02*
X161383000Y-75058000D01*
X155783000Y-83658000D02*
X155783000Y-81458000D01*
X155783000Y-81458000D02*
X155383000Y-81058000D01*
X146983000Y-82257990D02*
X154183010Y-82257990D01*
X147008000Y-80658000D02*
X147008000Y-82232990D01*
X147008000Y-82232990D02*
X146983000Y-82257990D01*
X160883000Y-67508000D02*
X161383000Y-68008000D01*
X161383000Y-68008000D02*
X161383000Y-75058000D01*
X151533000Y-66858000D02*
X152533000Y-67858000D01*
X152533000Y-67858000D02*
X153267300Y-67858000D01*
X153267300Y-67858000D02*
X155367299Y-65758001D01*
X150533000Y-66858000D02*
X151533000Y-66858000D01*
X156483001Y-65758001D02*
X156783000Y-66058000D01*
X155367299Y-65758001D02*
X156483001Y-65758001D01*
X122383000Y-64158000D02*
X113524300Y-64158000D01*
X113524300Y-64158000D02*
X111783000Y-65899300D01*
X111783000Y-65899300D02*
X111783000Y-66858000D01*
X122383000Y-63158000D02*
X112924300Y-63158000D01*
X112924300Y-63158000D02*
X110183000Y-65899300D01*
X110183000Y-65899300D02*
X110183000Y-66858000D01*
X121136701Y-67158000D02*
X122383000Y-67158000D01*
X102624311Y-69058011D02*
X119236690Y-69058011D01*
X119236690Y-69058011D02*
X121136701Y-67158000D01*
X101383000Y-67816700D02*
X102624311Y-69058011D01*
X101383000Y-66858000D02*
X101383000Y-67816700D01*
X113383000Y-66858000D02*
X113383000Y-65899300D01*
X113383000Y-65899300D02*
X114124300Y-65158000D01*
X114124300Y-65158000D02*
X122383000Y-65158000D01*
X130583000Y-75029500D02*
X130583000Y-73858000D01*
X131183055Y-75629555D02*
X130583000Y-75029500D01*
X131183055Y-79686445D02*
X131183055Y-75629555D01*
X129611444Y-81258056D02*
X131183055Y-79686445D01*
X112213556Y-81258056D02*
X129611444Y-81258056D01*
X110183000Y-79227500D02*
X112213556Y-81258056D01*
X110183000Y-78268800D02*
X110183000Y-79227500D01*
X129330101Y-74908001D02*
X129198701Y-74908001D01*
X111783000Y-79227500D02*
X113013534Y-80458034D01*
X129083000Y-74792300D02*
X129083000Y-73858000D01*
X129280066Y-80458034D02*
X130383033Y-79355067D01*
X111783000Y-78268800D02*
X111783000Y-79227500D01*
X129198701Y-74908001D02*
X129083000Y-74792300D01*
X130383033Y-79355067D02*
X130383033Y-75960933D01*
X130383033Y-75960933D02*
X129330101Y-74908001D01*
X113013534Y-80458034D02*
X129280066Y-80458034D01*
X114183000Y-78268800D02*
X114621500Y-78268800D01*
X114621500Y-78268800D02*
X115610701Y-79258001D01*
X128582999Y-79258001D02*
X129183000Y-78658000D01*
X129183000Y-78658000D02*
X129183000Y-76458000D01*
X127583000Y-75058000D02*
X127583000Y-73858000D01*
X115610701Y-79258001D02*
X128582999Y-79258001D01*
X129183000Y-76458000D02*
X128833034Y-76108034D01*
X128833034Y-76108034D02*
X128633034Y-76108034D01*
X128633034Y-76108034D02*
X127583000Y-75058000D01*
X129983022Y-76126622D02*
X129164412Y-75308012D01*
X128583000Y-74858000D02*
X128583000Y-73858000D01*
X129164412Y-75308012D02*
X129033012Y-75308012D01*
X129033012Y-75308012D02*
X128583000Y-74858000D01*
X129983022Y-78989378D02*
X129983022Y-76126622D01*
X128914377Y-80058023D02*
X129983022Y-78989378D01*
X113413523Y-80058023D02*
X128914377Y-80058023D01*
X112583000Y-79227500D02*
X113413523Y-80058023D01*
X112583000Y-78268800D02*
X112583000Y-79227500D01*
X128833023Y-75708023D02*
X128083000Y-74958000D01*
X113383000Y-79227500D02*
X113813512Y-79658012D01*
X113813512Y-79658012D02*
X128748688Y-79658012D01*
X129583011Y-78823689D02*
X129583011Y-76292311D01*
X113383000Y-78268800D02*
X113383000Y-79227500D01*
X128083000Y-74958000D02*
X128083000Y-73858000D01*
X128998723Y-75708023D02*
X128833023Y-75708023D01*
X129583011Y-76292311D02*
X128998723Y-75708023D01*
X128748688Y-79658012D02*
X129583011Y-78823689D01*
X114183000Y-66858000D02*
X114621500Y-66858000D01*
X114621500Y-66858000D02*
X115821500Y-65658000D01*
X115821500Y-65658000D02*
X122383000Y-65658000D01*
X112583000Y-66858000D02*
X112583000Y-65899300D01*
X113824300Y-64658000D02*
X122383000Y-64658000D01*
X112583000Y-65899300D02*
X113824300Y-64658000D01*
X101024331Y-69858031D02*
X119568068Y-69858031D01*
X121268099Y-68158000D02*
X122383000Y-68158000D01*
X98983000Y-66858000D02*
X98983000Y-67816700D01*
X98983000Y-67816700D02*
X101024331Y-69858031D01*
X119568068Y-69858031D02*
X121268099Y-68158000D01*
X121333798Y-68658000D02*
X122383000Y-68658000D01*
X100624341Y-70258041D02*
X119733757Y-70258041D01*
X98183000Y-66858000D02*
X98183000Y-67816700D01*
X98183000Y-67816700D02*
X100624341Y-70258041D01*
X119733757Y-70258041D02*
X121333798Y-68658000D01*
X121433000Y-70158000D02*
X122383000Y-70158000D01*
X97383000Y-67816700D02*
X100224351Y-70658051D01*
X120932949Y-70658051D02*
X121433000Y-70158000D01*
X100224351Y-70658051D02*
X120932949Y-70658051D01*
X97383000Y-66858000D02*
X97383000Y-67816700D01*
X97383000Y-78268800D02*
X97383000Y-77310100D01*
X97383000Y-77310100D02*
X103035100Y-71658000D01*
X103035100Y-71658000D02*
X122383000Y-71658000D01*
X98183000Y-78268800D02*
X98183000Y-77310100D01*
X98183000Y-77310100D02*
X103335100Y-72158000D01*
X103335100Y-72158000D02*
X122383000Y-72158000D01*
X105635113Y-75457987D02*
X116470885Y-75457987D01*
X103783000Y-78268800D02*
X103783000Y-77310100D01*
X116470885Y-75457987D02*
X118070887Y-77057989D01*
X126083000Y-75358000D02*
X126083000Y-73858000D01*
X124383011Y-77057989D02*
X126083000Y-75358000D01*
X118070887Y-77057989D02*
X124383011Y-77057989D01*
X103783000Y-77310100D02*
X105635113Y-75457987D01*
X116305196Y-75857998D02*
X117905198Y-77458000D01*
X126583000Y-75458000D02*
X126583000Y-73858000D01*
X117905198Y-77458000D02*
X124583000Y-77458000D01*
X105894998Y-75857998D02*
X116305196Y-75857998D01*
X104583000Y-78268800D02*
X104583000Y-77169996D01*
X124583000Y-77458000D02*
X126583000Y-75458000D01*
X104583000Y-77169996D02*
X105894998Y-75857998D01*
X102035146Y-74257954D02*
X116967952Y-74257954D01*
X124583000Y-74823699D02*
X124583000Y-73858000D01*
X116967952Y-74257954D02*
X118567954Y-75857956D01*
X98983000Y-77310100D02*
X102035146Y-74257954D01*
X98983000Y-78268800D02*
X98983000Y-77310100D01*
X118567954Y-75857956D02*
X123548743Y-75857956D01*
X123548743Y-75857956D02*
X124583000Y-74823699D01*
X125083000Y-74889398D02*
X125083000Y-73858000D01*
X118402265Y-76257967D02*
X123714431Y-76257967D01*
X116802263Y-74657965D02*
X118402265Y-76257967D01*
X99783000Y-77310100D02*
X102435135Y-74657965D01*
X123714431Y-76257967D02*
X125083000Y-74889398D01*
X99783000Y-78268800D02*
X99783000Y-77310100D01*
X102435135Y-74657965D02*
X116802263Y-74657965D01*
X125583000Y-75258000D02*
X125583000Y-73858000D01*
X124183022Y-76657978D02*
X125583000Y-75258000D01*
X102835124Y-75057976D02*
X116636574Y-75057976D01*
X100583000Y-77310100D02*
X102835124Y-75057976D01*
X118236576Y-76657978D02*
X124183022Y-76657978D01*
X100583000Y-78268800D02*
X100583000Y-77310100D01*
X116636574Y-75057976D02*
X118236576Y-76657978D01*
X131583000Y-74798002D02*
X131583000Y-73858000D01*
X131983075Y-75198077D02*
X131583000Y-74798002D01*
X131983075Y-80017825D02*
X131983075Y-75198077D01*
X129942822Y-82058078D02*
X131983075Y-80017825D01*
X106983000Y-79227500D02*
X109813578Y-82058078D01*
X106983000Y-78268800D02*
X106983000Y-79227500D01*
X109813578Y-82058078D02*
X129942822Y-82058078D01*
X131083000Y-74863702D02*
X131083000Y-73858000D01*
X107783000Y-78268800D02*
X107783000Y-79227500D01*
X131583064Y-75363766D02*
X131083000Y-74863702D01*
X129777133Y-81658067D02*
X131583064Y-79852136D01*
X107783000Y-79227500D02*
X110213567Y-81658067D01*
X110213567Y-81658067D02*
X129777133Y-81658067D01*
X131583064Y-79852136D02*
X131583064Y-75363766D01*
X112136704Y-62158000D02*
X122383000Y-62158000D01*
X107783000Y-66858000D02*
X107783000Y-65899300D01*
X108836691Y-65458013D02*
X112136704Y-62158000D01*
X108224287Y-65458013D02*
X108836691Y-65458013D01*
X107783000Y-65899300D02*
X108224287Y-65458013D01*
X107824298Y-65058002D02*
X106983000Y-65899300D01*
X122383000Y-61658000D02*
X112071004Y-61658000D01*
X108671002Y-65058002D02*
X107824298Y-65058002D01*
X106983000Y-65899300D02*
X106983000Y-66858000D01*
X112071004Y-61658000D02*
X108671002Y-65058002D01*
X104583000Y-65899300D02*
X104583000Y-66858000D01*
X102982999Y-64299299D02*
X104583000Y-65899300D01*
X102982999Y-62569999D02*
X102982999Y-64299299D01*
X104394998Y-61158000D02*
X102982999Y-62569999D01*
X122383000Y-61158000D02*
X104394998Y-61158000D01*
X103783000Y-66858000D02*
X103783000Y-67816700D01*
X103783000Y-67816700D02*
X104624301Y-68658001D01*
X119071001Y-68658001D02*
X121071002Y-66658000D01*
X121071002Y-66658000D02*
X122383000Y-66658000D01*
X104624301Y-68658001D02*
X119071001Y-68658001D01*
X110983000Y-66858000D02*
X110983000Y-65899300D01*
X110983000Y-65899300D02*
X113224300Y-63658000D01*
X113224300Y-63658000D02*
X122383000Y-63658000D01*
X99783000Y-67816700D02*
X101424321Y-69458021D01*
X121202400Y-67658000D02*
X122383000Y-67658000D01*
X119402379Y-69458021D02*
X121202400Y-67658000D01*
X101424321Y-69458021D02*
X119402379Y-69458021D01*
X99783000Y-66858000D02*
X99783000Y-67816700D01*
X110983000Y-79227500D02*
X112613545Y-80858045D01*
X130083000Y-75095200D02*
X130083000Y-73858000D01*
X130783044Y-75795244D02*
X130083000Y-75095200D01*
X130783044Y-79520756D02*
X130783044Y-75795244D01*
X110983000Y-78268800D02*
X110983000Y-79227500D01*
X129445755Y-80858045D02*
X130783044Y-79520756D01*
X112613545Y-80858045D02*
X129445755Y-80858045D01*
X154183000Y-53697511D02*
X154183000Y-48658000D01*
X145872499Y-62008012D02*
X154183000Y-53697511D01*
X144946483Y-61658000D02*
X145296495Y-62008012D01*
X145296495Y-62008012D02*
X145872499Y-62008012D01*
X137783000Y-61658000D02*
X144946483Y-61658000D01*
X148279511Y-65258000D02*
X150533000Y-65258000D01*
X140604308Y-67333012D02*
X146204499Y-67333012D01*
X140429296Y-67158000D02*
X140604308Y-67333012D01*
X146204499Y-67333012D02*
X148279511Y-65258000D01*
X137783000Y-67158000D02*
X140429296Y-67158000D01*
X146038810Y-66933001D02*
X148513811Y-64458000D01*
X148513811Y-64458000D02*
X150533000Y-64458000D01*
X140769997Y-66933001D02*
X146038810Y-66933001D01*
X140494996Y-66658000D02*
X140769997Y-66933001D01*
X137783000Y-66658000D02*
X140494996Y-66658000D01*
X151581543Y-66058000D02*
X152770448Y-67246905D01*
X150533000Y-66058000D02*
X151581543Y-66058000D01*
X134282990Y-71158000D02*
X135007267Y-70433723D01*
X122383000Y-71158000D02*
X134282990Y-71158000D01*
X139983000Y-68658000D02*
X137783000Y-68658000D01*
X156783000Y-70708000D02*
X156783000Y-69658000D01*
X156783000Y-69658000D02*
X154983000Y-67858000D01*
X99383000Y-91658000D02*
X100583000Y-91658000D01*
X141483000Y-92958000D02*
X147008000Y-87433000D01*
X100583000Y-91658000D02*
X101883000Y-92958000D01*
X101883000Y-92958000D02*
X141483000Y-92958000D01*
X147008000Y-87433000D02*
X147008000Y-83858000D01*
X147008000Y-83933000D02*
X147008000Y-83858000D01*
X147083000Y-84058000D02*
X147083000Y-83858000D01*
D38*
X173286263Y-77458000D02*
X171383000Y-77458000D01*
X171383000Y-77458000D02*
X156183000Y-92658000D01*
X181353000Y-62548000D02*
X181353000Y-69391263D01*
X181353000Y-69391263D02*
X173286263Y-77458000D01*
X121083000Y-86958000D02*
X127583000Y-86958000D01*
X95183000Y-82258000D02*
X95183000Y-52058000D01*
X95783000Y-51458000D02*
X95183000Y-52058000D01*
X100183000Y-48258000D02*
X96983000Y-51458000D01*
X96983000Y-51458000D02*
X95783000Y-51458000D01*
X95183000Y-82258000D02*
X97183000Y-84258000D01*
X97183000Y-84258000D02*
X98833000Y-84258000D01*
X121083000Y-91458000D02*
X127583000Y-91458000D01*
X105858000Y-89258000D02*
X118883000Y-89258000D01*
X118883000Y-89258000D02*
X121083000Y-91458000D01*
X100183000Y-84258000D02*
X100858000Y-84258000D01*
X100858000Y-84258000D02*
X105858000Y-89258000D01*
D36*
X100183000Y-84258000D02*
X100183000Y-84333000D01*
M02*
