G04 #@! TF.FileFunction,Legend,Top*
%FSLAX46Y46*%
G04 Gerber Fmt 4.6, Leading zero omitted, Abs format (unit mm)*
G04 Created by KiCad (PCBNEW 4.0.4+dfsg1-stable) date Thu May 11 11:58:33 2017*
%MOMM*%
%LPD*%
G01*
G04 APERTURE LIST*
%ADD10C,0.100000*%
%ADD11C,0.200000*%
%ADD12C,0.150000*%
%ADD13C,0.400000*%
%ADD14C,0.275000*%
%ADD15C,0.120000*%
%ADD16C,0.010000*%
%ADD17C,0.203200*%
G04 APERTURE END LIST*
D10*
D11*
X130144905Y-91991334D02*
X130144905Y-91534191D01*
X130944905Y-91762762D02*
X130144905Y-91762762D01*
X130944905Y-91267524D02*
X130144905Y-91267524D01*
X130944905Y-89819905D02*
X130563952Y-90086572D01*
X130944905Y-90277048D02*
X130144905Y-90277048D01*
X130144905Y-89972286D01*
X130183000Y-89896095D01*
X130221095Y-89858000D01*
X130297286Y-89819905D01*
X130411571Y-89819905D01*
X130487762Y-89858000D01*
X130525857Y-89896095D01*
X130563952Y-89972286D01*
X130563952Y-90277048D01*
X130525857Y-89477048D02*
X130525857Y-89210381D01*
X130944905Y-89096095D02*
X130944905Y-89477048D01*
X130144905Y-89477048D01*
X130144905Y-89096095D01*
X130906810Y-88791333D02*
X130944905Y-88677047D01*
X130944905Y-88486571D01*
X130906810Y-88410381D01*
X130868714Y-88372285D01*
X130792524Y-88334190D01*
X130716333Y-88334190D01*
X130640143Y-88372285D01*
X130602048Y-88410381D01*
X130563952Y-88486571D01*
X130525857Y-88638952D01*
X130487762Y-88715143D01*
X130449667Y-88753238D01*
X130373476Y-88791333D01*
X130297286Y-88791333D01*
X130221095Y-88753238D01*
X130183000Y-88715143D01*
X130144905Y-88638952D01*
X130144905Y-88448476D01*
X130183000Y-88334190D01*
X130525857Y-87991333D02*
X130525857Y-87724666D01*
X130944905Y-87610380D02*
X130944905Y-87991333D01*
X130144905Y-87991333D01*
X130144905Y-87610380D01*
X130144905Y-87381809D02*
X130144905Y-86924666D01*
X130944905Y-87153237D02*
X130144905Y-87153237D01*
X152665843Y-68975158D02*
G75*
G03X152665843Y-68975158I-282843J0D01*
G01*
X136265843Y-60140842D02*
G75*
G03X136265843Y-60140842I-282843J0D01*
G01*
D12*
X106278238Y-52715143D02*
X106887762Y-52715143D01*
X106583000Y-53019905D02*
X106583000Y-52410381D01*
D11*
X148583000Y-83467523D02*
X148544905Y-83543714D01*
X148544905Y-83657999D01*
X148583000Y-83772285D01*
X148659190Y-83848476D01*
X148735381Y-83886571D01*
X148887762Y-83924666D01*
X149002048Y-83924666D01*
X149154429Y-83886571D01*
X149230619Y-83848476D01*
X149306810Y-83772285D01*
X149344905Y-83657999D01*
X149344905Y-83581809D01*
X149306810Y-83467523D01*
X149268714Y-83429428D01*
X149002048Y-83429428D01*
X149002048Y-83581809D01*
X149344905Y-83086571D02*
X148544905Y-83086571D01*
X149344905Y-82629428D01*
X148544905Y-82629428D01*
X149344905Y-82248476D02*
X148544905Y-82248476D01*
X148544905Y-82058000D01*
X148583000Y-81943714D01*
X148659190Y-81867523D01*
X148735381Y-81829428D01*
X148887762Y-81791333D01*
X149002048Y-81791333D01*
X149154429Y-81829428D01*
X149230619Y-81867523D01*
X149306810Y-81943714D01*
X149344905Y-82058000D01*
X149344905Y-82248476D01*
X148544905Y-90648476D02*
X148544905Y-90153238D01*
X148849667Y-90419905D01*
X148849667Y-90305619D01*
X148887762Y-90229429D01*
X148925857Y-90191333D01*
X149002048Y-90153238D01*
X149192524Y-90153238D01*
X149268714Y-90191333D01*
X149306810Y-90229429D01*
X149344905Y-90305619D01*
X149344905Y-90534191D01*
X149306810Y-90610381D01*
X149268714Y-90648476D01*
X148544905Y-89924667D02*
X149344905Y-89658000D01*
X148544905Y-89391333D01*
X148544905Y-89200857D02*
X148544905Y-88705619D01*
X148849667Y-88972286D01*
X148849667Y-88858000D01*
X148887762Y-88781810D01*
X148925857Y-88743714D01*
X149002048Y-88705619D01*
X149192524Y-88705619D01*
X149268714Y-88743714D01*
X149306810Y-88781810D01*
X149344905Y-88858000D01*
X149344905Y-89086572D01*
X149306810Y-89162762D01*
X149268714Y-89200857D01*
X94821095Y-57286572D02*
X95202048Y-57019905D01*
X94821095Y-56829429D02*
X95621095Y-56829429D01*
X95621095Y-57134191D01*
X95583000Y-57210382D01*
X95544905Y-57248477D01*
X95468714Y-57286572D01*
X95354429Y-57286572D01*
X95278238Y-57248477D01*
X95240143Y-57210382D01*
X95202048Y-57134191D01*
X95202048Y-56829429D01*
X94859190Y-57934191D02*
X94821095Y-57858001D01*
X94821095Y-57705620D01*
X94859190Y-57629429D01*
X94935381Y-57591334D01*
X95240143Y-57591334D01*
X95316333Y-57629429D01*
X95354429Y-57705620D01*
X95354429Y-57858001D01*
X95316333Y-57934191D01*
X95240143Y-57972286D01*
X95163952Y-57972286D01*
X95087762Y-57591334D01*
X95354429Y-58238953D02*
X94821095Y-58429429D01*
X95354429Y-58619905D01*
X94897286Y-58924667D02*
X94859190Y-58962762D01*
X94821095Y-58924667D01*
X94859190Y-58886572D01*
X94897286Y-58924667D01*
X94821095Y-58924667D01*
X95544905Y-59267524D02*
X95583000Y-59305619D01*
X95621095Y-59381810D01*
X95621095Y-59572286D01*
X95583000Y-59648476D01*
X95544905Y-59686572D01*
X95468714Y-59724667D01*
X95392524Y-59724667D01*
X95278238Y-59686572D01*
X94821095Y-59229429D01*
X94821095Y-59724667D01*
X117125857Y-91658000D02*
X117125857Y-91924667D01*
X117544905Y-91924667D02*
X116744905Y-91924667D01*
X116744905Y-91543714D01*
X116783000Y-90819905D02*
X116744905Y-90896096D01*
X116744905Y-91010381D01*
X116783000Y-91124667D01*
X116859190Y-91200858D01*
X116935381Y-91238953D01*
X117087762Y-91277048D01*
X117202048Y-91277048D01*
X117354429Y-91238953D01*
X117430619Y-91200858D01*
X117506810Y-91124667D01*
X117544905Y-91010381D01*
X117544905Y-90934191D01*
X117506810Y-90819905D01*
X117468714Y-90781810D01*
X117202048Y-90781810D01*
X117202048Y-90934191D01*
X117544905Y-89372286D02*
X117163952Y-89638953D01*
X117544905Y-89829429D02*
X116744905Y-89829429D01*
X116744905Y-89524667D01*
X116783000Y-89448476D01*
X116821095Y-89410381D01*
X116897286Y-89372286D01*
X117011571Y-89372286D01*
X117087762Y-89410381D01*
X117125857Y-89448476D01*
X117163952Y-89524667D01*
X117163952Y-89829429D01*
X117125857Y-89029429D02*
X117125857Y-88762762D01*
X117544905Y-88648476D02*
X117544905Y-89029429D01*
X116744905Y-89029429D01*
X116744905Y-88648476D01*
X117506810Y-88343714D02*
X117544905Y-88229428D01*
X117544905Y-88038952D01*
X117506810Y-87962762D01*
X117468714Y-87924666D01*
X117392524Y-87886571D01*
X117316333Y-87886571D01*
X117240143Y-87924666D01*
X117202048Y-87962762D01*
X117163952Y-88038952D01*
X117125857Y-88191333D01*
X117087762Y-88267524D01*
X117049667Y-88305619D01*
X116973476Y-88343714D01*
X116897286Y-88343714D01*
X116821095Y-88305619D01*
X116783000Y-88267524D01*
X116744905Y-88191333D01*
X116744905Y-88000857D01*
X116783000Y-87886571D01*
X117125857Y-87543714D02*
X117125857Y-87277047D01*
X117544905Y-87162761D02*
X117544905Y-87543714D01*
X116744905Y-87543714D01*
X116744905Y-87162761D01*
X116744905Y-86934190D02*
X116744905Y-86477047D01*
X117544905Y-86705618D02*
X116744905Y-86705618D01*
X103725857Y-91543714D02*
X103763952Y-91429428D01*
X103802048Y-91391333D01*
X103878238Y-91353238D01*
X103992524Y-91353238D01*
X104068714Y-91391333D01*
X104106810Y-91429428D01*
X104144905Y-91505619D01*
X104144905Y-91810381D01*
X103344905Y-91810381D01*
X103344905Y-91543714D01*
X103383000Y-91467524D01*
X103421095Y-91429428D01*
X103497286Y-91391333D01*
X103573476Y-91391333D01*
X103649667Y-91429428D01*
X103687762Y-91467524D01*
X103725857Y-91543714D01*
X103725857Y-91810381D01*
X103344905Y-91010381D02*
X103992524Y-91010381D01*
X104068714Y-90972286D01*
X104106810Y-90934190D01*
X104144905Y-90858000D01*
X104144905Y-90705619D01*
X104106810Y-90629428D01*
X104068714Y-90591333D01*
X103992524Y-90553238D01*
X103344905Y-90553238D01*
X104106810Y-90210381D02*
X104144905Y-90096095D01*
X104144905Y-89905619D01*
X104106810Y-89829429D01*
X104068714Y-89791333D01*
X103992524Y-89753238D01*
X103916333Y-89753238D01*
X103840143Y-89791333D01*
X103802048Y-89829429D01*
X103763952Y-89905619D01*
X103725857Y-90058000D01*
X103687762Y-90134191D01*
X103649667Y-90172286D01*
X103573476Y-90210381D01*
X103497286Y-90210381D01*
X103421095Y-90172286D01*
X103383000Y-90134191D01*
X103344905Y-90058000D01*
X103344905Y-89867524D01*
X103383000Y-89753238D01*
X103763952Y-89258000D02*
X104144905Y-89258000D01*
X103344905Y-89524667D02*
X103763952Y-89258000D01*
X103344905Y-88991333D01*
X94821095Y-63248476D02*
X95621095Y-63248476D01*
X94821095Y-63591333D02*
X95240143Y-63591333D01*
X95316333Y-63553238D01*
X95354429Y-63477048D01*
X95354429Y-63362762D01*
X95316333Y-63286571D01*
X95278238Y-63248476D01*
X95354429Y-63858000D02*
X95354429Y-64162762D01*
X95621095Y-63972286D02*
X94935381Y-63972286D01*
X94859190Y-64010381D01*
X94821095Y-64086572D01*
X94821095Y-64162762D01*
X95354429Y-64315143D02*
X95354429Y-64619905D01*
X95621095Y-64429429D02*
X94935381Y-64429429D01*
X94859190Y-64467524D01*
X94821095Y-64543715D01*
X94821095Y-64619905D01*
X95354429Y-64886572D02*
X94554429Y-64886572D01*
X95316333Y-64886572D02*
X95354429Y-64962763D01*
X95354429Y-65115144D01*
X95316333Y-65191334D01*
X95278238Y-65229429D01*
X95202048Y-65267525D01*
X94973476Y-65267525D01*
X94897286Y-65229429D01*
X94859190Y-65191334D01*
X94821095Y-65115144D01*
X94821095Y-64962763D01*
X94859190Y-64886572D01*
X94897286Y-65610382D02*
X94859190Y-65648477D01*
X94821095Y-65610382D01*
X94859190Y-65572287D01*
X94897286Y-65610382D01*
X94821095Y-65610382D01*
X95316333Y-65610382D02*
X95278238Y-65648477D01*
X95240143Y-65610382D01*
X95278238Y-65572287D01*
X95316333Y-65610382D01*
X95240143Y-65610382D01*
X95659190Y-66562763D02*
X94630619Y-65877048D01*
X95659190Y-67400858D02*
X94630619Y-66715143D01*
X94859190Y-67972286D02*
X94821095Y-67896096D01*
X94821095Y-67743715D01*
X94859190Y-67667524D01*
X94935381Y-67629429D01*
X95240143Y-67629429D01*
X95316333Y-67667524D01*
X95354429Y-67743715D01*
X95354429Y-67896096D01*
X95316333Y-67972286D01*
X95240143Y-68010381D01*
X95163952Y-68010381D01*
X95087762Y-67629429D01*
X95354429Y-68353238D02*
X94821095Y-68353238D01*
X95278238Y-68353238D02*
X95316333Y-68391333D01*
X95354429Y-68467524D01*
X95354429Y-68581810D01*
X95316333Y-68658000D01*
X95240143Y-68696095D01*
X94821095Y-68696095D01*
X94821095Y-69419905D02*
X95621095Y-69419905D01*
X94859190Y-69419905D02*
X94821095Y-69343715D01*
X94821095Y-69191334D01*
X94859190Y-69115143D01*
X94897286Y-69077048D01*
X94973476Y-69038953D01*
X95202048Y-69038953D01*
X95278238Y-69077048D01*
X95316333Y-69115143D01*
X95354429Y-69191334D01*
X95354429Y-69343715D01*
X95316333Y-69419905D01*
X94821095Y-69915144D02*
X94859190Y-69838953D01*
X94935381Y-69800858D01*
X95621095Y-69800858D01*
X94821095Y-70334192D02*
X94859190Y-70258001D01*
X94897286Y-70219906D01*
X94973476Y-70181811D01*
X95202048Y-70181811D01*
X95278238Y-70219906D01*
X95316333Y-70258001D01*
X95354429Y-70334192D01*
X95354429Y-70448478D01*
X95316333Y-70524668D01*
X95278238Y-70562763D01*
X95202048Y-70600859D01*
X94973476Y-70600859D01*
X94897286Y-70562763D01*
X94859190Y-70524668D01*
X94821095Y-70448478D01*
X94821095Y-70334192D01*
X94859190Y-70905621D02*
X94821095Y-70981811D01*
X94821095Y-71134192D01*
X94859190Y-71210383D01*
X94935381Y-71248478D01*
X94973476Y-71248478D01*
X95049667Y-71210383D01*
X95087762Y-71134192D01*
X95087762Y-71019907D01*
X95125857Y-70943716D01*
X95202048Y-70905621D01*
X95240143Y-70905621D01*
X95316333Y-70943716D01*
X95354429Y-71019907D01*
X95354429Y-71134192D01*
X95316333Y-71210383D01*
X94897286Y-71591335D02*
X94859190Y-71629430D01*
X94821095Y-71591335D01*
X94859190Y-71553240D01*
X94897286Y-71591335D01*
X94821095Y-71591335D01*
X95354429Y-71972287D02*
X94821095Y-71972287D01*
X95278238Y-71972287D02*
X95316333Y-72010382D01*
X95354429Y-72086573D01*
X95354429Y-72200859D01*
X95316333Y-72277049D01*
X95240143Y-72315144D01*
X94821095Y-72315144D01*
X94859190Y-73000859D02*
X94821095Y-72924669D01*
X94821095Y-72772288D01*
X94859190Y-72696097D01*
X94935381Y-72658002D01*
X95240143Y-72658002D01*
X95316333Y-72696097D01*
X95354429Y-72772288D01*
X95354429Y-72924669D01*
X95316333Y-73000859D01*
X95240143Y-73038954D01*
X95163952Y-73038954D01*
X95087762Y-72658002D01*
X95354429Y-73267525D02*
X95354429Y-73572287D01*
X95621095Y-73381811D02*
X94935381Y-73381811D01*
X94859190Y-73419906D01*
X94821095Y-73496097D01*
X94821095Y-73572287D01*
X95659190Y-74410383D02*
X94630619Y-73724668D01*
X95354429Y-74562763D02*
X95354429Y-74867525D01*
X94821095Y-74677049D02*
X95506810Y-74677049D01*
X95583000Y-74715144D01*
X95621095Y-74791335D01*
X95621095Y-74867525D01*
X94821095Y-75134192D02*
X95354429Y-75134192D01*
X95621095Y-75134192D02*
X95583000Y-75096097D01*
X95544905Y-75134192D01*
X95583000Y-75172287D01*
X95621095Y-75134192D01*
X95544905Y-75134192D01*
X95354429Y-75515144D02*
X94821095Y-75515144D01*
X95278238Y-75515144D02*
X95316333Y-75553239D01*
X95354429Y-75629430D01*
X95354429Y-75743716D01*
X95316333Y-75819906D01*
X95240143Y-75858001D01*
X94821095Y-75858001D01*
X94821095Y-76581811D02*
X95240143Y-76581811D01*
X95316333Y-76543716D01*
X95354429Y-76467526D01*
X95354429Y-76315145D01*
X95316333Y-76238954D01*
X94859190Y-76581811D02*
X94821095Y-76505621D01*
X94821095Y-76315145D01*
X94859190Y-76238954D01*
X94935381Y-76200859D01*
X95011571Y-76200859D01*
X95087762Y-76238954D01*
X95125857Y-76315145D01*
X95125857Y-76505621D01*
X95163952Y-76581811D01*
X94821095Y-77077050D02*
X94859190Y-77000859D01*
X94935381Y-76962764D01*
X95621095Y-76962764D01*
X95354429Y-77724669D02*
X94706810Y-77724669D01*
X94630619Y-77686574D01*
X94592524Y-77648479D01*
X94554429Y-77572288D01*
X94554429Y-77458003D01*
X94592524Y-77381812D01*
X94859190Y-77724669D02*
X94821095Y-77648479D01*
X94821095Y-77496098D01*
X94859190Y-77419907D01*
X94897286Y-77381812D01*
X94973476Y-77343717D01*
X95202048Y-77343717D01*
X95278238Y-77381812D01*
X95316333Y-77419907D01*
X95354429Y-77496098D01*
X95354429Y-77648479D01*
X95316333Y-77724669D01*
X94821095Y-78105622D02*
X95354429Y-78105622D01*
X95202048Y-78105622D02*
X95278238Y-78143717D01*
X95316333Y-78181813D01*
X95354429Y-78258003D01*
X95354429Y-78334194D01*
X94821095Y-78715146D02*
X94859190Y-78638955D01*
X94897286Y-78600860D01*
X94973476Y-78562765D01*
X95202048Y-78562765D01*
X95278238Y-78600860D01*
X95316333Y-78638955D01*
X95354429Y-78715146D01*
X95354429Y-78829432D01*
X95316333Y-78905622D01*
X95278238Y-78943717D01*
X95202048Y-78981813D01*
X94973476Y-78981813D01*
X94897286Y-78943717D01*
X94859190Y-78905622D01*
X94821095Y-78829432D01*
X94821095Y-78715146D01*
X94821095Y-79324670D02*
X95354429Y-79324670D01*
X95278238Y-79324670D02*
X95316333Y-79362765D01*
X95354429Y-79438956D01*
X95354429Y-79553242D01*
X95316333Y-79629432D01*
X95240143Y-79667527D01*
X94821095Y-79667527D01*
X95240143Y-79667527D02*
X95316333Y-79705623D01*
X95354429Y-79781813D01*
X95354429Y-79896099D01*
X95316333Y-79972289D01*
X95240143Y-80010384D01*
X94821095Y-80010384D01*
X94821095Y-80429432D02*
X94821095Y-80581813D01*
X94859190Y-80658004D01*
X94897286Y-80696099D01*
X95011571Y-80772290D01*
X95163952Y-80810385D01*
X95468714Y-80810385D01*
X95544905Y-80772290D01*
X95583000Y-80734194D01*
X95621095Y-80658004D01*
X95621095Y-80505623D01*
X95583000Y-80429432D01*
X95544905Y-80391337D01*
X95468714Y-80353242D01*
X95278238Y-80353242D01*
X95202048Y-80391337D01*
X95163952Y-80429432D01*
X95125857Y-80505623D01*
X95125857Y-80658004D01*
X95163952Y-80734194D01*
X95202048Y-80772290D01*
X95278238Y-80810385D01*
X94821095Y-81191337D02*
X94821095Y-81343718D01*
X94859190Y-81419909D01*
X94897286Y-81458004D01*
X95011571Y-81534195D01*
X95163952Y-81572290D01*
X95468714Y-81572290D01*
X95544905Y-81534195D01*
X95583000Y-81496099D01*
X95621095Y-81419909D01*
X95621095Y-81267528D01*
X95583000Y-81191337D01*
X95544905Y-81153242D01*
X95468714Y-81115147D01*
X95278238Y-81115147D01*
X95202048Y-81153242D01*
X95163952Y-81191337D01*
X95125857Y-81267528D01*
X95125857Y-81419909D01*
X95163952Y-81496099D01*
X95202048Y-81534195D01*
X95278238Y-81572290D01*
D13*
X121202047Y-80315143D02*
X120535380Y-80315143D01*
X120535380Y-81362762D02*
X120535380Y-79362762D01*
X121487761Y-79362762D01*
X122249666Y-81362762D02*
X122249666Y-80029429D01*
X122249666Y-79362762D02*
X122154428Y-79458000D01*
X122249666Y-79553238D01*
X122344905Y-79458000D01*
X122249666Y-79362762D01*
X122249666Y-79553238D01*
X123202047Y-80029429D02*
X123202047Y-81362762D01*
X123202047Y-80219905D02*
X123297286Y-80124667D01*
X123487762Y-80029429D01*
X123773476Y-80029429D01*
X123963952Y-80124667D01*
X124059190Y-80315143D01*
X124059190Y-81362762D01*
X125868714Y-81362762D02*
X125868714Y-80315143D01*
X125773476Y-80124667D01*
X125583000Y-80029429D01*
X125202048Y-80029429D01*
X125011571Y-80124667D01*
X125868714Y-81267524D02*
X125678238Y-81362762D01*
X125202048Y-81362762D01*
X125011571Y-81267524D01*
X124916333Y-81077048D01*
X124916333Y-80886571D01*
X125011571Y-80696095D01*
X125202048Y-80600857D01*
X125678238Y-80600857D01*
X125868714Y-80505619D01*
X127106810Y-81362762D02*
X126916334Y-81267524D01*
X126821095Y-81077048D01*
X126821095Y-79362762D01*
X128916334Y-79458000D02*
X128725857Y-79362762D01*
X128440143Y-79362762D01*
X128154429Y-79458000D01*
X127963953Y-79648476D01*
X127868714Y-79838952D01*
X127773476Y-80219905D01*
X127773476Y-80505619D01*
X127868714Y-80886571D01*
X127963953Y-81077048D01*
X128154429Y-81267524D01*
X128440143Y-81362762D01*
X128630619Y-81362762D01*
X128916334Y-81267524D01*
X129011572Y-81172286D01*
X129011572Y-80505619D01*
X128630619Y-80505619D01*
X131011572Y-81362762D02*
X130344905Y-80410381D01*
X129868714Y-81362762D02*
X129868714Y-79362762D01*
X130630619Y-79362762D01*
X130821095Y-79458000D01*
X130916334Y-79553238D01*
X131011572Y-79743714D01*
X131011572Y-80029429D01*
X130916334Y-80219905D01*
X130821095Y-80315143D01*
X130630619Y-80410381D01*
X129868714Y-80410381D01*
X132249667Y-79362762D02*
X132630619Y-79362762D01*
X132821095Y-79458000D01*
X133011572Y-79648476D01*
X133106810Y-80029429D01*
X133106810Y-80696095D01*
X133011572Y-81077048D01*
X132821095Y-81267524D01*
X132630619Y-81362762D01*
X132249667Y-81362762D01*
X132059191Y-81267524D01*
X131868714Y-81077048D01*
X131773476Y-80696095D01*
X131773476Y-80029429D01*
X131868714Y-79648476D01*
X132059191Y-79458000D01*
X132249667Y-79362762D01*
X133963952Y-81362762D02*
X133963952Y-79362762D01*
X134630619Y-80791333D01*
X135297286Y-79362762D01*
X135297286Y-81362762D01*
X137868715Y-81362762D02*
X138249667Y-81362762D01*
X138440143Y-81267524D01*
X138535381Y-81172286D01*
X138725857Y-80886571D01*
X138821096Y-80505619D01*
X138821096Y-79743714D01*
X138725857Y-79553238D01*
X138630619Y-79458000D01*
X138440143Y-79362762D01*
X138059191Y-79362762D01*
X137868715Y-79458000D01*
X137773476Y-79553238D01*
X137678238Y-79743714D01*
X137678238Y-80219905D01*
X137773476Y-80410381D01*
X137868715Y-80505619D01*
X138059191Y-80600857D01*
X138440143Y-80600857D01*
X138630619Y-80505619D01*
X138725857Y-80410381D01*
X138821096Y-80219905D01*
X139773477Y-81362762D02*
X140154429Y-81362762D01*
X140344905Y-81267524D01*
X140440143Y-81172286D01*
X140630619Y-80886571D01*
X140725858Y-80505619D01*
X140725858Y-79743714D01*
X140630619Y-79553238D01*
X140535381Y-79458000D01*
X140344905Y-79362762D01*
X139963953Y-79362762D01*
X139773477Y-79458000D01*
X139678238Y-79553238D01*
X139583000Y-79743714D01*
X139583000Y-80219905D01*
X139678238Y-80410381D01*
X139773477Y-80505619D01*
X139963953Y-80600857D01*
X140344905Y-80600857D01*
X140535381Y-80505619D01*
X140630619Y-80410381D01*
X140725858Y-80219905D01*
D14*
X120754429Y-84458000D02*
X120697287Y-84400857D01*
X120583001Y-84229429D01*
X120525858Y-84115143D01*
X120468715Y-83943714D01*
X120411572Y-83658000D01*
X120411572Y-83429429D01*
X120468715Y-83143714D01*
X120525858Y-82972286D01*
X120583001Y-82858000D01*
X120697287Y-82686571D01*
X120754429Y-82629429D01*
X121725858Y-83943714D02*
X121611572Y-84000857D01*
X121383001Y-84000857D01*
X121268715Y-83943714D01*
X121211572Y-83886571D01*
X121154429Y-83772286D01*
X121154429Y-83429429D01*
X121211572Y-83315143D01*
X121268715Y-83258000D01*
X121383001Y-83200857D01*
X121611572Y-83200857D01*
X121725858Y-83258000D01*
X122125858Y-84458000D02*
X122183000Y-84400857D01*
X122297286Y-84229429D01*
X122354429Y-84115143D01*
X122411572Y-83943714D01*
X122468715Y-83658000D01*
X122468715Y-83429429D01*
X122411572Y-83143714D01*
X122354429Y-82972286D01*
X122297286Y-82858000D01*
X122183000Y-82686571D01*
X122125858Y-82629429D01*
X123897286Y-82915143D02*
X123954429Y-82858000D01*
X124068715Y-82800857D01*
X124354429Y-82800857D01*
X124468715Y-82858000D01*
X124525858Y-82915143D01*
X124583001Y-83029429D01*
X124583001Y-83143714D01*
X124525858Y-83315143D01*
X123840144Y-84000857D01*
X124583001Y-84000857D01*
X125325858Y-82800857D02*
X125440143Y-82800857D01*
X125554429Y-82858000D01*
X125611572Y-82915143D01*
X125668715Y-83029429D01*
X125725858Y-83258000D01*
X125725858Y-83543714D01*
X125668715Y-83772286D01*
X125611572Y-83886571D01*
X125554429Y-83943714D01*
X125440143Y-84000857D01*
X125325858Y-84000857D01*
X125211572Y-83943714D01*
X125154429Y-83886571D01*
X125097286Y-83772286D01*
X125040143Y-83543714D01*
X125040143Y-83258000D01*
X125097286Y-83029429D01*
X125154429Y-82915143D01*
X125211572Y-82858000D01*
X125325858Y-82800857D01*
X126868715Y-84000857D02*
X126183000Y-84000857D01*
X126525858Y-84000857D02*
X126525858Y-82800857D01*
X126411572Y-82972286D01*
X126297286Y-83086571D01*
X126183000Y-83143714D01*
X127268715Y-82800857D02*
X128068715Y-82800857D01*
X127554429Y-84000857D01*
X130125858Y-84000857D02*
X129725858Y-83429429D01*
X129440143Y-84000857D02*
X129440143Y-82800857D01*
X129897286Y-82800857D01*
X130011572Y-82858000D01*
X130068715Y-82915143D01*
X130125858Y-83029429D01*
X130125858Y-83200857D01*
X130068715Y-83315143D01*
X130011572Y-83372286D01*
X129897286Y-83429429D01*
X129440143Y-83429429D01*
X130640143Y-83886571D02*
X130697286Y-83943714D01*
X130640143Y-84000857D01*
X130583000Y-83943714D01*
X130640143Y-83886571D01*
X130640143Y-84000857D01*
X132525858Y-83372286D02*
X132697287Y-83429429D01*
X132754430Y-83486571D01*
X132811573Y-83600857D01*
X132811573Y-83772286D01*
X132754430Y-83886571D01*
X132697287Y-83943714D01*
X132583001Y-84000857D01*
X132125858Y-84000857D01*
X132125858Y-82800857D01*
X132525858Y-82800857D01*
X132640144Y-82858000D01*
X132697287Y-82915143D01*
X132754430Y-83029429D01*
X132754430Y-83143714D01*
X132697287Y-83258000D01*
X132640144Y-83315143D01*
X132525858Y-83372286D01*
X132125858Y-83372286D01*
X133783001Y-83943714D02*
X133668715Y-84000857D01*
X133440144Y-84000857D01*
X133325858Y-83943714D01*
X133268715Y-83829429D01*
X133268715Y-83372286D01*
X133325858Y-83258000D01*
X133440144Y-83200857D01*
X133668715Y-83200857D01*
X133783001Y-83258000D01*
X133840144Y-83372286D01*
X133840144Y-83486571D01*
X133268715Y-83600857D01*
X134354429Y-83200857D02*
X134354429Y-84000857D01*
X134354429Y-83315143D02*
X134411572Y-83258000D01*
X134525858Y-83200857D01*
X134697286Y-83200857D01*
X134811572Y-83258000D01*
X134868715Y-83372286D01*
X134868715Y-84000857D01*
X135325858Y-83200857D02*
X135954429Y-83200857D01*
X135325858Y-84000857D01*
X135954429Y-84000857D01*
X136411572Y-84000857D02*
X136411572Y-83200857D01*
X136411572Y-82800857D02*
X136354429Y-82858000D01*
X136411572Y-82915143D01*
X136468715Y-82858000D01*
X136411572Y-82800857D01*
X136411572Y-82915143D01*
X136983001Y-83200857D02*
X136983001Y-84000857D01*
X136983001Y-83315143D02*
X137040144Y-83258000D01*
X137154430Y-83200857D01*
X137325858Y-83200857D01*
X137440144Y-83258000D01*
X137497287Y-83372286D01*
X137497287Y-84000857D01*
X138583001Y-83200857D02*
X138583001Y-84172286D01*
X138525858Y-84286571D01*
X138468715Y-84343714D01*
X138354430Y-84400857D01*
X138183001Y-84400857D01*
X138068715Y-84343714D01*
X138583001Y-83943714D02*
X138468715Y-84000857D01*
X138240144Y-84000857D01*
X138125858Y-83943714D01*
X138068715Y-83886571D01*
X138011572Y-83772286D01*
X138011572Y-83429429D01*
X138068715Y-83315143D01*
X138125858Y-83258000D01*
X138240144Y-83200857D01*
X138468715Y-83200857D01*
X138583001Y-83258000D01*
X139611572Y-83943714D02*
X139497286Y-84000857D01*
X139268715Y-84000857D01*
X139154429Y-83943714D01*
X139097286Y-83829429D01*
X139097286Y-83372286D01*
X139154429Y-83258000D01*
X139268715Y-83200857D01*
X139497286Y-83200857D01*
X139611572Y-83258000D01*
X139668715Y-83372286D01*
X139668715Y-83486571D01*
X139097286Y-83600857D01*
X140183000Y-84000857D02*
X140183000Y-83200857D01*
X140183000Y-83429429D02*
X140240143Y-83315143D01*
X140297286Y-83258000D01*
X140411572Y-83200857D01*
X140525857Y-83200857D01*
D15*
X149713000Y-94068000D02*
X149713000Y-78328000D01*
X149713000Y-78328000D02*
X159313000Y-78328000D01*
X159313000Y-78328000D02*
X159313000Y-94068000D01*
X159313000Y-94068000D02*
X149713000Y-94068000D01*
D12*
X137258000Y-58983000D02*
X136533000Y-58983000D01*
X137258000Y-73333000D02*
X136458000Y-73333000D01*
X122908000Y-73333000D02*
X123708000Y-73333000D01*
X122908000Y-58983000D02*
X123708000Y-58983000D01*
X137258000Y-58983000D02*
X137258000Y-59783000D01*
X122908000Y-58983000D02*
X122908000Y-59783000D01*
X122908000Y-73333000D02*
X122908000Y-72533000D01*
X137258000Y-73333000D02*
X137258000Y-72533000D01*
X136533000Y-58983000D02*
X136533000Y-57708000D01*
X126348564Y-89208000D02*
G75*
G03X126348564Y-89208000I-2015564J0D01*
G01*
X122083000Y-92458000D02*
X126583000Y-92458000D01*
X120833000Y-88458000D02*
X120833000Y-89958000D01*
X126583000Y-85958000D02*
X122083000Y-85958000D01*
X127833000Y-89958000D02*
X127833000Y-88458000D01*
X100907904Y-92872888D02*
G75*
G03X97883000Y-92888000I-1524904J2484888D01*
G01*
X100883000Y-92888000D02*
X97883000Y-92888000D01*
X101900936Y-90388000D02*
G75*
G03X101900936Y-90388000I-2517936J0D01*
G01*
X107093000Y-50358000D02*
X110793000Y-50358000D01*
X107093000Y-52158000D02*
X110793000Y-52158000D01*
X107073000Y-53158000D02*
X110773000Y-53158000D01*
X107073000Y-54958000D02*
X110773000Y-54958000D01*
X102205000Y-57414000D02*
X105253000Y-57414000D01*
X105253000Y-57414000D02*
X105253000Y-50302000D01*
X105253000Y-50302000D02*
X102205000Y-50302000D01*
X99157000Y-57414000D02*
X98395000Y-57414000D01*
X98395000Y-57414000D02*
X96109000Y-55890000D01*
X96109000Y-55890000D02*
X96109000Y-51826000D01*
X96109000Y-51826000D02*
X98395000Y-50302000D01*
X98395000Y-50302000D02*
X99157000Y-50302000D01*
X98363000Y-76373400D02*
G75*
G03X98363000Y-76373400I-200000J0D01*
G01*
X96893000Y-78913400D02*
X96893000Y-77643400D01*
X96893000Y-77643400D02*
X114673000Y-77643400D01*
X114673000Y-77643400D02*
X114673000Y-67483400D01*
X114673000Y-67483400D02*
X96893000Y-67483400D01*
X96893000Y-67483400D02*
X96893000Y-77643400D01*
X151158000Y-70083000D02*
X151383000Y-70083000D01*
X151158000Y-62833000D02*
X151483000Y-62833000D01*
X158408000Y-62833000D02*
X158083000Y-62833000D01*
X158408000Y-70083000D02*
X158083000Y-70083000D01*
X151158000Y-70083000D02*
X151158000Y-69758000D01*
X158408000Y-70083000D02*
X158408000Y-69758000D01*
X158408000Y-62833000D02*
X158408000Y-63158000D01*
X151158000Y-62833000D02*
X151158000Y-63158000D01*
X151383000Y-70083000D02*
X151383000Y-71508000D01*
X106183000Y-63458000D02*
X105483000Y-63458000D01*
X105483000Y-62258000D02*
X106183000Y-62258000D01*
X105883000Y-81058000D02*
X106583000Y-81058000D01*
X106583000Y-82258000D02*
X105883000Y-82258000D01*
X153083000Y-74458000D02*
X152383000Y-74458000D01*
X152383000Y-73258000D02*
X153083000Y-73258000D01*
X156033000Y-73258000D02*
X156733000Y-73258000D01*
X156733000Y-74458000D02*
X156033000Y-74458000D01*
X157183000Y-57258000D02*
X157883000Y-57258000D01*
X157883000Y-58458000D02*
X157183000Y-58458000D01*
X136283000Y-54058000D02*
X136983000Y-54058000D01*
X136983000Y-55258000D02*
X136283000Y-55258000D01*
X117783000Y-59258000D02*
X117783000Y-58558000D01*
X118983000Y-58558000D02*
X118983000Y-59258000D01*
X142483000Y-60058000D02*
X143183000Y-60058000D01*
X143183000Y-61258000D02*
X142483000Y-61258000D01*
X118383000Y-67458000D02*
X117683000Y-67458000D01*
X117683000Y-66258000D02*
X118383000Y-66258000D01*
X120183000Y-75658000D02*
X119483000Y-75658000D01*
X119483000Y-74458000D02*
X120183000Y-74458000D01*
X127283000Y-76458000D02*
X127983000Y-76458000D01*
X127983000Y-77658000D02*
X127283000Y-77658000D01*
X143183000Y-65658000D02*
X143883000Y-65658000D01*
X143883000Y-66858000D02*
X143183000Y-66858000D01*
D16*
G36*
X136874241Y-90727184D02*
X136900753Y-90740282D01*
X136933447Y-90763106D01*
X136957275Y-90787996D01*
X136973594Y-90819249D01*
X136983760Y-90861166D01*
X136989128Y-90918044D01*
X136991056Y-90994184D01*
X136991169Y-91026917D01*
X136990839Y-91098656D01*
X136989473Y-91149927D01*
X136986500Y-91185404D01*
X136981351Y-91209763D01*
X136973457Y-91227680D01*
X136965243Y-91239902D01*
X136912813Y-91291905D01*
X136851070Y-91323184D01*
X136784464Y-91332592D01*
X136717442Y-91318980D01*
X136696208Y-91309354D01*
X136645376Y-91282859D01*
X136645376Y-91698052D01*
X136682475Y-91678868D01*
X136731357Y-91664025D01*
X136791439Y-91660222D01*
X136851436Y-91667243D01*
X136896744Y-91683013D01*
X136934325Y-91713047D01*
X136966436Y-91756024D01*
X136968850Y-91760436D01*
X136979033Y-91781221D01*
X136986470Y-91802170D01*
X136991589Y-91827548D01*
X136994819Y-91861618D01*
X136996587Y-91908641D01*
X136997323Y-91972882D01*
X136997456Y-92045176D01*
X136997456Y-92275822D01*
X136859139Y-92275822D01*
X136859139Y-91850533D01*
X136820451Y-91817979D01*
X136780262Y-91791940D01*
X136742203Y-91787205D01*
X136703934Y-91799389D01*
X136683538Y-91811320D01*
X136668358Y-91828313D01*
X136657562Y-91853995D01*
X136650317Y-91891991D01*
X136645792Y-91945926D01*
X136643156Y-92019425D01*
X136642228Y-92068347D01*
X136639089Y-92269535D01*
X136573074Y-92273336D01*
X136507060Y-92277136D01*
X136507060Y-91028650D01*
X136645376Y-91028650D01*
X136648903Y-91098254D01*
X136660785Y-91146569D01*
X136682980Y-91176631D01*
X136717441Y-91191471D01*
X136752258Y-91194436D01*
X136791671Y-91191028D01*
X136817829Y-91177617D01*
X136834186Y-91159896D01*
X136847063Y-91140835D01*
X136854728Y-91119601D01*
X136858139Y-91089849D01*
X136858251Y-91045236D01*
X136857103Y-91007880D01*
X136854468Y-90951604D01*
X136850544Y-90914658D01*
X136843937Y-90891223D01*
X136833251Y-90875480D01*
X136823167Y-90866380D01*
X136781030Y-90846537D01*
X136731160Y-90843332D01*
X136702524Y-90850168D01*
X136674172Y-90874464D01*
X136655391Y-90921728D01*
X136646288Y-90991624D01*
X136645376Y-91028650D01*
X136507060Y-91028650D01*
X136507060Y-90716614D01*
X136576218Y-90716614D01*
X136617740Y-90718256D01*
X136639162Y-90724087D01*
X136645374Y-90735461D01*
X136645376Y-90735798D01*
X136648258Y-90746938D01*
X136660970Y-90745673D01*
X136686243Y-90733433D01*
X136745131Y-90714707D01*
X136811385Y-90712739D01*
X136874241Y-90727184D01*
X136874241Y-90727184D01*
G37*
X136874241Y-90727184D02*
X136900753Y-90740282D01*
X136933447Y-90763106D01*
X136957275Y-90787996D01*
X136973594Y-90819249D01*
X136983760Y-90861166D01*
X136989128Y-90918044D01*
X136991056Y-90994184D01*
X136991169Y-91026917D01*
X136990839Y-91098656D01*
X136989473Y-91149927D01*
X136986500Y-91185404D01*
X136981351Y-91209763D01*
X136973457Y-91227680D01*
X136965243Y-91239902D01*
X136912813Y-91291905D01*
X136851070Y-91323184D01*
X136784464Y-91332592D01*
X136717442Y-91318980D01*
X136696208Y-91309354D01*
X136645376Y-91282859D01*
X136645376Y-91698052D01*
X136682475Y-91678868D01*
X136731357Y-91664025D01*
X136791439Y-91660222D01*
X136851436Y-91667243D01*
X136896744Y-91683013D01*
X136934325Y-91713047D01*
X136966436Y-91756024D01*
X136968850Y-91760436D01*
X136979033Y-91781221D01*
X136986470Y-91802170D01*
X136991589Y-91827548D01*
X136994819Y-91861618D01*
X136996587Y-91908641D01*
X136997323Y-91972882D01*
X136997456Y-92045176D01*
X136997456Y-92275822D01*
X136859139Y-92275822D01*
X136859139Y-91850533D01*
X136820451Y-91817979D01*
X136780262Y-91791940D01*
X136742203Y-91787205D01*
X136703934Y-91799389D01*
X136683538Y-91811320D01*
X136668358Y-91828313D01*
X136657562Y-91853995D01*
X136650317Y-91891991D01*
X136645792Y-91945926D01*
X136643156Y-92019425D01*
X136642228Y-92068347D01*
X136639089Y-92269535D01*
X136573074Y-92273336D01*
X136507060Y-92277136D01*
X136507060Y-91028650D01*
X136645376Y-91028650D01*
X136648903Y-91098254D01*
X136660785Y-91146569D01*
X136682980Y-91176631D01*
X136717441Y-91191471D01*
X136752258Y-91194436D01*
X136791671Y-91191028D01*
X136817829Y-91177617D01*
X136834186Y-91159896D01*
X136847063Y-91140835D01*
X136854728Y-91119601D01*
X136858139Y-91089849D01*
X136858251Y-91045236D01*
X136857103Y-91007880D01*
X136854468Y-90951604D01*
X136850544Y-90914658D01*
X136843937Y-90891223D01*
X136833251Y-90875480D01*
X136823167Y-90866380D01*
X136781030Y-90846537D01*
X136731160Y-90843332D01*
X136702524Y-90850168D01*
X136674172Y-90874464D01*
X136655391Y-90921728D01*
X136646288Y-90991624D01*
X136645376Y-91028650D01*
X136507060Y-91028650D01*
X136507060Y-90716614D01*
X136576218Y-90716614D01*
X136617740Y-90718256D01*
X136639162Y-90724087D01*
X136645374Y-90735461D01*
X136645376Y-90735798D01*
X136648258Y-90746938D01*
X136660970Y-90745673D01*
X136686243Y-90733433D01*
X136745131Y-90714707D01*
X136811385Y-90712739D01*
X136874241Y-90727184D01*
G36*
X137398790Y-91664555D02*
X137457945Y-91680339D01*
X137502977Y-91708948D01*
X137534754Y-91746419D01*
X137544634Y-91762411D01*
X137551927Y-91779163D01*
X137557026Y-91800592D01*
X137560321Y-91830616D01*
X137562203Y-91873154D01*
X137563063Y-91932122D01*
X137563293Y-92011440D01*
X137563297Y-92032484D01*
X137563297Y-92275822D01*
X137502941Y-92275822D01*
X137464443Y-92273126D01*
X137435977Y-92266295D01*
X137428845Y-92262083D01*
X137409348Y-92254813D01*
X137389434Y-92262083D01*
X137356647Y-92271160D01*
X137309022Y-92274813D01*
X137256236Y-92273228D01*
X137207964Y-92266589D01*
X137179782Y-92258072D01*
X137125247Y-92223063D01*
X137091165Y-92174479D01*
X137075843Y-92109882D01*
X137075701Y-92108223D01*
X137077045Y-92079566D01*
X137198644Y-92079566D01*
X137209274Y-92112161D01*
X137226590Y-92130505D01*
X137261348Y-92144379D01*
X137307227Y-92149917D01*
X137354012Y-92147191D01*
X137391486Y-92136274D01*
X137401985Y-92129269D01*
X137420332Y-92096904D01*
X137424980Y-92060111D01*
X137424980Y-92011763D01*
X137355418Y-92011763D01*
X137289333Y-92016850D01*
X137239236Y-92031263D01*
X137208071Y-92053729D01*
X137198644Y-92079566D01*
X137077045Y-92079566D01*
X137079013Y-92037647D01*
X137102290Y-91981845D01*
X137146052Y-91939647D01*
X137152101Y-91935808D01*
X137178093Y-91923309D01*
X137210265Y-91915740D01*
X137255240Y-91912061D01*
X137308669Y-91911216D01*
X137424980Y-91911169D01*
X137424980Y-91862411D01*
X137420047Y-91824581D01*
X137407457Y-91799236D01*
X137405983Y-91797887D01*
X137377966Y-91786800D01*
X137335674Y-91782503D01*
X137288936Y-91784615D01*
X137247582Y-91792756D01*
X137223043Y-91804965D01*
X137209747Y-91814746D01*
X137195706Y-91816613D01*
X137176329Y-91808600D01*
X137147024Y-91788739D01*
X137103197Y-91755063D01*
X137099175Y-91751909D01*
X137101236Y-91740236D01*
X137118432Y-91720822D01*
X137144567Y-91699248D01*
X137173448Y-91681096D01*
X137182522Y-91676809D01*
X137215620Y-91668256D01*
X137264120Y-91662155D01*
X137318305Y-91659708D01*
X137320839Y-91659703D01*
X137398790Y-91664555D01*
X137398790Y-91664555D01*
G37*
X137398790Y-91664555D02*
X137457945Y-91680339D01*
X137502977Y-91708948D01*
X137534754Y-91746419D01*
X137544634Y-91762411D01*
X137551927Y-91779163D01*
X137557026Y-91800592D01*
X137560321Y-91830616D01*
X137562203Y-91873154D01*
X137563063Y-91932122D01*
X137563293Y-92011440D01*
X137563297Y-92032484D01*
X137563297Y-92275822D01*
X137502941Y-92275822D01*
X137464443Y-92273126D01*
X137435977Y-92266295D01*
X137428845Y-92262083D01*
X137409348Y-92254813D01*
X137389434Y-92262083D01*
X137356647Y-92271160D01*
X137309022Y-92274813D01*
X137256236Y-92273228D01*
X137207964Y-92266589D01*
X137179782Y-92258072D01*
X137125247Y-92223063D01*
X137091165Y-92174479D01*
X137075843Y-92109882D01*
X137075701Y-92108223D01*
X137077045Y-92079566D01*
X137198644Y-92079566D01*
X137209274Y-92112161D01*
X137226590Y-92130505D01*
X137261348Y-92144379D01*
X137307227Y-92149917D01*
X137354012Y-92147191D01*
X137391486Y-92136274D01*
X137401985Y-92129269D01*
X137420332Y-92096904D01*
X137424980Y-92060111D01*
X137424980Y-92011763D01*
X137355418Y-92011763D01*
X137289333Y-92016850D01*
X137239236Y-92031263D01*
X137208071Y-92053729D01*
X137198644Y-92079566D01*
X137077045Y-92079566D01*
X137079013Y-92037647D01*
X137102290Y-91981845D01*
X137146052Y-91939647D01*
X137152101Y-91935808D01*
X137178093Y-91923309D01*
X137210265Y-91915740D01*
X137255240Y-91912061D01*
X137308669Y-91911216D01*
X137424980Y-91911169D01*
X137424980Y-91862411D01*
X137420047Y-91824581D01*
X137407457Y-91799236D01*
X137405983Y-91797887D01*
X137377966Y-91786800D01*
X137335674Y-91782503D01*
X137288936Y-91784615D01*
X137247582Y-91792756D01*
X137223043Y-91804965D01*
X137209747Y-91814746D01*
X137195706Y-91816613D01*
X137176329Y-91808600D01*
X137147024Y-91788739D01*
X137103197Y-91755063D01*
X137099175Y-91751909D01*
X137101236Y-91740236D01*
X137118432Y-91720822D01*
X137144567Y-91699248D01*
X137173448Y-91681096D01*
X137182522Y-91676809D01*
X137215620Y-91668256D01*
X137264120Y-91662155D01*
X137318305Y-91659708D01*
X137320839Y-91659703D01*
X137398790Y-91664555D01*
G36*
X137789644Y-91661020D02*
X137808461Y-91666660D01*
X137814527Y-91679053D01*
X137814782Y-91684647D01*
X137815871Y-91700230D01*
X137823368Y-91702676D01*
X137843619Y-91691993D01*
X137855649Y-91684694D01*
X137893600Y-91669063D01*
X137938928Y-91661334D01*
X137986456Y-91660740D01*
X138031005Y-91666513D01*
X138067398Y-91677884D01*
X138090457Y-91694088D01*
X138095004Y-91714355D01*
X138092709Y-91719843D01*
X138075980Y-91742626D01*
X138050037Y-91770647D01*
X138045345Y-91775177D01*
X138020617Y-91796005D01*
X137999282Y-91802735D01*
X137969445Y-91798038D01*
X137957492Y-91794917D01*
X137920295Y-91787421D01*
X137894141Y-91790792D01*
X137872054Y-91802681D01*
X137851822Y-91818635D01*
X137836921Y-91838700D01*
X137826566Y-91866702D01*
X137819971Y-91906467D01*
X137816351Y-91961823D01*
X137814922Y-92036594D01*
X137814782Y-92081740D01*
X137814782Y-92275822D01*
X137689040Y-92275822D01*
X137689040Y-91659683D01*
X137751911Y-91659683D01*
X137789644Y-91661020D01*
X137789644Y-91661020D01*
G37*
X137789644Y-91661020D02*
X137808461Y-91666660D01*
X137814527Y-91679053D01*
X137814782Y-91684647D01*
X137815871Y-91700230D01*
X137823368Y-91702676D01*
X137843619Y-91691993D01*
X137855649Y-91684694D01*
X137893600Y-91669063D01*
X137938928Y-91661334D01*
X137986456Y-91660740D01*
X138031005Y-91666513D01*
X138067398Y-91677884D01*
X138090457Y-91694088D01*
X138095004Y-91714355D01*
X138092709Y-91719843D01*
X138075980Y-91742626D01*
X138050037Y-91770647D01*
X138045345Y-91775177D01*
X138020617Y-91796005D01*
X137999282Y-91802735D01*
X137969445Y-91798038D01*
X137957492Y-91794917D01*
X137920295Y-91787421D01*
X137894141Y-91790792D01*
X137872054Y-91802681D01*
X137851822Y-91818635D01*
X137836921Y-91838700D01*
X137826566Y-91866702D01*
X137819971Y-91906467D01*
X137816351Y-91961823D01*
X137814922Y-92036594D01*
X137814782Y-92081740D01*
X137814782Y-92275822D01*
X137689040Y-92275822D01*
X137689040Y-91659683D01*
X137751911Y-91659683D01*
X137789644Y-91661020D01*
G36*
X138581812Y-92275822D02*
X138512654Y-92275822D01*
X138472512Y-92274645D01*
X138451606Y-92269772D01*
X138444078Y-92259186D01*
X138443495Y-92252029D01*
X138442226Y-92237676D01*
X138434221Y-92234923D01*
X138413185Y-92243771D01*
X138396827Y-92252029D01*
X138334023Y-92271597D01*
X138265752Y-92272729D01*
X138210248Y-92258135D01*
X138158562Y-92222877D01*
X138119162Y-92170835D01*
X138097587Y-92109450D01*
X138097038Y-92106018D01*
X138093833Y-92068571D01*
X138092239Y-92014813D01*
X138092367Y-91974155D01*
X138229721Y-91974155D01*
X138232903Y-92028194D01*
X138240141Y-92072735D01*
X138249940Y-92097888D01*
X138287011Y-92132260D01*
X138331026Y-92144582D01*
X138376416Y-92134618D01*
X138415203Y-92104895D01*
X138429892Y-92084905D01*
X138438481Y-92061050D01*
X138442504Y-92026230D01*
X138443495Y-91973930D01*
X138441722Y-91922139D01*
X138437037Y-91876634D01*
X138430397Y-91846181D01*
X138429290Y-91843452D01*
X138402509Y-91811000D01*
X138363421Y-91793183D01*
X138319685Y-91790306D01*
X138278962Y-91802674D01*
X138248913Y-91830593D01*
X138245796Y-91836148D01*
X138236039Y-91870022D01*
X138230723Y-91918728D01*
X138229721Y-91974155D01*
X138092367Y-91974155D01*
X138092432Y-91953540D01*
X138093336Y-91920563D01*
X138099486Y-91838981D01*
X138112267Y-91777730D01*
X138133529Y-91732449D01*
X138165122Y-91698779D01*
X138195793Y-91679014D01*
X138238646Y-91665120D01*
X138291944Y-91660354D01*
X138346520Y-91664236D01*
X138393208Y-91676282D01*
X138417876Y-91690693D01*
X138443495Y-91713878D01*
X138443495Y-91420773D01*
X138581812Y-91420773D01*
X138581812Y-92275822D01*
X138581812Y-92275822D01*
G37*
X138581812Y-92275822D02*
X138512654Y-92275822D01*
X138472512Y-92274645D01*
X138451606Y-92269772D01*
X138444078Y-92259186D01*
X138443495Y-92252029D01*
X138442226Y-92237676D01*
X138434221Y-92234923D01*
X138413185Y-92243771D01*
X138396827Y-92252029D01*
X138334023Y-92271597D01*
X138265752Y-92272729D01*
X138210248Y-92258135D01*
X138158562Y-92222877D01*
X138119162Y-92170835D01*
X138097587Y-92109450D01*
X138097038Y-92106018D01*
X138093833Y-92068571D01*
X138092239Y-92014813D01*
X138092367Y-91974155D01*
X138229721Y-91974155D01*
X138232903Y-92028194D01*
X138240141Y-92072735D01*
X138249940Y-92097888D01*
X138287011Y-92132260D01*
X138331026Y-92144582D01*
X138376416Y-92134618D01*
X138415203Y-92104895D01*
X138429892Y-92084905D01*
X138438481Y-92061050D01*
X138442504Y-92026230D01*
X138443495Y-91973930D01*
X138441722Y-91922139D01*
X138437037Y-91876634D01*
X138430397Y-91846181D01*
X138429290Y-91843452D01*
X138402509Y-91811000D01*
X138363421Y-91793183D01*
X138319685Y-91790306D01*
X138278962Y-91802674D01*
X138248913Y-91830593D01*
X138245796Y-91836148D01*
X138236039Y-91870022D01*
X138230723Y-91918728D01*
X138229721Y-91974155D01*
X138092367Y-91974155D01*
X138092432Y-91953540D01*
X138093336Y-91920563D01*
X138099486Y-91838981D01*
X138112267Y-91777730D01*
X138133529Y-91732449D01*
X138165122Y-91698779D01*
X138195793Y-91679014D01*
X138238646Y-91665120D01*
X138291944Y-91660354D01*
X138346520Y-91664236D01*
X138393208Y-91676282D01*
X138417876Y-91690693D01*
X138443495Y-91713878D01*
X138443495Y-91420773D01*
X138581812Y-91420773D01*
X138581812Y-92275822D01*
G36*
X139064524Y-91662237D02*
X139114255Y-91665971D01*
X139244291Y-92055773D01*
X139264678Y-91986614D01*
X139276946Y-91943874D01*
X139293085Y-91886115D01*
X139310512Y-91822625D01*
X139319726Y-91788570D01*
X139354388Y-91659683D01*
X139497391Y-91659683D01*
X139454646Y-91794857D01*
X139433596Y-91861342D01*
X139408167Y-91941539D01*
X139381610Y-92025193D01*
X139357902Y-92099782D01*
X139303902Y-92269535D01*
X139245598Y-92273328D01*
X139187295Y-92277122D01*
X139155679Y-92172734D01*
X139136182Y-92107889D01*
X139114904Y-92036400D01*
X139096308Y-91973263D01*
X139095574Y-91970750D01*
X139081684Y-91927969D01*
X139069429Y-91898779D01*
X139060846Y-91887741D01*
X139059082Y-91889018D01*
X139052891Y-91906130D01*
X139041128Y-91942787D01*
X139025225Y-91994378D01*
X139006614Y-92056294D01*
X138996543Y-92090352D01*
X138942007Y-92275822D01*
X138826264Y-92275822D01*
X138733737Y-91983471D01*
X138707744Y-91901462D01*
X138684066Y-91826987D01*
X138663820Y-91763544D01*
X138648126Y-91714632D01*
X138638102Y-91683749D01*
X138635055Y-91674726D01*
X138637467Y-91665487D01*
X138656408Y-91661441D01*
X138695823Y-91661846D01*
X138701993Y-91662152D01*
X138775086Y-91665971D01*
X138822957Y-91842010D01*
X138840553Y-91906211D01*
X138856277Y-91962649D01*
X138868746Y-92006422D01*
X138876574Y-92032630D01*
X138878020Y-92036903D01*
X138884014Y-92031990D01*
X138896101Y-92006532D01*
X138912893Y-91963997D01*
X138933003Y-91907850D01*
X138950003Y-91857130D01*
X139014794Y-91658504D01*
X139064524Y-91662237D01*
X139064524Y-91662237D01*
G37*
X139064524Y-91662237D02*
X139114255Y-91665971D01*
X139244291Y-92055773D01*
X139264678Y-91986614D01*
X139276946Y-91943874D01*
X139293085Y-91886115D01*
X139310512Y-91822625D01*
X139319726Y-91788570D01*
X139354388Y-91659683D01*
X139497391Y-91659683D01*
X139454646Y-91794857D01*
X139433596Y-91861342D01*
X139408167Y-91941539D01*
X139381610Y-92025193D01*
X139357902Y-92099782D01*
X139303902Y-92269535D01*
X139245598Y-92273328D01*
X139187295Y-92277122D01*
X139155679Y-92172734D01*
X139136182Y-92107889D01*
X139114904Y-92036400D01*
X139096308Y-91973263D01*
X139095574Y-91970750D01*
X139081684Y-91927969D01*
X139069429Y-91898779D01*
X139060846Y-91887741D01*
X139059082Y-91889018D01*
X139052891Y-91906130D01*
X139041128Y-91942787D01*
X139025225Y-91994378D01*
X139006614Y-92056294D01*
X138996543Y-92090352D01*
X138942007Y-92275822D01*
X138826264Y-92275822D01*
X138733737Y-91983471D01*
X138707744Y-91901462D01*
X138684066Y-91826987D01*
X138663820Y-91763544D01*
X138648126Y-91714632D01*
X138638102Y-91683749D01*
X138635055Y-91674726D01*
X138637467Y-91665487D01*
X138656408Y-91661441D01*
X138695823Y-91661846D01*
X138701993Y-91662152D01*
X138775086Y-91665971D01*
X138822957Y-91842010D01*
X138840553Y-91906211D01*
X138856277Y-91962649D01*
X138868746Y-92006422D01*
X138876574Y-92032630D01*
X138878020Y-92036903D01*
X138884014Y-92031990D01*
X138896101Y-92006532D01*
X138912893Y-91963997D01*
X138933003Y-91907850D01*
X138950003Y-91857130D01*
X139014794Y-91658504D01*
X139064524Y-91662237D01*
G36*
X139821411Y-91663417D02*
X139874411Y-91676290D01*
X139889731Y-91683110D01*
X139919428Y-91700974D01*
X139942220Y-91721093D01*
X139959083Y-91746962D01*
X139970998Y-91782073D01*
X139978942Y-91829920D01*
X139983894Y-91893996D01*
X139986831Y-91977794D01*
X139987947Y-92033768D01*
X139992052Y-92275822D01*
X139921932Y-92275822D01*
X139879393Y-92274038D01*
X139857476Y-92267942D01*
X139851812Y-92257706D01*
X139848821Y-92246637D01*
X139835451Y-92248754D01*
X139817233Y-92257629D01*
X139771624Y-92271233D01*
X139713007Y-92274899D01*
X139651354Y-92268903D01*
X139596638Y-92253521D01*
X139591730Y-92251386D01*
X139541723Y-92216255D01*
X139508756Y-92167419D01*
X139493587Y-92110333D01*
X139494746Y-92089824D01*
X139618508Y-92089824D01*
X139629413Y-92117425D01*
X139661745Y-92137204D01*
X139713910Y-92147819D01*
X139741787Y-92149228D01*
X139788247Y-92145620D01*
X139819129Y-92131597D01*
X139826664Y-92124931D01*
X139847076Y-92088666D01*
X139851812Y-92055773D01*
X139851812Y-92011763D01*
X139790513Y-92011763D01*
X139719256Y-92015395D01*
X139669276Y-92026818D01*
X139637696Y-92046824D01*
X139630626Y-92055743D01*
X139618508Y-92089824D01*
X139494746Y-92089824D01*
X139496971Y-92050456D01*
X139519663Y-91993244D01*
X139550624Y-91954580D01*
X139569376Y-91937864D01*
X139587733Y-91926878D01*
X139611619Y-91920180D01*
X139646957Y-91916326D01*
X139699669Y-91913873D01*
X139720577Y-91913168D01*
X139851812Y-91908879D01*
X139851620Y-91869158D01*
X139846537Y-91827405D01*
X139828162Y-91802158D01*
X139791039Y-91786030D01*
X139790043Y-91785742D01*
X139737410Y-91779400D01*
X139685906Y-91787684D01*
X139647630Y-91807827D01*
X139632272Y-91817773D01*
X139615730Y-91816397D01*
X139590275Y-91801987D01*
X139575328Y-91791817D01*
X139546091Y-91770088D01*
X139527980Y-91753800D01*
X139525074Y-91749137D01*
X139537040Y-91725005D01*
X139572396Y-91696185D01*
X139587753Y-91686461D01*
X139631901Y-91669714D01*
X139691398Y-91660227D01*
X139757487Y-91658095D01*
X139821411Y-91663417D01*
X139821411Y-91663417D01*
G37*
X139821411Y-91663417D02*
X139874411Y-91676290D01*
X139889731Y-91683110D01*
X139919428Y-91700974D01*
X139942220Y-91721093D01*
X139959083Y-91746962D01*
X139970998Y-91782073D01*
X139978942Y-91829920D01*
X139983894Y-91893996D01*
X139986831Y-91977794D01*
X139987947Y-92033768D01*
X139992052Y-92275822D01*
X139921932Y-92275822D01*
X139879393Y-92274038D01*
X139857476Y-92267942D01*
X139851812Y-92257706D01*
X139848821Y-92246637D01*
X139835451Y-92248754D01*
X139817233Y-92257629D01*
X139771624Y-92271233D01*
X139713007Y-92274899D01*
X139651354Y-92268903D01*
X139596638Y-92253521D01*
X139591730Y-92251386D01*
X139541723Y-92216255D01*
X139508756Y-92167419D01*
X139493587Y-92110333D01*
X139494746Y-92089824D01*
X139618508Y-92089824D01*
X139629413Y-92117425D01*
X139661745Y-92137204D01*
X139713910Y-92147819D01*
X139741787Y-92149228D01*
X139788247Y-92145620D01*
X139819129Y-92131597D01*
X139826664Y-92124931D01*
X139847076Y-92088666D01*
X139851812Y-92055773D01*
X139851812Y-92011763D01*
X139790513Y-92011763D01*
X139719256Y-92015395D01*
X139669276Y-92026818D01*
X139637696Y-92046824D01*
X139630626Y-92055743D01*
X139618508Y-92089824D01*
X139494746Y-92089824D01*
X139496971Y-92050456D01*
X139519663Y-91993244D01*
X139550624Y-91954580D01*
X139569376Y-91937864D01*
X139587733Y-91926878D01*
X139611619Y-91920180D01*
X139646957Y-91916326D01*
X139699669Y-91913873D01*
X139720577Y-91913168D01*
X139851812Y-91908879D01*
X139851620Y-91869158D01*
X139846537Y-91827405D01*
X139828162Y-91802158D01*
X139791039Y-91786030D01*
X139790043Y-91785742D01*
X139737410Y-91779400D01*
X139685906Y-91787684D01*
X139647630Y-91807827D01*
X139632272Y-91817773D01*
X139615730Y-91816397D01*
X139590275Y-91801987D01*
X139575328Y-91791817D01*
X139546091Y-91770088D01*
X139527980Y-91753800D01*
X139525074Y-91749137D01*
X139537040Y-91725005D01*
X139572396Y-91696185D01*
X139587753Y-91686461D01*
X139631901Y-91669714D01*
X139691398Y-91660227D01*
X139757487Y-91658095D01*
X139821411Y-91663417D01*
G36*
X140418255Y-91659486D02*
X140466595Y-91669015D01*
X140494114Y-91683125D01*
X140523064Y-91706568D01*
X140481876Y-91758571D01*
X140456482Y-91790064D01*
X140439238Y-91805428D01*
X140422102Y-91807776D01*
X140397027Y-91800217D01*
X140385257Y-91795941D01*
X140337270Y-91789631D01*
X140293324Y-91803156D01*
X140261060Y-91833710D01*
X140255819Y-91843452D01*
X140250112Y-91869258D01*
X140245706Y-91916817D01*
X140242811Y-91982758D01*
X140241631Y-92063710D01*
X140241614Y-92075226D01*
X140241614Y-92275822D01*
X140103297Y-92275822D01*
X140103297Y-91659683D01*
X140172456Y-91659683D01*
X140212333Y-91660725D01*
X140233107Y-91665358D01*
X140240789Y-91675849D01*
X140241614Y-91685745D01*
X140241614Y-91711806D01*
X140274745Y-91685745D01*
X140312735Y-91667965D01*
X140363770Y-91659174D01*
X140418255Y-91659486D01*
X140418255Y-91659486D01*
G37*
X140418255Y-91659486D02*
X140466595Y-91669015D01*
X140494114Y-91683125D01*
X140523064Y-91706568D01*
X140481876Y-91758571D01*
X140456482Y-91790064D01*
X140439238Y-91805428D01*
X140422102Y-91807776D01*
X140397027Y-91800217D01*
X140385257Y-91795941D01*
X140337270Y-91789631D01*
X140293324Y-91803156D01*
X140261060Y-91833710D01*
X140255819Y-91843452D01*
X140250112Y-91869258D01*
X140245706Y-91916817D01*
X140242811Y-91982758D01*
X140241631Y-92063710D01*
X140241614Y-92075226D01*
X140241614Y-92275822D01*
X140103297Y-92275822D01*
X140103297Y-91659683D01*
X140172456Y-91659683D01*
X140212333Y-91660725D01*
X140233107Y-91665358D01*
X140240789Y-91675849D01*
X140241614Y-91685745D01*
X140241614Y-91711806D01*
X140274745Y-91685745D01*
X140312735Y-91667965D01*
X140363770Y-91659174D01*
X140418255Y-91659486D01*
G36*
X140815581Y-91662970D02*
X140875685Y-91678597D01*
X140926021Y-91710848D01*
X140950393Y-91734940D01*
X140990345Y-91791895D01*
X141013242Y-91857965D01*
X141021108Y-91939182D01*
X141021148Y-91945748D01*
X141021218Y-92011763D01*
X140641264Y-92011763D01*
X140649363Y-92046342D01*
X140663987Y-92077659D01*
X140689581Y-92110291D01*
X140694935Y-92115500D01*
X140740943Y-92143694D01*
X140793410Y-92148475D01*
X140853803Y-92129926D01*
X140864040Y-92124931D01*
X140895439Y-92109745D01*
X140916470Y-92101094D01*
X140920139Y-92100293D01*
X140932948Y-92108063D01*
X140957378Y-92127072D01*
X140969779Y-92137460D01*
X140995476Y-92161321D01*
X141003915Y-92177077D01*
X140998058Y-92191571D01*
X140994928Y-92195534D01*
X140973725Y-92212879D01*
X140938738Y-92233959D01*
X140914337Y-92246265D01*
X140845072Y-92267946D01*
X140768388Y-92274971D01*
X140695765Y-92266647D01*
X140675426Y-92260686D01*
X140612476Y-92226952D01*
X140565815Y-92175045D01*
X140535173Y-92104459D01*
X140520282Y-92014692D01*
X140518647Y-91967753D01*
X140523421Y-91899413D01*
X140643990Y-91899413D01*
X140655652Y-91904465D01*
X140686998Y-91908429D01*
X140732571Y-91910768D01*
X140763446Y-91911169D01*
X140818981Y-91910783D01*
X140854033Y-91908975D01*
X140873262Y-91904773D01*
X140881330Y-91897203D01*
X140882901Y-91886218D01*
X140872121Y-91852381D01*
X140844980Y-91818940D01*
X140809277Y-91793272D01*
X140773560Y-91782772D01*
X140725048Y-91792086D01*
X140683053Y-91819013D01*
X140653936Y-91857827D01*
X140643990Y-91899413D01*
X140523421Y-91899413D01*
X140525599Y-91868236D01*
X140547055Y-91788949D01*
X140583470Y-91729263D01*
X140635297Y-91688549D01*
X140702990Y-91666179D01*
X140739662Y-91661871D01*
X140815581Y-91662970D01*
X140815581Y-91662970D01*
G37*
X140815581Y-91662970D02*
X140875685Y-91678597D01*
X140926021Y-91710848D01*
X140950393Y-91734940D01*
X140990345Y-91791895D01*
X141013242Y-91857965D01*
X141021108Y-91939182D01*
X141021148Y-91945748D01*
X141021218Y-92011763D01*
X140641264Y-92011763D01*
X140649363Y-92046342D01*
X140663987Y-92077659D01*
X140689581Y-92110291D01*
X140694935Y-92115500D01*
X140740943Y-92143694D01*
X140793410Y-92148475D01*
X140853803Y-92129926D01*
X140864040Y-92124931D01*
X140895439Y-92109745D01*
X140916470Y-92101094D01*
X140920139Y-92100293D01*
X140932948Y-92108063D01*
X140957378Y-92127072D01*
X140969779Y-92137460D01*
X140995476Y-92161321D01*
X141003915Y-92177077D01*
X140998058Y-92191571D01*
X140994928Y-92195534D01*
X140973725Y-92212879D01*
X140938738Y-92233959D01*
X140914337Y-92246265D01*
X140845072Y-92267946D01*
X140768388Y-92274971D01*
X140695765Y-92266647D01*
X140675426Y-92260686D01*
X140612476Y-92226952D01*
X140565815Y-92175045D01*
X140535173Y-92104459D01*
X140520282Y-92014692D01*
X140518647Y-91967753D01*
X140523421Y-91899413D01*
X140643990Y-91899413D01*
X140655652Y-91904465D01*
X140686998Y-91908429D01*
X140732571Y-91910768D01*
X140763446Y-91911169D01*
X140818981Y-91910783D01*
X140854033Y-91908975D01*
X140873262Y-91904773D01*
X140881330Y-91897203D01*
X140882901Y-91886218D01*
X140872121Y-91852381D01*
X140844980Y-91818940D01*
X140809277Y-91793272D01*
X140773560Y-91782772D01*
X140725048Y-91792086D01*
X140683053Y-91819013D01*
X140653936Y-91857827D01*
X140643990Y-91899413D01*
X140523421Y-91899413D01*
X140525599Y-91868236D01*
X140547055Y-91788949D01*
X140583470Y-91729263D01*
X140635297Y-91688549D01*
X140702990Y-91666179D01*
X140739662Y-91661871D01*
X140815581Y-91662970D01*
G36*
X136244739Y-90723148D02*
X136310521Y-90752231D01*
X136360460Y-90800793D01*
X136394626Y-90868908D01*
X136413093Y-90956651D01*
X136414417Y-90970351D01*
X136415454Y-91066939D01*
X136402007Y-91151602D01*
X136374892Y-91220221D01*
X136360373Y-91242294D01*
X136309799Y-91289011D01*
X136245391Y-91319268D01*
X136173334Y-91331824D01*
X136099815Y-91325439D01*
X136043928Y-91305772D01*
X135995868Y-91272629D01*
X135956588Y-91229175D01*
X135955908Y-91228158D01*
X135939956Y-91201338D01*
X135929590Y-91174368D01*
X135923312Y-91140332D01*
X135919627Y-91092310D01*
X135918003Y-91052931D01*
X135917328Y-91017219D01*
X136043045Y-91017219D01*
X136044274Y-91052770D01*
X136048734Y-91100094D01*
X136056603Y-91130465D01*
X136070793Y-91152072D01*
X136084083Y-91164694D01*
X136131198Y-91191122D01*
X136180495Y-91194653D01*
X136226407Y-91175639D01*
X136249362Y-91154331D01*
X136265904Y-91132859D01*
X136275579Y-91112313D01*
X136279826Y-91085574D01*
X136280080Y-91045523D01*
X136278772Y-91008638D01*
X136275957Y-90955947D01*
X136271495Y-90921772D01*
X136263452Y-90899480D01*
X136249897Y-90882442D01*
X136239155Y-90872703D01*
X136194223Y-90847123D01*
X136145751Y-90845847D01*
X136105106Y-90860999D01*
X136070433Y-90892642D01*
X136049776Y-90944620D01*
X136043045Y-91017219D01*
X135917328Y-91017219D01*
X135916521Y-90974621D01*
X135919052Y-90916056D01*
X135926638Y-90872007D01*
X135940319Y-90837248D01*
X135961135Y-90806551D01*
X135968853Y-90797436D01*
X136017111Y-90752021D01*
X136068872Y-90725493D01*
X136132172Y-90714379D01*
X136163039Y-90713471D01*
X136244739Y-90723148D01*
X136244739Y-90723148D01*
G37*
X136244739Y-90723148D02*
X136310521Y-90752231D01*
X136360460Y-90800793D01*
X136394626Y-90868908D01*
X136413093Y-90956651D01*
X136414417Y-90970351D01*
X136415454Y-91066939D01*
X136402007Y-91151602D01*
X136374892Y-91220221D01*
X136360373Y-91242294D01*
X136309799Y-91289011D01*
X136245391Y-91319268D01*
X136173334Y-91331824D01*
X136099815Y-91325439D01*
X136043928Y-91305772D01*
X135995868Y-91272629D01*
X135956588Y-91229175D01*
X135955908Y-91228158D01*
X135939956Y-91201338D01*
X135929590Y-91174368D01*
X135923312Y-91140332D01*
X135919627Y-91092310D01*
X135918003Y-91052931D01*
X135917328Y-91017219D01*
X136043045Y-91017219D01*
X136044274Y-91052770D01*
X136048734Y-91100094D01*
X136056603Y-91130465D01*
X136070793Y-91152072D01*
X136084083Y-91164694D01*
X136131198Y-91191122D01*
X136180495Y-91194653D01*
X136226407Y-91175639D01*
X136249362Y-91154331D01*
X136265904Y-91132859D01*
X136275579Y-91112313D01*
X136279826Y-91085574D01*
X136280080Y-91045523D01*
X136278772Y-91008638D01*
X136275957Y-90955947D01*
X136271495Y-90921772D01*
X136263452Y-90899480D01*
X136249897Y-90882442D01*
X136239155Y-90872703D01*
X136194223Y-90847123D01*
X136145751Y-90845847D01*
X136105106Y-90860999D01*
X136070433Y-90892642D01*
X136049776Y-90944620D01*
X136043045Y-91017219D01*
X135917328Y-91017219D01*
X135916521Y-90974621D01*
X135919052Y-90916056D01*
X135926638Y-90872007D01*
X135940319Y-90837248D01*
X135961135Y-90806551D01*
X135968853Y-90797436D01*
X136017111Y-90752021D01*
X136068872Y-90725493D01*
X136132172Y-90714379D01*
X136163039Y-90713471D01*
X136244739Y-90723148D01*
G36*
X137426301Y-90730614D02*
X137438832Y-90736514D01*
X137482201Y-90768283D01*
X137523210Y-90814646D01*
X137553832Y-90865696D01*
X137562541Y-90889166D01*
X137570488Y-90931091D01*
X137575226Y-90981757D01*
X137575801Y-91002679D01*
X137575871Y-91068693D01*
X137195917Y-91068693D01*
X137204017Y-91103273D01*
X137223896Y-91144170D01*
X137258653Y-91179514D01*
X137300002Y-91202282D01*
X137326351Y-91207010D01*
X137362084Y-91201273D01*
X137404718Y-91186882D01*
X137419201Y-91180262D01*
X137472760Y-91153513D01*
X137518467Y-91188376D01*
X137544842Y-91211955D01*
X137558876Y-91231417D01*
X137559586Y-91237129D01*
X137547049Y-91250973D01*
X137519572Y-91272012D01*
X137494634Y-91288425D01*
X137427336Y-91317930D01*
X137351890Y-91331284D01*
X137277112Y-91327812D01*
X137217505Y-91309663D01*
X137156059Y-91270784D01*
X137112392Y-91219595D01*
X137085074Y-91153367D01*
X137072678Y-91069371D01*
X137071579Y-91030936D01*
X137075978Y-90942861D01*
X137076518Y-90940299D01*
X137202418Y-90940299D01*
X137205885Y-90948558D01*
X137220137Y-90953113D01*
X137249530Y-90955065D01*
X137298425Y-90955517D01*
X137317252Y-90955525D01*
X137374533Y-90954843D01*
X137410859Y-90952364D01*
X137430396Y-90947443D01*
X137437310Y-90939434D01*
X137437555Y-90936862D01*
X137429664Y-90916423D01*
X137409915Y-90887789D01*
X137401425Y-90877763D01*
X137369906Y-90849408D01*
X137337051Y-90838259D01*
X137319349Y-90837327D01*
X137271461Y-90848981D01*
X137231301Y-90880285D01*
X137205827Y-90925752D01*
X137205375Y-90927233D01*
X137202418Y-90940299D01*
X137076518Y-90940299D01*
X137090608Y-90873510D01*
X137116962Y-90818025D01*
X137149193Y-90778639D01*
X137208783Y-90735931D01*
X137278832Y-90713109D01*
X137353339Y-90711046D01*
X137426301Y-90730614D01*
X137426301Y-90730614D01*
G37*
X137426301Y-90730614D02*
X137438832Y-90736514D01*
X137482201Y-90768283D01*
X137523210Y-90814646D01*
X137553832Y-90865696D01*
X137562541Y-90889166D01*
X137570488Y-90931091D01*
X137575226Y-90981757D01*
X137575801Y-91002679D01*
X137575871Y-91068693D01*
X137195917Y-91068693D01*
X137204017Y-91103273D01*
X137223896Y-91144170D01*
X137258653Y-91179514D01*
X137300002Y-91202282D01*
X137326351Y-91207010D01*
X137362084Y-91201273D01*
X137404718Y-91186882D01*
X137419201Y-91180262D01*
X137472760Y-91153513D01*
X137518467Y-91188376D01*
X137544842Y-91211955D01*
X137558876Y-91231417D01*
X137559586Y-91237129D01*
X137547049Y-91250973D01*
X137519572Y-91272012D01*
X137494634Y-91288425D01*
X137427336Y-91317930D01*
X137351890Y-91331284D01*
X137277112Y-91327812D01*
X137217505Y-91309663D01*
X137156059Y-91270784D01*
X137112392Y-91219595D01*
X137085074Y-91153367D01*
X137072678Y-91069371D01*
X137071579Y-91030936D01*
X137075978Y-90942861D01*
X137076518Y-90940299D01*
X137202418Y-90940299D01*
X137205885Y-90948558D01*
X137220137Y-90953113D01*
X137249530Y-90955065D01*
X137298425Y-90955517D01*
X137317252Y-90955525D01*
X137374533Y-90954843D01*
X137410859Y-90952364D01*
X137430396Y-90947443D01*
X137437310Y-90939434D01*
X137437555Y-90936862D01*
X137429664Y-90916423D01*
X137409915Y-90887789D01*
X137401425Y-90877763D01*
X137369906Y-90849408D01*
X137337051Y-90838259D01*
X137319349Y-90837327D01*
X137271461Y-90848981D01*
X137231301Y-90880285D01*
X137205827Y-90925752D01*
X137205375Y-90927233D01*
X137202418Y-90940299D01*
X137076518Y-90940299D01*
X137090608Y-90873510D01*
X137116962Y-90818025D01*
X137149193Y-90778639D01*
X137208783Y-90735931D01*
X137278832Y-90713109D01*
X137353339Y-90711046D01*
X137426301Y-90730614D01*
G36*
X138797017Y-90714452D02*
X138844634Y-90723482D01*
X138894034Y-90742370D01*
X138899312Y-90744777D01*
X138936774Y-90764476D01*
X138962717Y-90782781D01*
X138971103Y-90794508D01*
X138963117Y-90813632D01*
X138943720Y-90841850D01*
X138935110Y-90852384D01*
X138899628Y-90893847D01*
X138853885Y-90866858D01*
X138810350Y-90848878D01*
X138760050Y-90839267D01*
X138711812Y-90838660D01*
X138674467Y-90847691D01*
X138665505Y-90853327D01*
X138648437Y-90879171D01*
X138646363Y-90908941D01*
X138659134Y-90932197D01*
X138666688Y-90936708D01*
X138689325Y-90942309D01*
X138729115Y-90948892D01*
X138778166Y-90955183D01*
X138787215Y-90956170D01*
X138865996Y-90969798D01*
X138923136Y-90992946D01*
X138961030Y-91027752D01*
X138982079Y-91076354D01*
X138988635Y-91135718D01*
X138979577Y-91203198D01*
X138950164Y-91256188D01*
X138900278Y-91294783D01*
X138829800Y-91319081D01*
X138751565Y-91328667D01*
X138687766Y-91328552D01*
X138636016Y-91319845D01*
X138600673Y-91307825D01*
X138556017Y-91286880D01*
X138514747Y-91262574D01*
X138500079Y-91251876D01*
X138462357Y-91221084D01*
X138507852Y-91175049D01*
X138553347Y-91129013D01*
X138605072Y-91163243D01*
X138656952Y-91188952D01*
X138712351Y-91202399D01*
X138765605Y-91203818D01*
X138811049Y-91193443D01*
X138843016Y-91171507D01*
X138853338Y-91152998D01*
X138851789Y-91123314D01*
X138826140Y-91100615D01*
X138776460Y-91084940D01*
X138722031Y-91077695D01*
X138638264Y-91063873D01*
X138576033Y-91037796D01*
X138534507Y-90998699D01*
X138512853Y-90945820D01*
X138509853Y-90883126D01*
X138524671Y-90817642D01*
X138558454Y-90768144D01*
X138611505Y-90734408D01*
X138684126Y-90716207D01*
X138737928Y-90712639D01*
X138797017Y-90714452D01*
X138797017Y-90714452D01*
G37*
X138797017Y-90714452D02*
X138844634Y-90723482D01*
X138894034Y-90742370D01*
X138899312Y-90744777D01*
X138936774Y-90764476D01*
X138962717Y-90782781D01*
X138971103Y-90794508D01*
X138963117Y-90813632D01*
X138943720Y-90841850D01*
X138935110Y-90852384D01*
X138899628Y-90893847D01*
X138853885Y-90866858D01*
X138810350Y-90848878D01*
X138760050Y-90839267D01*
X138711812Y-90838660D01*
X138674467Y-90847691D01*
X138665505Y-90853327D01*
X138648437Y-90879171D01*
X138646363Y-90908941D01*
X138659134Y-90932197D01*
X138666688Y-90936708D01*
X138689325Y-90942309D01*
X138729115Y-90948892D01*
X138778166Y-90955183D01*
X138787215Y-90956170D01*
X138865996Y-90969798D01*
X138923136Y-90992946D01*
X138961030Y-91027752D01*
X138982079Y-91076354D01*
X138988635Y-91135718D01*
X138979577Y-91203198D01*
X138950164Y-91256188D01*
X138900278Y-91294783D01*
X138829800Y-91319081D01*
X138751565Y-91328667D01*
X138687766Y-91328552D01*
X138636016Y-91319845D01*
X138600673Y-91307825D01*
X138556017Y-91286880D01*
X138514747Y-91262574D01*
X138500079Y-91251876D01*
X138462357Y-91221084D01*
X138507852Y-91175049D01*
X138553347Y-91129013D01*
X138605072Y-91163243D01*
X138656952Y-91188952D01*
X138712351Y-91202399D01*
X138765605Y-91203818D01*
X138811049Y-91193443D01*
X138843016Y-91171507D01*
X138853338Y-91152998D01*
X138851789Y-91123314D01*
X138826140Y-91100615D01*
X138776460Y-91084940D01*
X138722031Y-91077695D01*
X138638264Y-91063873D01*
X138576033Y-91037796D01*
X138534507Y-90998699D01*
X138512853Y-90945820D01*
X138509853Y-90883126D01*
X138524671Y-90817642D01*
X138558454Y-90768144D01*
X138611505Y-90734408D01*
X138684126Y-90716207D01*
X138737928Y-90712639D01*
X138797017Y-90714452D01*
G36*
X139393762Y-90724055D02*
X139457363Y-90758692D01*
X139507123Y-90813372D01*
X139530568Y-90857842D01*
X139540634Y-90897121D01*
X139547156Y-90953116D01*
X139549951Y-91017621D01*
X139548836Y-91082429D01*
X139543626Y-91139334D01*
X139537541Y-91169727D01*
X139517014Y-91211306D01*
X139481463Y-91255468D01*
X139438619Y-91294087D01*
X139396211Y-91319034D01*
X139395177Y-91319430D01*
X139342553Y-91330331D01*
X139280188Y-91330601D01*
X139220924Y-91320676D01*
X139198040Y-91312722D01*
X139139102Y-91279300D01*
X139096890Y-91235511D01*
X139069156Y-91177538D01*
X139053651Y-91101565D01*
X139050143Y-91061771D01*
X139050590Y-91011766D01*
X139185376Y-91011766D01*
X139189917Y-91084732D01*
X139202986Y-91140334D01*
X139223756Y-91175861D01*
X139238552Y-91186020D01*
X139276464Y-91193104D01*
X139321527Y-91191007D01*
X139360487Y-91180812D01*
X139370704Y-91175204D01*
X139397659Y-91142538D01*
X139415451Y-91092545D01*
X139423024Y-91031705D01*
X139419325Y-90966497D01*
X139411057Y-90927253D01*
X139387320Y-90881805D01*
X139349849Y-90853396D01*
X139304720Y-90843573D01*
X139258011Y-90853887D01*
X139222132Y-90879112D01*
X139203277Y-90899925D01*
X139192272Y-90920439D01*
X139187026Y-90948203D01*
X139185449Y-90990762D01*
X139185376Y-91011766D01*
X139050590Y-91011766D01*
X139051094Y-90955580D01*
X139068388Y-90868501D01*
X139102029Y-90800530D01*
X139152018Y-90751664D01*
X139218356Y-90721899D01*
X139232601Y-90718448D01*
X139318210Y-90710345D01*
X139393762Y-90724055D01*
X139393762Y-90724055D01*
G37*
X139393762Y-90724055D02*
X139457363Y-90758692D01*
X139507123Y-90813372D01*
X139530568Y-90857842D01*
X139540634Y-90897121D01*
X139547156Y-90953116D01*
X139549951Y-91017621D01*
X139548836Y-91082429D01*
X139543626Y-91139334D01*
X139537541Y-91169727D01*
X139517014Y-91211306D01*
X139481463Y-91255468D01*
X139438619Y-91294087D01*
X139396211Y-91319034D01*
X139395177Y-91319430D01*
X139342553Y-91330331D01*
X139280188Y-91330601D01*
X139220924Y-91320676D01*
X139198040Y-91312722D01*
X139139102Y-91279300D01*
X139096890Y-91235511D01*
X139069156Y-91177538D01*
X139053651Y-91101565D01*
X139050143Y-91061771D01*
X139050590Y-91011766D01*
X139185376Y-91011766D01*
X139189917Y-91084732D01*
X139202986Y-91140334D01*
X139223756Y-91175861D01*
X139238552Y-91186020D01*
X139276464Y-91193104D01*
X139321527Y-91191007D01*
X139360487Y-91180812D01*
X139370704Y-91175204D01*
X139397659Y-91142538D01*
X139415451Y-91092545D01*
X139423024Y-91031705D01*
X139419325Y-90966497D01*
X139411057Y-90927253D01*
X139387320Y-90881805D01*
X139349849Y-90853396D01*
X139304720Y-90843573D01*
X139258011Y-90853887D01*
X139222132Y-90879112D01*
X139203277Y-90899925D01*
X139192272Y-90920439D01*
X139187026Y-90948203D01*
X139185449Y-90990762D01*
X139185376Y-91011766D01*
X139050590Y-91011766D01*
X139051094Y-90955580D01*
X139068388Y-90868501D01*
X139102029Y-90800530D01*
X139152018Y-90751664D01*
X139218356Y-90721899D01*
X139232601Y-90718448D01*
X139318210Y-90710345D01*
X139393762Y-90724055D01*
G36*
X139776367Y-90912342D02*
X139777555Y-91004563D01*
X139781897Y-91074610D01*
X139790558Y-91125381D01*
X139804704Y-91159772D01*
X139825500Y-91180679D01*
X139854110Y-91191000D01*
X139889535Y-91193636D01*
X139926636Y-91190682D01*
X139954818Y-91179889D01*
X139975243Y-91158360D01*
X139989079Y-91123199D01*
X139997491Y-91071510D01*
X140001643Y-91000394D01*
X140002703Y-90912342D01*
X140002703Y-90716614D01*
X140141020Y-90716614D01*
X140141020Y-91320179D01*
X140071862Y-91320179D01*
X140030170Y-91318489D01*
X140008701Y-91312556D01*
X140002703Y-91301293D01*
X139999091Y-91291261D01*
X139984714Y-91293383D01*
X139955736Y-91307580D01*
X139889319Y-91329480D01*
X139818875Y-91327928D01*
X139751377Y-91304147D01*
X139719233Y-91285362D01*
X139694715Y-91265022D01*
X139676804Y-91239573D01*
X139664479Y-91205458D01*
X139656723Y-91159121D01*
X139652516Y-91097007D01*
X139650840Y-91015561D01*
X139650624Y-90952578D01*
X139650624Y-90716614D01*
X139776367Y-90716614D01*
X139776367Y-90912342D01*
X139776367Y-90912342D01*
G37*
X139776367Y-90912342D02*
X139777555Y-91004563D01*
X139781897Y-91074610D01*
X139790558Y-91125381D01*
X139804704Y-91159772D01*
X139825500Y-91180679D01*
X139854110Y-91191000D01*
X139889535Y-91193636D01*
X139926636Y-91190682D01*
X139954818Y-91179889D01*
X139975243Y-91158360D01*
X139989079Y-91123199D01*
X139997491Y-91071510D01*
X140001643Y-91000394D01*
X140002703Y-90912342D01*
X140002703Y-90716614D01*
X140141020Y-90716614D01*
X140141020Y-91320179D01*
X140071862Y-91320179D01*
X140030170Y-91318489D01*
X140008701Y-91312556D01*
X140002703Y-91301293D01*
X139999091Y-91291261D01*
X139984714Y-91293383D01*
X139955736Y-91307580D01*
X139889319Y-91329480D01*
X139818875Y-91327928D01*
X139751377Y-91304147D01*
X139719233Y-91285362D01*
X139694715Y-91265022D01*
X139676804Y-91239573D01*
X139664479Y-91205458D01*
X139656723Y-91159121D01*
X139652516Y-91097007D01*
X139650840Y-91015561D01*
X139650624Y-90952578D01*
X139650624Y-90716614D01*
X139776367Y-90716614D01*
X139776367Y-90912342D01*
G36*
X141000226Y-90721880D02*
X141073080Y-90752830D01*
X141096027Y-90767895D01*
X141125354Y-90791048D01*
X141143764Y-90809253D01*
X141146961Y-90815183D01*
X141137935Y-90828340D01*
X141114837Y-90850667D01*
X141096344Y-90866250D01*
X141045728Y-90906926D01*
X141005760Y-90873295D01*
X140974874Y-90851584D01*
X140944759Y-90844090D01*
X140910292Y-90845920D01*
X140855561Y-90859528D01*
X140817886Y-90887772D01*
X140794991Y-90933433D01*
X140784597Y-90999289D01*
X140784595Y-90999331D01*
X140785494Y-91072939D01*
X140799463Y-91126946D01*
X140827328Y-91163716D01*
X140846325Y-91176168D01*
X140896776Y-91191673D01*
X140950663Y-91191683D01*
X140997546Y-91176638D01*
X141008644Y-91169287D01*
X141036476Y-91150511D01*
X141058236Y-91147434D01*
X141081704Y-91161409D01*
X141107649Y-91186510D01*
X141148716Y-91228880D01*
X141103121Y-91266464D01*
X141032674Y-91308882D01*
X140953233Y-91329785D01*
X140870215Y-91328272D01*
X140815694Y-91314411D01*
X140751970Y-91280135D01*
X140701005Y-91226212D01*
X140677851Y-91188149D01*
X140659099Y-91133536D01*
X140649715Y-91064369D01*
X140649643Y-90989407D01*
X140658824Y-90917409D01*
X140677199Y-90857137D01*
X140680093Y-90850958D01*
X140722952Y-90790351D01*
X140780979Y-90746224D01*
X140849591Y-90719493D01*
X140924201Y-90711073D01*
X141000226Y-90721880D01*
X141000226Y-90721880D01*
G37*
X141000226Y-90721880D02*
X141073080Y-90752830D01*
X141096027Y-90767895D01*
X141125354Y-90791048D01*
X141143764Y-90809253D01*
X141146961Y-90815183D01*
X141137935Y-90828340D01*
X141114837Y-90850667D01*
X141096344Y-90866250D01*
X141045728Y-90906926D01*
X141005760Y-90873295D01*
X140974874Y-90851584D01*
X140944759Y-90844090D01*
X140910292Y-90845920D01*
X140855561Y-90859528D01*
X140817886Y-90887772D01*
X140794991Y-90933433D01*
X140784597Y-90999289D01*
X140784595Y-90999331D01*
X140785494Y-91072939D01*
X140799463Y-91126946D01*
X140827328Y-91163716D01*
X140846325Y-91176168D01*
X140896776Y-91191673D01*
X140950663Y-91191683D01*
X140997546Y-91176638D01*
X141008644Y-91169287D01*
X141036476Y-91150511D01*
X141058236Y-91147434D01*
X141081704Y-91161409D01*
X141107649Y-91186510D01*
X141148716Y-91228880D01*
X141103121Y-91266464D01*
X141032674Y-91308882D01*
X140953233Y-91329785D01*
X140870215Y-91328272D01*
X140815694Y-91314411D01*
X140751970Y-91280135D01*
X140701005Y-91226212D01*
X140677851Y-91188149D01*
X140659099Y-91133536D01*
X140649715Y-91064369D01*
X140649643Y-90989407D01*
X140658824Y-90917409D01*
X140677199Y-90857137D01*
X140680093Y-90850958D01*
X140722952Y-90790351D01*
X140780979Y-90746224D01*
X140849591Y-90719493D01*
X140924201Y-90711073D01*
X141000226Y-90721880D01*
G36*
X141460898Y-90714457D02*
X141493096Y-90722279D01*
X141554825Y-90750921D01*
X141607610Y-90794667D01*
X141644141Y-90847117D01*
X141649160Y-90858893D01*
X141656045Y-90889740D01*
X141660864Y-90935371D01*
X141662505Y-90981492D01*
X141662505Y-91068693D01*
X141480178Y-91068693D01*
X141404979Y-91068978D01*
X141352003Y-91070704D01*
X141318325Y-91075181D01*
X141301020Y-91083720D01*
X141297163Y-91097630D01*
X141303829Y-91118222D01*
X141315770Y-91142315D01*
X141349080Y-91182525D01*
X141395368Y-91202558D01*
X141451944Y-91201905D01*
X141516031Y-91180101D01*
X141571417Y-91153193D01*
X141617375Y-91189532D01*
X141663333Y-91225872D01*
X141620096Y-91265819D01*
X141562374Y-91303563D01*
X141491386Y-91326320D01*
X141415029Y-91332688D01*
X141341199Y-91321268D01*
X141329287Y-91317393D01*
X141264399Y-91283506D01*
X141216130Y-91232986D01*
X141183465Y-91164325D01*
X141165385Y-91076014D01*
X141165175Y-91074121D01*
X141163556Y-90977878D01*
X141170100Y-90943542D01*
X141297852Y-90943542D01*
X141309584Y-90948822D01*
X141341438Y-90952867D01*
X141388397Y-90955176D01*
X141418154Y-90955525D01*
X141473648Y-90955306D01*
X141508346Y-90953916D01*
X141526601Y-90950251D01*
X141532766Y-90943210D01*
X141531195Y-90931690D01*
X141529878Y-90927233D01*
X141507382Y-90885355D01*
X141472003Y-90851604D01*
X141440780Y-90836773D01*
X141399301Y-90837668D01*
X141357269Y-90856164D01*
X141322012Y-90886786D01*
X141300854Y-90924062D01*
X141297852Y-90943542D01*
X141170100Y-90943542D01*
X141179690Y-90893229D01*
X141211698Y-90822191D01*
X141257701Y-90766779D01*
X141315821Y-90729009D01*
X141384180Y-90710896D01*
X141460898Y-90714457D01*
X141460898Y-90714457D01*
G37*
X141460898Y-90714457D02*
X141493096Y-90722279D01*
X141554825Y-90750921D01*
X141607610Y-90794667D01*
X141644141Y-90847117D01*
X141649160Y-90858893D01*
X141656045Y-90889740D01*
X141660864Y-90935371D01*
X141662505Y-90981492D01*
X141662505Y-91068693D01*
X141480178Y-91068693D01*
X141404979Y-91068978D01*
X141352003Y-91070704D01*
X141318325Y-91075181D01*
X141301020Y-91083720D01*
X141297163Y-91097630D01*
X141303829Y-91118222D01*
X141315770Y-91142315D01*
X141349080Y-91182525D01*
X141395368Y-91202558D01*
X141451944Y-91201905D01*
X141516031Y-91180101D01*
X141571417Y-91153193D01*
X141617375Y-91189532D01*
X141663333Y-91225872D01*
X141620096Y-91265819D01*
X141562374Y-91303563D01*
X141491386Y-91326320D01*
X141415029Y-91332688D01*
X141341199Y-91321268D01*
X141329287Y-91317393D01*
X141264399Y-91283506D01*
X141216130Y-91232986D01*
X141183465Y-91164325D01*
X141165385Y-91076014D01*
X141165175Y-91074121D01*
X141163556Y-90977878D01*
X141170100Y-90943542D01*
X141297852Y-90943542D01*
X141309584Y-90948822D01*
X141341438Y-90952867D01*
X141388397Y-90955176D01*
X141418154Y-90955525D01*
X141473648Y-90955306D01*
X141508346Y-90953916D01*
X141526601Y-90950251D01*
X141532766Y-90943210D01*
X141531195Y-90931690D01*
X141529878Y-90927233D01*
X141507382Y-90885355D01*
X141472003Y-90851604D01*
X141440780Y-90836773D01*
X141399301Y-90837668D01*
X141357269Y-90856164D01*
X141322012Y-90886786D01*
X141300854Y-90924062D01*
X141297852Y-90943542D01*
X141170100Y-90943542D01*
X141179690Y-90893229D01*
X141211698Y-90822191D01*
X141257701Y-90766779D01*
X141315821Y-90729009D01*
X141384180Y-90710896D01*
X141460898Y-90714457D01*
G36*
X138028988Y-90727002D02*
X138060283Y-90741950D01*
X138090591Y-90763541D01*
X138113682Y-90788391D01*
X138130500Y-90820087D01*
X138141994Y-90862214D01*
X138149109Y-90918358D01*
X138152793Y-90992106D01*
X138153992Y-91087044D01*
X138154011Y-91096985D01*
X138154287Y-91320179D01*
X138015970Y-91320179D01*
X138015970Y-91114418D01*
X138015872Y-91038189D01*
X138015191Y-90982939D01*
X138013349Y-90944501D01*
X138009767Y-90918706D01*
X138003868Y-90901384D01*
X137995073Y-90888368D01*
X137982820Y-90875507D01*
X137939953Y-90847873D01*
X137893157Y-90842745D01*
X137848576Y-90860217D01*
X137833072Y-90873221D01*
X137821690Y-90885447D01*
X137813519Y-90898540D01*
X137808026Y-90916615D01*
X137804680Y-90943787D01*
X137802949Y-90984170D01*
X137802303Y-91041879D01*
X137802208Y-91112132D01*
X137802208Y-91320179D01*
X137663891Y-91320179D01*
X137663891Y-90716614D01*
X137733050Y-90716614D01*
X137774572Y-90718256D01*
X137795994Y-90724087D01*
X137802205Y-90735461D01*
X137802208Y-90735798D01*
X137805090Y-90746938D01*
X137817801Y-90745674D01*
X137843074Y-90733434D01*
X137900395Y-90715424D01*
X137965963Y-90713421D01*
X138028988Y-90727002D01*
X138028988Y-90727002D01*
G37*
X138028988Y-90727002D02*
X138060283Y-90741950D01*
X138090591Y-90763541D01*
X138113682Y-90788391D01*
X138130500Y-90820087D01*
X138141994Y-90862214D01*
X138149109Y-90918358D01*
X138152793Y-90992106D01*
X138153992Y-91087044D01*
X138154011Y-91096985D01*
X138154287Y-91320179D01*
X138015970Y-91320179D01*
X138015970Y-91114418D01*
X138015872Y-91038189D01*
X138015191Y-90982939D01*
X138013349Y-90944501D01*
X138009767Y-90918706D01*
X138003868Y-90901384D01*
X137995073Y-90888368D01*
X137982820Y-90875507D01*
X137939953Y-90847873D01*
X137893157Y-90842745D01*
X137848576Y-90860217D01*
X137833072Y-90873221D01*
X137821690Y-90885447D01*
X137813519Y-90898540D01*
X137808026Y-90916615D01*
X137804680Y-90943787D01*
X137802949Y-90984170D01*
X137802303Y-91041879D01*
X137802208Y-91112132D01*
X137802208Y-91320179D01*
X137663891Y-91320179D01*
X137663891Y-90716614D01*
X137733050Y-90716614D01*
X137774572Y-90718256D01*
X137795994Y-90724087D01*
X137802205Y-90735461D01*
X137802208Y-90735798D01*
X137805090Y-90746938D01*
X137817801Y-90745674D01*
X137843074Y-90733434D01*
X137900395Y-90715424D01*
X137965963Y-90713421D01*
X138028988Y-90727002D01*
G36*
X140582460Y-90716030D02*
X140625711Y-90729245D01*
X140653558Y-90745941D01*
X140662629Y-90759145D01*
X140660132Y-90774797D01*
X140643931Y-90799385D01*
X140630232Y-90816800D01*
X140601992Y-90848283D01*
X140580775Y-90861529D01*
X140562688Y-90860664D01*
X140509035Y-90847010D01*
X140469630Y-90847630D01*
X140437632Y-90863104D01*
X140426890Y-90872161D01*
X140392505Y-90904027D01*
X140392505Y-91320179D01*
X140254188Y-91320179D01*
X140254188Y-90716614D01*
X140323347Y-90716614D01*
X140364869Y-90718256D01*
X140386291Y-90724087D01*
X140392502Y-90735461D01*
X140392505Y-90735798D01*
X140395439Y-90747713D01*
X140408704Y-90746159D01*
X140427084Y-90737563D01*
X140465046Y-90721568D01*
X140495872Y-90711945D01*
X140535536Y-90709478D01*
X140582460Y-90716030D01*
X140582460Y-90716030D01*
G37*
X140582460Y-90716030D02*
X140625711Y-90729245D01*
X140653558Y-90745941D01*
X140662629Y-90759145D01*
X140660132Y-90774797D01*
X140643931Y-90799385D01*
X140630232Y-90816800D01*
X140601992Y-90848283D01*
X140580775Y-90861529D01*
X140562688Y-90860664D01*
X140509035Y-90847010D01*
X140469630Y-90847630D01*
X140437632Y-90863104D01*
X140426890Y-90872161D01*
X140392505Y-90904027D01*
X140392505Y-91320179D01*
X140254188Y-91320179D01*
X140254188Y-90716614D01*
X140323347Y-90716614D01*
X140364869Y-90718256D01*
X140386291Y-90724087D01*
X140392502Y-90735461D01*
X140392505Y-90735798D01*
X140395439Y-90747713D01*
X140408704Y-90746159D01*
X140427084Y-90737563D01*
X140465046Y-90721568D01*
X140495872Y-90711945D01*
X140535536Y-90709478D01*
X140582460Y-90716030D01*
G36*
X139159964Y-86548018D02*
X139216812Y-86849570D01*
X139636338Y-87022512D01*
X139887984Y-86851395D01*
X139958458Y-86803750D01*
X140022163Y-86761210D01*
X140076126Y-86725715D01*
X140117373Y-86699210D01*
X140142934Y-86683636D01*
X140149895Y-86680278D01*
X140162435Y-86688914D01*
X140189231Y-86712792D01*
X140227280Y-86748859D01*
X140273579Y-86794067D01*
X140325123Y-86845364D01*
X140378909Y-86899701D01*
X140431935Y-86954028D01*
X140481195Y-87005295D01*
X140523687Y-87050451D01*
X140556407Y-87086446D01*
X140576351Y-87110230D01*
X140581119Y-87118190D01*
X140574257Y-87132865D01*
X140555020Y-87165014D01*
X140525430Y-87211492D01*
X140487510Y-87269156D01*
X140443282Y-87334860D01*
X140417654Y-87372336D01*
X140370941Y-87440768D01*
X140329432Y-87502520D01*
X140295140Y-87554519D01*
X140270080Y-87593692D01*
X140256264Y-87616965D01*
X140254188Y-87621855D01*
X140258895Y-87635755D01*
X140271723Y-87668150D01*
X140290738Y-87714485D01*
X140314003Y-87770206D01*
X140339584Y-87830758D01*
X140365545Y-87891586D01*
X140389950Y-87948136D01*
X140410863Y-87995852D01*
X140426349Y-88030181D01*
X140434472Y-88046568D01*
X140434952Y-88047212D01*
X140447707Y-88050341D01*
X140481677Y-88057321D01*
X140533340Y-88067467D01*
X140599176Y-88080092D01*
X140675664Y-88094509D01*
X140720290Y-88102823D01*
X140802021Y-88118384D01*
X140875843Y-88133192D01*
X140938021Y-88146436D01*
X140984822Y-88157305D01*
X141012509Y-88164989D01*
X141018074Y-88167427D01*
X141023526Y-88183930D01*
X141027924Y-88221200D01*
X141031272Y-88274880D01*
X141033574Y-88340612D01*
X141034832Y-88414037D01*
X141035048Y-88490796D01*
X141034227Y-88566532D01*
X141032371Y-88636886D01*
X141029482Y-88697500D01*
X141025565Y-88744016D01*
X141020622Y-88772075D01*
X141017657Y-88777916D01*
X140999934Y-88784917D01*
X140962381Y-88794927D01*
X140909964Y-88806769D01*
X140847652Y-88819267D01*
X140825900Y-88823310D01*
X140721024Y-88842520D01*
X140638180Y-88857991D01*
X140574630Y-88870337D01*
X140527637Y-88880173D01*
X140494463Y-88888114D01*
X140472371Y-88894776D01*
X140458624Y-88900773D01*
X140450484Y-88906719D01*
X140449345Y-88907894D01*
X140437977Y-88926826D01*
X140420635Y-88963669D01*
X140399050Y-89013913D01*
X140374954Y-89073046D01*
X140350079Y-89136556D01*
X140326157Y-89199932D01*
X140304919Y-89258662D01*
X140288097Y-89308235D01*
X140277422Y-89344139D01*
X140274627Y-89361862D01*
X140274860Y-89362483D01*
X140284331Y-89376970D01*
X140305818Y-89408844D01*
X140337063Y-89454789D01*
X140375807Y-89511485D01*
X140419793Y-89575617D01*
X140432319Y-89593842D01*
X140476984Y-89659914D01*
X140516288Y-89720200D01*
X140548088Y-89771235D01*
X140570245Y-89809560D01*
X140580617Y-89831711D01*
X140581119Y-89834432D01*
X140572405Y-89848736D01*
X140548325Y-89877072D01*
X140511976Y-89916396D01*
X140466453Y-89963661D01*
X140414852Y-90015823D01*
X140360267Y-90069835D01*
X140305794Y-90122653D01*
X140254529Y-90171231D01*
X140209567Y-90212523D01*
X140174004Y-90243485D01*
X140150935Y-90261070D01*
X140144554Y-90263941D01*
X140129699Y-90257178D01*
X140099286Y-90238939D01*
X140058268Y-90212297D01*
X140026709Y-90190852D01*
X139969525Y-90151503D01*
X139901806Y-90105171D01*
X139833880Y-90058913D01*
X139797361Y-90034155D01*
X139673752Y-89950547D01*
X139569991Y-90006650D01*
X139522720Y-90031228D01*
X139482523Y-90050331D01*
X139455326Y-90061227D01*
X139448402Y-90062743D01*
X139440077Y-90051549D01*
X139423654Y-90019917D01*
X139400357Y-89970765D01*
X139371414Y-89907010D01*
X139338050Y-89831571D01*
X139301491Y-89747364D01*
X139262964Y-89657308D01*
X139223694Y-89564321D01*
X139184908Y-89471320D01*
X139147830Y-89381223D01*
X139113689Y-89296948D01*
X139083708Y-89221413D01*
X139059116Y-89157534D01*
X139041136Y-89108231D01*
X139030997Y-89076421D01*
X139029366Y-89065496D01*
X139042291Y-89051561D01*
X139070589Y-89028940D01*
X139108346Y-89002333D01*
X139111515Y-89000228D01*
X139209100Y-88922114D01*
X139287786Y-88830982D01*
X139346891Y-88729745D01*
X139385732Y-88621318D01*
X139403628Y-88508614D01*
X139399897Y-88394548D01*
X139373857Y-88282034D01*
X139324825Y-88173985D01*
X139310400Y-88150345D01*
X139235369Y-88054887D01*
X139146730Y-87978232D01*
X139047549Y-87920780D01*
X138940895Y-87882929D01*
X138829836Y-87865078D01*
X138717439Y-87867625D01*
X138606773Y-87890970D01*
X138500906Y-87935510D01*
X138402905Y-88001645D01*
X138372590Y-88028487D01*
X138295438Y-88112512D01*
X138239218Y-88200966D01*
X138200653Y-88300115D01*
X138179174Y-88398303D01*
X138173872Y-88508697D01*
X138191552Y-88619640D01*
X138230419Y-88727381D01*
X138288677Y-88828169D01*
X138364531Y-88918256D01*
X138456183Y-88993892D01*
X138468228Y-89001864D01*
X138506389Y-89027974D01*
X138535399Y-89050595D01*
X138549268Y-89065039D01*
X138549469Y-89065496D01*
X138546492Y-89081121D01*
X138534689Y-89116582D01*
X138515286Y-89168962D01*
X138489512Y-89235345D01*
X138458591Y-89312814D01*
X138423751Y-89398450D01*
X138386217Y-89489337D01*
X138347217Y-89582559D01*
X138307977Y-89675197D01*
X138269724Y-89764335D01*
X138233683Y-89847055D01*
X138201083Y-89920441D01*
X138173148Y-89981575D01*
X138151105Y-90027541D01*
X138136182Y-90055421D01*
X138130172Y-90062743D01*
X138111809Y-90057041D01*
X138077448Y-90041749D01*
X138033016Y-90019599D01*
X138008583Y-90006650D01*
X137904822Y-89950547D01*
X137781213Y-90034155D01*
X137718114Y-90076987D01*
X137649030Y-90124122D01*
X137584293Y-90168503D01*
X137551866Y-90190852D01*
X137506259Y-90221477D01*
X137467640Y-90245747D01*
X137441048Y-90260587D01*
X137432410Y-90263724D01*
X137419839Y-90255261D01*
X137392016Y-90231636D01*
X137351639Y-90195302D01*
X137301405Y-90148711D01*
X137244012Y-90094317D01*
X137207714Y-90059392D01*
X137144210Y-89996996D01*
X137089327Y-89941188D01*
X137045286Y-89894354D01*
X137014305Y-89858882D01*
X136998602Y-89837161D01*
X136997095Y-89832752D01*
X137004086Y-89815985D01*
X137023406Y-89782082D01*
X137052909Y-89734476D01*
X137090455Y-89676599D01*
X137133900Y-89611884D01*
X137146255Y-89593842D01*
X137191273Y-89528267D01*
X137231660Y-89469228D01*
X137265160Y-89420042D01*
X137289514Y-89384028D01*
X137302464Y-89364502D01*
X137303715Y-89362483D01*
X137301844Y-89346922D01*
X137291913Y-89312709D01*
X137275653Y-89264355D01*
X137254795Y-89206371D01*
X137231073Y-89143270D01*
X137206216Y-89079563D01*
X137181958Y-89019761D01*
X137160029Y-88968376D01*
X137142162Y-88929919D01*
X137130087Y-88908902D01*
X137129229Y-88907894D01*
X137121846Y-88901888D01*
X137109375Y-88895948D01*
X137089080Y-88889460D01*
X137058222Y-88881809D01*
X137014066Y-88872380D01*
X136953874Y-88860559D01*
X136874907Y-88845729D01*
X136774430Y-88827277D01*
X136752675Y-88823310D01*
X136688198Y-88810853D01*
X136631989Y-88798666D01*
X136589013Y-88787926D01*
X136564240Y-88779809D01*
X136560918Y-88777916D01*
X136555444Y-88761138D01*
X136550994Y-88723645D01*
X136547572Y-88669794D01*
X136545181Y-88603944D01*
X136543823Y-88530453D01*
X136543501Y-88453680D01*
X136544219Y-88377983D01*
X136545979Y-88307720D01*
X136548784Y-88247250D01*
X136552638Y-88200930D01*
X136557543Y-88173119D01*
X136560500Y-88167427D01*
X136576963Y-88161686D01*
X136614449Y-88152345D01*
X136669225Y-88140215D01*
X136737555Y-88126107D01*
X136815706Y-88110830D01*
X136858284Y-88102823D01*
X136939071Y-88087721D01*
X137011113Y-88074040D01*
X137070889Y-88062467D01*
X137114879Y-88053687D01*
X137139561Y-88048387D01*
X137143623Y-88047212D01*
X137150489Y-88033965D01*
X137165002Y-88002057D01*
X137185229Y-87956047D01*
X137209234Y-87900492D01*
X137235082Y-87839953D01*
X137260840Y-87778986D01*
X137284573Y-87722151D01*
X137304346Y-87674006D01*
X137318224Y-87639110D01*
X137324274Y-87622021D01*
X137324386Y-87621274D01*
X137317528Y-87607793D01*
X137298302Y-87576770D01*
X137268728Y-87531289D01*
X137230827Y-87474432D01*
X137186620Y-87409283D01*
X137160921Y-87371862D01*
X137114093Y-87303247D01*
X137072501Y-87240952D01*
X137038175Y-87188129D01*
X137013143Y-87147927D01*
X136999435Y-87123500D01*
X136997456Y-87118024D01*
X137005966Y-87105278D01*
X137029493Y-87078063D01*
X137065032Y-87039428D01*
X137109577Y-86992423D01*
X137160123Y-86940095D01*
X137213664Y-86885495D01*
X137267195Y-86831670D01*
X137317711Y-86781670D01*
X137362206Y-86738543D01*
X137397675Y-86705339D01*
X137421113Y-86685106D01*
X137428954Y-86680278D01*
X137441720Y-86687067D01*
X137472256Y-86706142D01*
X137517590Y-86735561D01*
X137574756Y-86773381D01*
X137640784Y-86817661D01*
X137690590Y-86851395D01*
X137942236Y-87022512D01*
X138151999Y-86936041D01*
X138361763Y-86849570D01*
X138418611Y-86548018D01*
X138475460Y-86246466D01*
X139103115Y-86246466D01*
X139159964Y-86548018D01*
X139159964Y-86548018D01*
G37*
X139159964Y-86548018D02*
X139216812Y-86849570D01*
X139636338Y-87022512D01*
X139887984Y-86851395D01*
X139958458Y-86803750D01*
X140022163Y-86761210D01*
X140076126Y-86725715D01*
X140117373Y-86699210D01*
X140142934Y-86683636D01*
X140149895Y-86680278D01*
X140162435Y-86688914D01*
X140189231Y-86712792D01*
X140227280Y-86748859D01*
X140273579Y-86794067D01*
X140325123Y-86845364D01*
X140378909Y-86899701D01*
X140431935Y-86954028D01*
X140481195Y-87005295D01*
X140523687Y-87050451D01*
X140556407Y-87086446D01*
X140576351Y-87110230D01*
X140581119Y-87118190D01*
X140574257Y-87132865D01*
X140555020Y-87165014D01*
X140525430Y-87211492D01*
X140487510Y-87269156D01*
X140443282Y-87334860D01*
X140417654Y-87372336D01*
X140370941Y-87440768D01*
X140329432Y-87502520D01*
X140295140Y-87554519D01*
X140270080Y-87593692D01*
X140256264Y-87616965D01*
X140254188Y-87621855D01*
X140258895Y-87635755D01*
X140271723Y-87668150D01*
X140290738Y-87714485D01*
X140314003Y-87770206D01*
X140339584Y-87830758D01*
X140365545Y-87891586D01*
X140389950Y-87948136D01*
X140410863Y-87995852D01*
X140426349Y-88030181D01*
X140434472Y-88046568D01*
X140434952Y-88047212D01*
X140447707Y-88050341D01*
X140481677Y-88057321D01*
X140533340Y-88067467D01*
X140599176Y-88080092D01*
X140675664Y-88094509D01*
X140720290Y-88102823D01*
X140802021Y-88118384D01*
X140875843Y-88133192D01*
X140938021Y-88146436D01*
X140984822Y-88157305D01*
X141012509Y-88164989D01*
X141018074Y-88167427D01*
X141023526Y-88183930D01*
X141027924Y-88221200D01*
X141031272Y-88274880D01*
X141033574Y-88340612D01*
X141034832Y-88414037D01*
X141035048Y-88490796D01*
X141034227Y-88566532D01*
X141032371Y-88636886D01*
X141029482Y-88697500D01*
X141025565Y-88744016D01*
X141020622Y-88772075D01*
X141017657Y-88777916D01*
X140999934Y-88784917D01*
X140962381Y-88794927D01*
X140909964Y-88806769D01*
X140847652Y-88819267D01*
X140825900Y-88823310D01*
X140721024Y-88842520D01*
X140638180Y-88857991D01*
X140574630Y-88870337D01*
X140527637Y-88880173D01*
X140494463Y-88888114D01*
X140472371Y-88894776D01*
X140458624Y-88900773D01*
X140450484Y-88906719D01*
X140449345Y-88907894D01*
X140437977Y-88926826D01*
X140420635Y-88963669D01*
X140399050Y-89013913D01*
X140374954Y-89073046D01*
X140350079Y-89136556D01*
X140326157Y-89199932D01*
X140304919Y-89258662D01*
X140288097Y-89308235D01*
X140277422Y-89344139D01*
X140274627Y-89361862D01*
X140274860Y-89362483D01*
X140284331Y-89376970D01*
X140305818Y-89408844D01*
X140337063Y-89454789D01*
X140375807Y-89511485D01*
X140419793Y-89575617D01*
X140432319Y-89593842D01*
X140476984Y-89659914D01*
X140516288Y-89720200D01*
X140548088Y-89771235D01*
X140570245Y-89809560D01*
X140580617Y-89831711D01*
X140581119Y-89834432D01*
X140572405Y-89848736D01*
X140548325Y-89877072D01*
X140511976Y-89916396D01*
X140466453Y-89963661D01*
X140414852Y-90015823D01*
X140360267Y-90069835D01*
X140305794Y-90122653D01*
X140254529Y-90171231D01*
X140209567Y-90212523D01*
X140174004Y-90243485D01*
X140150935Y-90261070D01*
X140144554Y-90263941D01*
X140129699Y-90257178D01*
X140099286Y-90238939D01*
X140058268Y-90212297D01*
X140026709Y-90190852D01*
X139969525Y-90151503D01*
X139901806Y-90105171D01*
X139833880Y-90058913D01*
X139797361Y-90034155D01*
X139673752Y-89950547D01*
X139569991Y-90006650D01*
X139522720Y-90031228D01*
X139482523Y-90050331D01*
X139455326Y-90061227D01*
X139448402Y-90062743D01*
X139440077Y-90051549D01*
X139423654Y-90019917D01*
X139400357Y-89970765D01*
X139371414Y-89907010D01*
X139338050Y-89831571D01*
X139301491Y-89747364D01*
X139262964Y-89657308D01*
X139223694Y-89564321D01*
X139184908Y-89471320D01*
X139147830Y-89381223D01*
X139113689Y-89296948D01*
X139083708Y-89221413D01*
X139059116Y-89157534D01*
X139041136Y-89108231D01*
X139030997Y-89076421D01*
X139029366Y-89065496D01*
X139042291Y-89051561D01*
X139070589Y-89028940D01*
X139108346Y-89002333D01*
X139111515Y-89000228D01*
X139209100Y-88922114D01*
X139287786Y-88830982D01*
X139346891Y-88729745D01*
X139385732Y-88621318D01*
X139403628Y-88508614D01*
X139399897Y-88394548D01*
X139373857Y-88282034D01*
X139324825Y-88173985D01*
X139310400Y-88150345D01*
X139235369Y-88054887D01*
X139146730Y-87978232D01*
X139047549Y-87920780D01*
X138940895Y-87882929D01*
X138829836Y-87865078D01*
X138717439Y-87867625D01*
X138606773Y-87890970D01*
X138500906Y-87935510D01*
X138402905Y-88001645D01*
X138372590Y-88028487D01*
X138295438Y-88112512D01*
X138239218Y-88200966D01*
X138200653Y-88300115D01*
X138179174Y-88398303D01*
X138173872Y-88508697D01*
X138191552Y-88619640D01*
X138230419Y-88727381D01*
X138288677Y-88828169D01*
X138364531Y-88918256D01*
X138456183Y-88993892D01*
X138468228Y-89001864D01*
X138506389Y-89027974D01*
X138535399Y-89050595D01*
X138549268Y-89065039D01*
X138549469Y-89065496D01*
X138546492Y-89081121D01*
X138534689Y-89116582D01*
X138515286Y-89168962D01*
X138489512Y-89235345D01*
X138458591Y-89312814D01*
X138423751Y-89398450D01*
X138386217Y-89489337D01*
X138347217Y-89582559D01*
X138307977Y-89675197D01*
X138269724Y-89764335D01*
X138233683Y-89847055D01*
X138201083Y-89920441D01*
X138173148Y-89981575D01*
X138151105Y-90027541D01*
X138136182Y-90055421D01*
X138130172Y-90062743D01*
X138111809Y-90057041D01*
X138077448Y-90041749D01*
X138033016Y-90019599D01*
X138008583Y-90006650D01*
X137904822Y-89950547D01*
X137781213Y-90034155D01*
X137718114Y-90076987D01*
X137649030Y-90124122D01*
X137584293Y-90168503D01*
X137551866Y-90190852D01*
X137506259Y-90221477D01*
X137467640Y-90245747D01*
X137441048Y-90260587D01*
X137432410Y-90263724D01*
X137419839Y-90255261D01*
X137392016Y-90231636D01*
X137351639Y-90195302D01*
X137301405Y-90148711D01*
X137244012Y-90094317D01*
X137207714Y-90059392D01*
X137144210Y-89996996D01*
X137089327Y-89941188D01*
X137045286Y-89894354D01*
X137014305Y-89858882D01*
X136998602Y-89837161D01*
X136997095Y-89832752D01*
X137004086Y-89815985D01*
X137023406Y-89782082D01*
X137052909Y-89734476D01*
X137090455Y-89676599D01*
X137133900Y-89611884D01*
X137146255Y-89593842D01*
X137191273Y-89528267D01*
X137231660Y-89469228D01*
X137265160Y-89420042D01*
X137289514Y-89384028D01*
X137302464Y-89364502D01*
X137303715Y-89362483D01*
X137301844Y-89346922D01*
X137291913Y-89312709D01*
X137275653Y-89264355D01*
X137254795Y-89206371D01*
X137231073Y-89143270D01*
X137206216Y-89079563D01*
X137181958Y-89019761D01*
X137160029Y-88968376D01*
X137142162Y-88929919D01*
X137130087Y-88908902D01*
X137129229Y-88907894D01*
X137121846Y-88901888D01*
X137109375Y-88895948D01*
X137089080Y-88889460D01*
X137058222Y-88881809D01*
X137014066Y-88872380D01*
X136953874Y-88860559D01*
X136874907Y-88845729D01*
X136774430Y-88827277D01*
X136752675Y-88823310D01*
X136688198Y-88810853D01*
X136631989Y-88798666D01*
X136589013Y-88787926D01*
X136564240Y-88779809D01*
X136560918Y-88777916D01*
X136555444Y-88761138D01*
X136550994Y-88723645D01*
X136547572Y-88669794D01*
X136545181Y-88603944D01*
X136543823Y-88530453D01*
X136543501Y-88453680D01*
X136544219Y-88377983D01*
X136545979Y-88307720D01*
X136548784Y-88247250D01*
X136552638Y-88200930D01*
X136557543Y-88173119D01*
X136560500Y-88167427D01*
X136576963Y-88161686D01*
X136614449Y-88152345D01*
X136669225Y-88140215D01*
X136737555Y-88126107D01*
X136815706Y-88110830D01*
X136858284Y-88102823D01*
X136939071Y-88087721D01*
X137011113Y-88074040D01*
X137070889Y-88062467D01*
X137114879Y-88053687D01*
X137139561Y-88048387D01*
X137143623Y-88047212D01*
X137150489Y-88033965D01*
X137165002Y-88002057D01*
X137185229Y-87956047D01*
X137209234Y-87900492D01*
X137235082Y-87839953D01*
X137260840Y-87778986D01*
X137284573Y-87722151D01*
X137304346Y-87674006D01*
X137318224Y-87639110D01*
X137324274Y-87622021D01*
X137324386Y-87621274D01*
X137317528Y-87607793D01*
X137298302Y-87576770D01*
X137268728Y-87531289D01*
X137230827Y-87474432D01*
X137186620Y-87409283D01*
X137160921Y-87371862D01*
X137114093Y-87303247D01*
X137072501Y-87240952D01*
X137038175Y-87188129D01*
X137013143Y-87147927D01*
X136999435Y-87123500D01*
X136997456Y-87118024D01*
X137005966Y-87105278D01*
X137029493Y-87078063D01*
X137065032Y-87039428D01*
X137109577Y-86992423D01*
X137160123Y-86940095D01*
X137213664Y-86885495D01*
X137267195Y-86831670D01*
X137317711Y-86781670D01*
X137362206Y-86738543D01*
X137397675Y-86705339D01*
X137421113Y-86685106D01*
X137428954Y-86680278D01*
X137441720Y-86687067D01*
X137472256Y-86706142D01*
X137517590Y-86735561D01*
X137574756Y-86773381D01*
X137640784Y-86817661D01*
X137690590Y-86851395D01*
X137942236Y-87022512D01*
X138151999Y-86936041D01*
X138361763Y-86849570D01*
X138418611Y-86548018D01*
X138475460Y-86246466D01*
X139103115Y-86246466D01*
X139159964Y-86548018D01*
D12*
X145833000Y-83183000D02*
X146833000Y-83183000D01*
X146833000Y-84533000D02*
X145833000Y-84533000D01*
X160133000Y-53933000D02*
X159133000Y-53933000D01*
X159133000Y-52583000D02*
X160133000Y-52583000D01*
X161293000Y-48388000D02*
X161293000Y-53468000D01*
X191773000Y-48388000D02*
X191773000Y-53468000D01*
X161293000Y-53468000D02*
X191773000Y-53468000D01*
X161293000Y-48388000D02*
X191773000Y-48388000D01*
X191029051Y-50928000D02*
G75*
G03X191029051Y-50928000I-1796051J0D01*
G01*
X165629051Y-50928000D02*
G75*
G03X165629051Y-50928000I-1796051J0D01*
G01*
X146833000Y-81333000D02*
X145833000Y-81333000D01*
X145833000Y-79983000D02*
X146833000Y-79983000D01*
X100008000Y-84933000D02*
X99008000Y-84933000D01*
X99008000Y-83583000D02*
X100008000Y-83583000D01*
X112948564Y-89208000D02*
G75*
G03X112948564Y-89208000I-2015564J0D01*
G01*
X113183000Y-85958000D02*
X108683000Y-85958000D01*
X114433000Y-89958000D02*
X114433000Y-88458000D01*
X108683000Y-92458000D02*
X113183000Y-92458000D01*
X107433000Y-88458000D02*
X107433000Y-89958000D01*
D17*
X190880500Y-69658760D02*
X162081980Y-69658760D01*
X162081980Y-69658760D02*
X162081980Y-89656180D01*
X162081980Y-98307420D02*
X190880500Y-98307420D01*
X162081980Y-92155540D02*
X162081980Y-98307420D01*
X190880500Y-88406500D02*
X190880500Y-69658760D01*
X190880500Y-98307420D02*
X190880500Y-90905860D01*
D12*
X96335381Y-92669905D02*
X95335381Y-92669905D01*
X96335381Y-92098476D02*
X95763952Y-92527048D01*
X95335381Y-92098476D02*
X95906810Y-92669905D01*
D10*
X108411572Y-56219905D02*
X107954429Y-56219905D01*
X108183000Y-56219905D02*
X108183000Y-55419905D01*
X108106810Y-55534190D01*
X108030619Y-55610381D01*
X107954429Y-55648476D01*
X108906810Y-55419905D02*
X108983001Y-55419905D01*
X109059191Y-55458000D01*
X109097286Y-55496095D01*
X109135382Y-55572286D01*
X109173477Y-55724667D01*
X109173477Y-55915143D01*
X109135382Y-56067524D01*
X109097286Y-56143714D01*
X109059191Y-56181810D01*
X108983001Y-56219905D01*
X108906810Y-56219905D01*
X108830620Y-56181810D01*
X108792524Y-56143714D01*
X108754429Y-56067524D01*
X108716334Y-55915143D01*
X108716334Y-55724667D01*
X108754429Y-55572286D01*
X108792524Y-55496095D01*
X108830620Y-55458000D01*
X108906810Y-55419905D01*
X109516334Y-55686571D02*
X109516334Y-56486571D01*
X109897287Y-56105619D02*
X109935382Y-56181810D01*
X110011572Y-56219905D01*
X109516334Y-56105619D02*
X109554429Y-56181810D01*
X109630620Y-56219905D01*
X109783001Y-56219905D01*
X109859191Y-56181810D01*
X109897287Y-56105619D01*
X109897287Y-55686571D01*
X145354429Y-84919905D02*
X145849667Y-84919905D01*
X145583000Y-85224667D01*
X145697286Y-85224667D01*
X145773476Y-85262762D01*
X145811572Y-85300857D01*
X145849667Y-85377048D01*
X145849667Y-85567524D01*
X145811572Y-85643714D01*
X145773476Y-85681810D01*
X145697286Y-85719905D01*
X145468714Y-85719905D01*
X145392524Y-85681810D01*
X145354429Y-85643714D01*
X146116334Y-84919905D02*
X146611572Y-84919905D01*
X146344905Y-85224667D01*
X146459191Y-85224667D01*
X146535381Y-85262762D01*
X146573477Y-85300857D01*
X146611572Y-85377048D01*
X146611572Y-85567524D01*
X146573477Y-85643714D01*
X146535381Y-85681810D01*
X146459191Y-85719905D01*
X146230619Y-85719905D01*
X146154429Y-85681810D01*
X146116334Y-85643714D01*
X147106810Y-84919905D02*
X147183001Y-84919905D01*
X147259191Y-84958000D01*
X147297286Y-84996095D01*
X147335382Y-85072286D01*
X147373477Y-85224667D01*
X147373477Y-85415143D01*
X147335382Y-85567524D01*
X147297286Y-85643714D01*
X147259191Y-85681810D01*
X147183001Y-85719905D01*
X147106810Y-85719905D01*
X147030620Y-85681810D01*
X146992524Y-85643714D01*
X146954429Y-85567524D01*
X146916334Y-85415143D01*
X146916334Y-85224667D01*
X146954429Y-85072286D01*
X146992524Y-84996095D01*
X147030620Y-84958000D01*
X147106810Y-84919905D01*
X159206810Y-52219905D02*
X158749667Y-52219905D01*
X158978238Y-52219905D02*
X158978238Y-51419905D01*
X158902048Y-51534190D01*
X158825857Y-51610381D01*
X158749667Y-51648476D01*
X159702048Y-51419905D02*
X159778239Y-51419905D01*
X159854429Y-51458000D01*
X159892524Y-51496095D01*
X159930620Y-51572286D01*
X159968715Y-51724667D01*
X159968715Y-51915143D01*
X159930620Y-52067524D01*
X159892524Y-52143714D01*
X159854429Y-52181810D01*
X159778239Y-52219905D01*
X159702048Y-52219905D01*
X159625858Y-52181810D01*
X159587762Y-52143714D01*
X159549667Y-52067524D01*
X159511572Y-51915143D01*
X159511572Y-51724667D01*
X159549667Y-51572286D01*
X159587762Y-51496095D01*
X159625858Y-51458000D01*
X159702048Y-51419905D01*
X160311572Y-52219905D02*
X160311572Y-51419905D01*
X160387763Y-51915143D02*
X160616334Y-52219905D01*
X160616334Y-51686571D02*
X160311572Y-51991333D01*
D12*
X183345381Y-57359428D02*
X182345381Y-57359428D01*
X183059667Y-57026094D01*
X182345381Y-56692761D01*
X183345381Y-56692761D01*
X183345381Y-56216571D02*
X182345381Y-56216571D01*
X183297762Y-55788000D02*
X183345381Y-55645143D01*
X183345381Y-55407047D01*
X183297762Y-55311809D01*
X183250143Y-55264190D01*
X183154905Y-55216571D01*
X183059667Y-55216571D01*
X182964429Y-55264190D01*
X182916810Y-55311809D01*
X182869190Y-55407047D01*
X182821571Y-55597524D01*
X182773952Y-55692762D01*
X182726333Y-55740381D01*
X182631095Y-55788000D01*
X182535857Y-55788000D01*
X182440619Y-55740381D01*
X182393000Y-55692762D01*
X182345381Y-55597524D01*
X182345381Y-55359428D01*
X182393000Y-55216571D01*
X182345381Y-54597524D02*
X182345381Y-54407047D01*
X182393000Y-54311809D01*
X182488238Y-54216571D01*
X182678714Y-54168952D01*
X183012048Y-54168952D01*
X183202524Y-54216571D01*
X183297762Y-54311809D01*
X183345381Y-54407047D01*
X183345381Y-54597524D01*
X183297762Y-54692762D01*
X183202524Y-54788000D01*
X183012048Y-54835619D01*
X182678714Y-54835619D01*
X182488238Y-54788000D01*
X182393000Y-54692762D01*
X182345381Y-54597524D01*
X180897762Y-56873714D02*
X180945381Y-56730857D01*
X180945381Y-56492761D01*
X180897762Y-56397523D01*
X180850143Y-56349904D01*
X180754905Y-56302285D01*
X180659667Y-56302285D01*
X180564429Y-56349904D01*
X180516810Y-56397523D01*
X180469190Y-56492761D01*
X180421571Y-56683238D01*
X180373952Y-56778476D01*
X180326333Y-56826095D01*
X180231095Y-56873714D01*
X180135857Y-56873714D01*
X180040619Y-56826095D01*
X179993000Y-56778476D01*
X179945381Y-56683238D01*
X179945381Y-56445142D01*
X179993000Y-56302285D01*
X180850143Y-55302285D02*
X180897762Y-55349904D01*
X180945381Y-55492761D01*
X180945381Y-55587999D01*
X180897762Y-55730857D01*
X180802524Y-55826095D01*
X180707286Y-55873714D01*
X180516810Y-55921333D01*
X180373952Y-55921333D01*
X180183476Y-55873714D01*
X180088238Y-55826095D01*
X179993000Y-55730857D01*
X179945381Y-55587999D01*
X179945381Y-55492761D01*
X179993000Y-55349904D01*
X180040619Y-55302285D01*
X180945381Y-54873714D02*
X179945381Y-54873714D01*
X180945381Y-54302285D02*
X180373952Y-54730857D01*
X179945381Y-54302285D02*
X180516810Y-54873714D01*
X178345381Y-57359428D02*
X177345381Y-57359428D01*
X178059667Y-57026094D01*
X177345381Y-56692761D01*
X178345381Y-56692761D01*
X177345381Y-56026095D02*
X177345381Y-55835618D01*
X177393000Y-55740380D01*
X177488238Y-55645142D01*
X177678714Y-55597523D01*
X178012048Y-55597523D01*
X178202524Y-55645142D01*
X178297762Y-55740380D01*
X178345381Y-55835618D01*
X178345381Y-56026095D01*
X178297762Y-56121333D01*
X178202524Y-56216571D01*
X178012048Y-56264190D01*
X177678714Y-56264190D01*
X177488238Y-56216571D01*
X177393000Y-56121333D01*
X177345381Y-56026095D01*
X178297762Y-55216571D02*
X178345381Y-55073714D01*
X178345381Y-54835618D01*
X178297762Y-54740380D01*
X178250143Y-54692761D01*
X178154905Y-54645142D01*
X178059667Y-54645142D01*
X177964429Y-54692761D01*
X177916810Y-54740380D01*
X177869190Y-54835618D01*
X177821571Y-55026095D01*
X177773952Y-55121333D01*
X177726333Y-55168952D01*
X177631095Y-55216571D01*
X177535857Y-55216571D01*
X177440619Y-55168952D01*
X177393000Y-55121333D01*
X177345381Y-55026095D01*
X177345381Y-54787999D01*
X177393000Y-54645142D01*
X178345381Y-54216571D02*
X177345381Y-54216571D01*
X175650143Y-55154666D02*
X175697762Y-55202285D01*
X175745381Y-55345142D01*
X175745381Y-55440380D01*
X175697762Y-55583238D01*
X175602524Y-55678476D01*
X175507286Y-55726095D01*
X175316810Y-55773714D01*
X175173952Y-55773714D01*
X174983476Y-55726095D01*
X174888238Y-55678476D01*
X174793000Y-55583238D01*
X174745381Y-55440380D01*
X174745381Y-55345142D01*
X174793000Y-55202285D01*
X174840619Y-55154666D01*
X175697762Y-54773714D02*
X175745381Y-54630857D01*
X175745381Y-54392761D01*
X175697762Y-54297523D01*
X175650143Y-54249904D01*
X175554905Y-54202285D01*
X175459667Y-54202285D01*
X175364429Y-54249904D01*
X175316810Y-54297523D01*
X175269190Y-54392761D01*
X175221571Y-54583238D01*
X175173952Y-54678476D01*
X175126333Y-54726095D01*
X175031095Y-54773714D01*
X174935857Y-54773714D01*
X174840619Y-54726095D01*
X174793000Y-54678476D01*
X174745381Y-54583238D01*
X174745381Y-54345142D01*
X174793000Y-54202285D01*
X172345381Y-55178476D02*
X172345381Y-55654667D01*
X172821571Y-55702286D01*
X172773952Y-55654667D01*
X172726333Y-55559429D01*
X172726333Y-55321333D01*
X172773952Y-55226095D01*
X172821571Y-55178476D01*
X172916810Y-55130857D01*
X173154905Y-55130857D01*
X173250143Y-55178476D01*
X173297762Y-55226095D01*
X173345381Y-55321333D01*
X173345381Y-55559429D01*
X173297762Y-55654667D01*
X173250143Y-55702286D01*
X172345381Y-54845143D02*
X173345381Y-54511810D01*
X172345381Y-54178476D01*
X184993000Y-56349904D02*
X184945381Y-56445142D01*
X184945381Y-56587999D01*
X184993000Y-56730857D01*
X185088238Y-56826095D01*
X185183476Y-56873714D01*
X185373952Y-56921333D01*
X185516810Y-56921333D01*
X185707286Y-56873714D01*
X185802524Y-56826095D01*
X185897762Y-56730857D01*
X185945381Y-56587999D01*
X185945381Y-56492761D01*
X185897762Y-56349904D01*
X185850143Y-56302285D01*
X185516810Y-56302285D01*
X185516810Y-56492761D01*
X185945381Y-55873714D02*
X184945381Y-55873714D01*
X185945381Y-55302285D01*
X184945381Y-55302285D01*
X185945381Y-54826095D02*
X184945381Y-54826095D01*
X184945381Y-54588000D01*
X184993000Y-54445142D01*
X185088238Y-54349904D01*
X185183476Y-54302285D01*
X185373952Y-54254666D01*
X185516810Y-54254666D01*
X185707286Y-54302285D01*
X185802524Y-54349904D01*
X185897762Y-54445142D01*
X185945381Y-54588000D01*
X185945381Y-54826095D01*
X167193000Y-56349904D02*
X167145381Y-56445142D01*
X167145381Y-56587999D01*
X167193000Y-56730857D01*
X167288238Y-56826095D01*
X167383476Y-56873714D01*
X167573952Y-56921333D01*
X167716810Y-56921333D01*
X167907286Y-56873714D01*
X168002524Y-56826095D01*
X168097762Y-56730857D01*
X168145381Y-56587999D01*
X168145381Y-56492761D01*
X168097762Y-56349904D01*
X168050143Y-56302285D01*
X167716810Y-56302285D01*
X167716810Y-56492761D01*
X168145381Y-55873714D02*
X167145381Y-55873714D01*
X168145381Y-55302285D01*
X167145381Y-55302285D01*
X168145381Y-54826095D02*
X167145381Y-54826095D01*
X167145381Y-54588000D01*
X167193000Y-54445142D01*
X167288238Y-54349904D01*
X167383476Y-54302285D01*
X167573952Y-54254666D01*
X167716810Y-54254666D01*
X167907286Y-54302285D01*
X168002524Y-54349904D01*
X168097762Y-54445142D01*
X168145381Y-54588000D01*
X168145381Y-54826095D01*
X169745381Y-56626095D02*
X169745381Y-56007047D01*
X170126333Y-56340381D01*
X170126333Y-56197523D01*
X170173952Y-56102285D01*
X170221571Y-56054666D01*
X170316810Y-56007047D01*
X170554905Y-56007047D01*
X170650143Y-56054666D01*
X170697762Y-56102285D01*
X170745381Y-56197523D01*
X170745381Y-56483238D01*
X170697762Y-56578476D01*
X170650143Y-56626095D01*
X169745381Y-55721333D02*
X170745381Y-55388000D01*
X169745381Y-55054666D01*
X169745381Y-54816571D02*
X169745381Y-54197523D01*
X170126333Y-54530857D01*
X170126333Y-54387999D01*
X170173952Y-54292761D01*
X170221571Y-54245142D01*
X170316810Y-54197523D01*
X170554905Y-54197523D01*
X170650143Y-54245142D01*
X170697762Y-54292761D01*
X170745381Y-54387999D01*
X170745381Y-54673714D01*
X170697762Y-54768952D01*
X170650143Y-54816571D01*
D10*
X145886810Y-79619905D02*
X145429667Y-79619905D01*
X145658238Y-79619905D02*
X145658238Y-78819905D01*
X145582048Y-78934190D01*
X145505857Y-79010381D01*
X145429667Y-79048476D01*
X146382048Y-78819905D02*
X146458239Y-78819905D01*
X146534429Y-78858000D01*
X146572524Y-78896095D01*
X146610620Y-78972286D01*
X146648715Y-79124667D01*
X146648715Y-79315143D01*
X146610620Y-79467524D01*
X146572524Y-79543714D01*
X146534429Y-79581810D01*
X146458239Y-79619905D01*
X146382048Y-79619905D01*
X146305858Y-79581810D01*
X146267762Y-79543714D01*
X146229667Y-79467524D01*
X146191572Y-79315143D01*
X146191572Y-79124667D01*
X146229667Y-78972286D01*
X146267762Y-78896095D01*
X146305858Y-78858000D01*
X146382048Y-78819905D01*
X146991572Y-79619905D02*
X146991572Y-78819905D01*
X147067763Y-79315143D02*
X147296334Y-79619905D01*
X147296334Y-79086571D02*
X146991572Y-79391333D01*
X98554429Y-82519905D02*
X99049667Y-82519905D01*
X98783000Y-82824667D01*
X98897286Y-82824667D01*
X98973476Y-82862762D01*
X99011572Y-82900857D01*
X99049667Y-82977048D01*
X99049667Y-83167524D01*
X99011572Y-83243714D01*
X98973476Y-83281810D01*
X98897286Y-83319905D01*
X98668714Y-83319905D01*
X98592524Y-83281810D01*
X98554429Y-83243714D01*
X99316334Y-82519905D02*
X99811572Y-82519905D01*
X99544905Y-82824667D01*
X99659191Y-82824667D01*
X99735381Y-82862762D01*
X99773477Y-82900857D01*
X99811572Y-82977048D01*
X99811572Y-83167524D01*
X99773477Y-83243714D01*
X99735381Y-83281810D01*
X99659191Y-83319905D01*
X99430619Y-83319905D01*
X99354429Y-83281810D01*
X99316334Y-83243714D01*
X100306810Y-82519905D02*
X100383001Y-82519905D01*
X100459191Y-82558000D01*
X100497286Y-82596095D01*
X100535382Y-82672286D01*
X100573477Y-82824667D01*
X100573477Y-83015143D01*
X100535382Y-83167524D01*
X100497286Y-83243714D01*
X100459191Y-83281810D01*
X100383001Y-83319905D01*
X100306810Y-83319905D01*
X100230620Y-83281810D01*
X100192524Y-83243714D01*
X100154429Y-83167524D01*
X100116334Y-83015143D01*
X100116334Y-82824667D01*
X100154429Y-82672286D01*
X100192524Y-82596095D01*
X100230620Y-82558000D01*
X100306810Y-82519905D01*
M02*
