G04 #@! TF.GenerationSoftware,KiCad,Pcbnew,5.1.5+dfsg1-2build2*
G04 #@! TF.CreationDate,2021-05-15T16:51:55+02:00*
G04 #@! TF.ProjectId,fg99,66673939-2e6b-4696-9361-645f70636258,1*
G04 #@! TF.SameCoordinates,Original*
G04 #@! TF.FileFunction,Paste,Top*
G04 #@! TF.FilePolarity,Positive*
%FSLAX46Y46*%
G04 Gerber Fmt 4.6, Leading zero omitted, Abs format (unit mm)*
G04 Created by KiCad (PCBNEW 5.1.5+dfsg1-2build2) date 2021-05-15 16:51:55*
%MOMM*%
%LPD*%
G04 APERTURE LIST*
%ADD10R,0.288000X1.488000*%
%ADD11R,1.488000X0.288000*%
%ADD12R,1.788000X1.218000*%
%ADD13R,2.020000X3.645600*%
%ADD14R,2.020000X1.004000*%
%ADD15R,0.465000X1.505400*%
%ADD16R,0.538000X1.588000*%
%ADD17R,1.588000X0.538000*%
%ADD18R,0.788000X0.738000*%
%ADD19R,0.738000X0.788000*%
%ADD20R,0.738000X0.888000*%
G04 APERTURE END LIST*
D10*
X136083000Y-58458000D03*
X135583000Y-58458000D03*
X135083000Y-58458000D03*
X134583000Y-58458000D03*
X134083000Y-58458000D03*
X133583000Y-58458000D03*
X133083000Y-58458000D03*
X132583000Y-58458000D03*
X132083000Y-58458000D03*
X131583000Y-58458000D03*
X131083000Y-58458000D03*
X130583000Y-58458000D03*
X130083000Y-58458000D03*
X129583000Y-58458000D03*
X129083000Y-58458000D03*
X128583000Y-58458000D03*
X128083000Y-58458000D03*
X127583000Y-58458000D03*
X127083000Y-58458000D03*
X126583000Y-58458000D03*
X126083000Y-58458000D03*
X125583000Y-58458000D03*
X125083000Y-58458000D03*
X124583000Y-58458000D03*
X124083000Y-58458000D03*
D11*
X122383000Y-60158000D03*
X122383000Y-60658000D03*
X122383000Y-61158000D03*
X122383000Y-61658000D03*
X122383000Y-62158000D03*
X122383000Y-62658000D03*
X122383000Y-63158000D03*
X122383000Y-63658000D03*
X122383000Y-64158000D03*
X122383000Y-64658000D03*
X122383000Y-65158000D03*
X122383000Y-65658000D03*
X122383000Y-66158000D03*
X122383000Y-66658000D03*
X122383000Y-67158000D03*
X122383000Y-67658000D03*
X122383000Y-68158000D03*
X122383000Y-68658000D03*
X122383000Y-69158000D03*
X122383000Y-69658000D03*
X122383000Y-70158000D03*
X122383000Y-70658000D03*
X122383000Y-71158000D03*
X122383000Y-71658000D03*
X122383000Y-72158000D03*
D10*
X124083000Y-73858000D03*
X124583000Y-73858000D03*
X125083000Y-73858000D03*
X125583000Y-73858000D03*
X126083000Y-73858000D03*
X126583000Y-73858000D03*
X127083000Y-73858000D03*
X127583000Y-73858000D03*
X128083000Y-73858000D03*
X128583000Y-73858000D03*
X129083000Y-73858000D03*
X129583000Y-73858000D03*
X130083000Y-73858000D03*
X130583000Y-73858000D03*
X131083000Y-73858000D03*
X131583000Y-73858000D03*
X132083000Y-73858000D03*
X132583000Y-73858000D03*
X133083000Y-73858000D03*
X133583000Y-73858000D03*
X134083000Y-73858000D03*
X134583000Y-73858000D03*
X135083000Y-73858000D03*
X135583000Y-73858000D03*
X136083000Y-73858000D03*
D11*
X137783000Y-72158000D03*
X137783000Y-71658000D03*
X137783000Y-71158000D03*
X137783000Y-70658000D03*
X137783000Y-70158000D03*
X137783000Y-69658000D03*
X137783000Y-69158000D03*
X137783000Y-68658000D03*
X137783000Y-68158000D03*
X137783000Y-67658000D03*
X137783000Y-67158000D03*
X137783000Y-66658000D03*
X137783000Y-66158000D03*
X137783000Y-65658000D03*
X137783000Y-65158000D03*
X137783000Y-64658000D03*
X137783000Y-64158000D03*
X137783000Y-63658000D03*
X137783000Y-63158000D03*
X137783000Y-62658000D03*
X137783000Y-62158000D03*
X137783000Y-61658000D03*
X137783000Y-61158000D03*
X137783000Y-60658000D03*
X137783000Y-60158000D03*
D12*
X107383000Y-51258000D03*
X110003000Y-51258000D03*
X107363000Y-54058000D03*
X109983000Y-54058000D03*
D13*
X97379000Y-53858000D03*
D14*
X103983000Y-53858000D03*
X103983000Y-51572000D03*
X103983000Y-56144000D03*
D15*
X97383000Y-78268800D03*
X98183000Y-78268800D03*
X98983000Y-78268800D03*
X99783000Y-78268800D03*
X100583000Y-78268800D03*
X101383000Y-78268800D03*
X102183000Y-78268800D03*
X102983000Y-78268800D03*
X103783000Y-78268800D03*
X104583000Y-78268800D03*
X105383000Y-78268800D03*
X106183000Y-78268800D03*
X106983000Y-78268800D03*
X107783000Y-78268800D03*
X108583000Y-78268800D03*
X109383000Y-78268800D03*
X110183000Y-78268800D03*
X110983000Y-78268800D03*
X111783000Y-78268800D03*
X112583000Y-78268800D03*
X113383000Y-78268800D03*
X114183000Y-78268800D03*
X97383000Y-66858000D03*
X98183000Y-66858000D03*
X98983000Y-66858000D03*
X99783000Y-66858000D03*
X100583000Y-66858000D03*
X101383000Y-66858000D03*
X102183000Y-66858000D03*
X102983000Y-66858000D03*
X103783000Y-66858000D03*
X104583000Y-66858000D03*
X105383000Y-66858000D03*
X106183000Y-66858000D03*
X106983000Y-66858000D03*
X107783000Y-66858000D03*
X108583000Y-66858000D03*
X109383000Y-66858000D03*
X110183000Y-66858000D03*
X110983000Y-66858000D03*
X111783000Y-66858000D03*
X112583000Y-66858000D03*
X113383000Y-66858000D03*
X114183000Y-66858000D03*
D16*
X151983000Y-70708000D03*
X152783000Y-70708000D03*
X153583000Y-70708000D03*
X154383000Y-70708000D03*
X155183000Y-70708000D03*
X155983000Y-70708000D03*
X156783000Y-70708000D03*
X157583000Y-70708000D03*
D17*
X159033000Y-69258000D03*
X159033000Y-68458000D03*
X159033000Y-67658000D03*
X159033000Y-66858000D03*
X159033000Y-66058000D03*
X159033000Y-65258000D03*
X159033000Y-64458000D03*
X159033000Y-63658000D03*
D16*
X157583000Y-62208000D03*
X156783000Y-62208000D03*
X155983000Y-62208000D03*
X155183000Y-62208000D03*
X154383000Y-62208000D03*
X153583000Y-62208000D03*
X152783000Y-62208000D03*
X151983000Y-62208000D03*
D17*
X150533000Y-63658000D03*
X150533000Y-64458000D03*
X150533000Y-65258000D03*
X150533000Y-66058000D03*
X150533000Y-66858000D03*
X150533000Y-67658000D03*
X150533000Y-68458000D03*
X150533000Y-69258000D03*
D18*
X106583000Y-62858000D03*
X105083000Y-62858000D03*
X105483000Y-81658000D03*
X106983000Y-81658000D03*
X153483000Y-73858000D03*
X151983000Y-73858000D03*
X155633000Y-73858000D03*
X157133000Y-73858000D03*
X156783000Y-57858000D03*
X158283000Y-57858000D03*
X135883000Y-54658000D03*
X137383000Y-54658000D03*
D19*
X118383000Y-59658000D03*
X118383000Y-58158000D03*
D18*
X142083000Y-60658000D03*
X143583000Y-60658000D03*
X118783000Y-66858000D03*
X117283000Y-66858000D03*
X120583000Y-75058000D03*
X119083000Y-75058000D03*
X126883000Y-77058000D03*
X128383000Y-77058000D03*
X142783000Y-66258000D03*
X144283000Y-66258000D03*
D20*
X147008000Y-83858000D03*
X145658000Y-83858000D03*
X158958000Y-53258000D03*
X160308000Y-53258000D03*
X145658000Y-80658000D03*
X147008000Y-80658000D03*
X98833000Y-84258000D03*
X100183000Y-84258000D03*
M02*
