G04 #@! TF.GenerationSoftware,KiCad,Pcbnew,5.1.5+dfsg1-2build2*
G04 #@! TF.CreationDate,2021-05-15T16:51:55+02:00*
G04 #@! TF.ProjectId,fg99,66673939-2e6b-4696-9361-645f70636258,1*
G04 #@! TF.SameCoordinates,Original*
G04 #@! TF.FileFunction,Copper,L2,Bot*
G04 #@! TF.FilePolarity,Positive*
%FSLAX46Y46*%
G04 Gerber Fmt 4.6, Leading zero omitted, Abs format (unit mm)*
G04 Created by KiCad (PCBNEW 5.1.5+dfsg1-2build2) date 2021-05-15 16:51:55*
%MOMM*%
%LPD*%
G04 APERTURE LIST*
%ADD10R,1.727200X1.727200*%
%ADD11O,1.727200X1.727200*%
%ADD12C,5.300000*%
%ADD13R,1.778000X15.000000*%
%ADD14C,2.000000*%
%ADD15R,2.000000X1.900000*%
%ADD16C,1.900000*%
%ADD17C,1.778000*%
%ADD18R,1.778000X1.778000*%
%ADD19C,0.600000*%
%ADD20C,0.600000*%
%ADD21C,0.500000*%
%ADD22C,0.200000*%
%ADD23C,0.300000*%
%ADD24C,0.254000*%
G04 APERTURE END LIST*
D10*
X155783000Y-88738000D03*
D11*
X153243000Y-88738000D03*
X155783000Y-86198000D03*
X153243000Y-86198000D03*
X155783000Y-83658000D03*
X153243000Y-83658000D03*
D12*
X143583000Y-55858000D03*
D13*
X165143000Y-40158000D03*
X162603000Y-40158000D03*
X160063000Y-40158000D03*
X157523000Y-40158000D03*
X154983000Y-40158000D03*
X152443000Y-40158000D03*
X149903000Y-40158000D03*
X147363000Y-40158000D03*
X144823000Y-40158000D03*
X142283000Y-40158000D03*
X139743000Y-40158000D03*
X137203000Y-40158000D03*
X134663000Y-40158000D03*
X132123000Y-40158000D03*
X129583000Y-40158000D03*
X127043000Y-40158000D03*
X124503000Y-40158000D03*
X121963000Y-40158000D03*
D14*
X121083000Y-91458000D03*
X121083000Y-86958000D03*
X127583000Y-91458000D03*
X127583000Y-86958000D03*
D15*
X99383000Y-91658000D03*
D16*
X99383000Y-89118000D03*
D17*
X167643000Y-52198000D03*
X170183000Y-52198000D03*
X172723000Y-52198000D03*
X175263000Y-52198000D03*
X177803000Y-52198000D03*
X180343000Y-52198000D03*
X182883000Y-52198000D03*
D18*
X185423000Y-52198000D03*
D17*
X185423000Y-49658000D03*
X182883000Y-49658000D03*
X180343000Y-49658000D03*
X177803000Y-49658000D03*
X175263000Y-49658000D03*
X172723000Y-49658000D03*
X170183000Y-49658000D03*
X167643000Y-49658000D03*
D14*
X114183000Y-86958000D03*
X114183000Y-91458000D03*
X107683000Y-86958000D03*
X107683000Y-91458000D03*
D19*
X170383000Y-66258000D03*
X176783000Y-66258000D03*
X121983000Y-51458000D03*
X103583000Y-62858000D03*
X101383000Y-80258000D03*
X146183000Y-60658000D03*
X139233000Y-54308000D03*
X150583000Y-73858000D03*
X158583000Y-73858000D03*
X134783000Y-66858000D03*
X145783000Y-66258000D03*
X153583000Y-72458000D03*
X155183000Y-72458000D03*
X158383000Y-56058000D03*
X135983000Y-72058000D03*
X136583000Y-76058000D03*
X135383000Y-76058000D03*
X134183000Y-76058000D03*
X132983000Y-76058000D03*
X134983000Y-72058000D03*
X133983000Y-72058000D03*
X132983000Y-72058000D03*
X131983000Y-72058000D03*
X125583000Y-56258000D03*
X127183000Y-61858000D03*
X127383000Y-60658000D03*
X124583000Y-62658000D03*
X124583000Y-61258000D03*
X134983000Y-60458000D03*
X135783000Y-61258000D03*
X118983000Y-73458000D03*
X129583000Y-72058000D03*
X124583000Y-68658000D03*
X106983000Y-83058000D03*
X106183000Y-76458000D03*
X105183000Y-64658000D03*
X128383000Y-78458000D03*
X118383000Y-56458000D03*
X154383000Y-60258000D03*
X143983000Y-83858000D03*
X115783000Y-66858000D03*
X106183000Y-56058000D03*
X112183000Y-54058000D03*
X112183000Y-51258000D03*
X115383000Y-49458000D03*
X108383000Y-64458000D03*
X105383000Y-80258000D03*
X173783000Y-61058000D03*
X174583000Y-66058000D03*
X126883000Y-84458000D03*
X126883000Y-78458000D03*
X109158736Y-57658000D03*
X118783000Y-68058000D03*
X142583000Y-80658000D03*
X153383000Y-77858000D03*
X154383000Y-57858000D03*
X155583000Y-75458000D03*
X153383000Y-75458000D03*
X140983000Y-66258000D03*
X140383000Y-60658000D03*
X134583000Y-54658000D03*
X120583000Y-73458000D03*
X116783000Y-59658000D03*
X124383000Y-48658000D03*
X126983000Y-48658000D03*
X128983000Y-48658000D03*
X131383000Y-48658000D03*
X133983000Y-48658000D03*
X136383000Y-48658000D03*
X138983000Y-48658000D03*
X141583000Y-48658000D03*
X146583000Y-48658000D03*
X148983000Y-48658000D03*
X151583000Y-48658000D03*
X159183000Y-48658000D03*
X167783000Y-66258000D03*
X165183000Y-63658000D03*
X172783000Y-62208000D03*
X172783000Y-66058000D03*
X164383000Y-62208000D03*
X180183000Y-66058000D03*
X177983000Y-62858000D03*
X163583000Y-64458000D03*
X155807272Y-66657990D03*
X134183000Y-68258000D03*
X132383000Y-68658000D03*
X156783000Y-68458000D03*
X160883000Y-67508000D03*
X156783000Y-66058000D03*
X154183000Y-48658000D03*
X152770448Y-67246905D03*
X135007267Y-70433723D03*
X139983000Y-68658000D03*
X154983000Y-67858000D03*
X181353000Y-62548000D03*
X156183000Y-92658000D03*
X100183000Y-48258000D03*
D20*
X163783000Y-49618000D02*
X163783000Y-52258000D01*
X165143000Y-40158000D02*
X165143000Y-48258000D01*
X165143000Y-48258000D02*
X163783000Y-49618000D01*
D21*
X144823000Y-48418000D02*
X143783000Y-49458000D01*
X143783000Y-49458000D02*
X115383000Y-49458000D01*
X144823000Y-40158000D02*
X144823000Y-48418000D01*
X108383000Y-64458000D02*
X108383000Y-58433736D01*
X108383000Y-58433736D02*
X109158736Y-57658000D01*
X108383000Y-64458000D02*
X108383000Y-78658000D01*
X108383000Y-78658000D02*
X106783000Y-80258000D01*
X106783000Y-80258000D02*
X105383000Y-80258000D01*
X174583000Y-66058000D02*
X174583000Y-61858000D01*
X174583000Y-61858000D02*
X173783000Y-61058000D01*
X126883000Y-78458000D02*
X126883000Y-84458000D01*
X110783000Y-57658000D02*
X109158736Y-57658000D01*
X112783000Y-59658000D02*
X110783000Y-57658000D01*
X120583000Y-66858000D02*
X120583000Y-68058000D01*
X120583000Y-68058000D02*
X120583000Y-73458000D01*
X118783000Y-68058000D02*
X120583000Y-68058000D01*
X134583000Y-54658000D02*
X137183000Y-54658000D01*
X137183000Y-54658000D02*
X140383000Y-57858000D01*
X140383000Y-57858000D02*
X140383000Y-60658000D01*
X144783000Y-60658000D02*
X147583000Y-57858000D01*
X147583000Y-57858000D02*
X154383000Y-57858000D01*
X140383000Y-60658000D02*
X144783000Y-60658000D01*
X142983000Y-85658000D02*
X142583000Y-85258000D01*
X142583000Y-85258000D02*
X142583000Y-80658000D01*
X142983000Y-85718000D02*
X142983000Y-85658000D01*
X146183000Y-88918000D02*
X153063000Y-88918000D01*
X153063000Y-88918000D02*
X153243000Y-88738000D01*
X142983000Y-85718000D02*
X146183000Y-88918000D01*
X153383000Y-77858000D02*
X154783000Y-77858000D01*
X153383000Y-75458000D02*
X153383000Y-77858000D01*
X154783000Y-77858000D02*
X155583000Y-77058000D01*
X155583000Y-77058000D02*
X155583000Y-75458000D01*
X140383000Y-60658000D02*
X140383000Y-65658000D01*
X140383000Y-65658000D02*
X140983000Y-66258000D01*
X118583000Y-54658000D02*
X134583000Y-54658000D01*
X116783000Y-56458000D02*
X118583000Y-54658000D01*
X116783000Y-59658000D02*
X116783000Y-56458000D01*
X116783000Y-63058000D02*
X120583000Y-66858000D01*
X116783000Y-59658000D02*
X116783000Y-63058000D01*
X112783000Y-59658000D02*
X116783000Y-59658000D01*
D22*
X124383000Y-48658000D02*
X124383000Y-40278000D01*
X124383000Y-40278000D02*
X124503000Y-40158000D01*
X126983000Y-48658000D02*
X126983000Y-40218000D01*
X126983000Y-40218000D02*
X127043000Y-40158000D01*
X129583000Y-48058000D02*
X129583000Y-40158000D01*
X128983000Y-48658000D02*
X129583000Y-48058000D01*
X131383000Y-48658000D02*
X132123000Y-47918000D01*
X132123000Y-47918000D02*
X132123000Y-40158000D01*
X133983000Y-48658000D02*
X134663000Y-47978000D01*
X134663000Y-47978000D02*
X134663000Y-40158000D01*
X136383000Y-48658000D02*
X137203000Y-47838000D01*
X137203000Y-47838000D02*
X137203000Y-40158000D01*
X138983000Y-48658000D02*
X139743000Y-47898000D01*
X139743000Y-47898000D02*
X139743000Y-40158000D01*
X141583000Y-48658000D02*
X142283000Y-47958000D01*
X142283000Y-47958000D02*
X142283000Y-40158000D01*
X146583000Y-48658000D02*
X147363000Y-47878000D01*
X147363000Y-47878000D02*
X147363000Y-40158000D01*
X147383000Y-40178000D02*
X147363000Y-40158000D01*
X148983000Y-48658000D02*
X149903000Y-47738000D01*
X149903000Y-47738000D02*
X149903000Y-40158000D01*
X151583000Y-48658000D02*
X152443000Y-47798000D01*
X152443000Y-47798000D02*
X152443000Y-40158000D01*
X159183000Y-48658000D02*
X160063000Y-47778000D01*
X160063000Y-47778000D02*
X160063000Y-40158000D01*
X167783000Y-66258000D02*
X167358736Y-66258000D01*
X167358736Y-66258000D02*
X167183000Y-66433736D01*
X167183000Y-66433736D02*
X167183000Y-66458000D01*
X167183000Y-66458000D02*
X167183000Y-78658000D01*
X167183000Y-78658000D02*
X157103000Y-88738000D01*
X165183000Y-64458000D02*
X167183000Y-66458000D01*
X165183000Y-63658000D02*
X165183000Y-64458000D01*
X157103000Y-88738000D02*
X155783000Y-88738000D01*
X155783000Y-88738000D02*
X155783000Y-88485829D01*
X172783000Y-66058000D02*
X172783000Y-62208000D01*
X164383000Y-62208000D02*
X164383000Y-64258000D01*
X164383000Y-64258000D02*
X166783000Y-66658000D01*
X166783000Y-66658000D02*
X166783000Y-75658000D01*
X157106599Y-85334401D02*
X156646599Y-85334401D01*
X166783000Y-75658000D02*
X157106599Y-85334401D01*
X156646599Y-85334401D02*
X155783000Y-86198000D01*
X177983000Y-62858000D02*
X180183000Y-65058000D01*
X180183000Y-65058000D02*
X180183000Y-66058000D01*
X163583000Y-64458000D02*
X166383000Y-67258000D01*
X166383000Y-67258000D02*
X166383000Y-74858000D01*
X166383000Y-74858000D02*
X156206600Y-85034400D01*
X156206600Y-85034400D02*
X154406600Y-85034400D01*
X154406600Y-85034400D02*
X153243000Y-86198000D01*
X155396175Y-66246893D02*
X155807272Y-66657990D01*
X134183000Y-68258000D02*
X134482999Y-67958001D01*
X145682976Y-67958001D02*
X147394084Y-66246893D01*
X147394084Y-66246893D02*
X155396175Y-66246893D01*
X134482999Y-67958001D02*
X145682976Y-67958001D01*
X146983000Y-68458000D02*
X156783000Y-68458000D01*
X132383000Y-68658000D02*
X134783000Y-71058000D01*
X134783000Y-71058000D02*
X144383000Y-71058000D01*
X144383000Y-71058000D02*
X146983000Y-68458000D01*
X160378898Y-67413558D02*
X160788558Y-67413558D01*
X160788558Y-67413558D02*
X160883000Y-67508000D01*
X159023340Y-66058000D02*
X160378898Y-67413558D01*
X156783000Y-66058000D02*
X159023340Y-66058000D01*
X154183000Y-48658000D02*
X154983000Y-47858000D01*
X154983000Y-47858000D02*
X154983000Y-40158000D01*
X135007267Y-70433723D02*
X144407267Y-70433723D01*
X147594085Y-67246905D02*
X152770448Y-67246905D01*
X144407267Y-70433723D02*
X147594085Y-67246905D01*
X147594084Y-66646916D02*
X145583000Y-68658000D01*
X145583000Y-68658000D02*
X139983000Y-68658000D01*
X147594084Y-66646904D02*
X147594084Y-66646916D01*
X153771904Y-66646904D02*
X154983000Y-67858000D01*
X147594084Y-66646904D02*
X153771904Y-66646904D01*
D23*
X176573000Y-57838000D02*
X181283000Y-62548000D01*
X181283000Y-62548000D02*
X181353000Y-62548000D01*
X162793000Y-57838000D02*
X176573000Y-57838000D01*
X159583000Y-54628000D02*
X162793000Y-57838000D01*
X159583000Y-51058000D02*
X159583000Y-54628000D01*
X157523000Y-40158000D02*
X157523000Y-47958000D01*
X157523000Y-47958000D02*
X158383000Y-48818000D01*
X158383000Y-48818000D02*
X158383000Y-49858000D01*
X158383000Y-49858000D02*
X159583000Y-51058000D01*
X156183000Y-92658000D02*
X133283000Y-92658000D01*
X133283000Y-92658000D02*
X127583000Y-86958000D01*
X157523000Y-46769000D02*
X157983000Y-47229000D01*
X120474000Y-48258000D02*
X100183000Y-48258000D01*
X121963000Y-40158000D02*
X121963000Y-46769000D01*
X121963000Y-46769000D02*
X120474000Y-48258000D01*
D24*
G36*
X191656000Y-93931261D02*
G01*
X188893059Y-93936946D01*
X189135060Y-93695367D01*
X189346251Y-93186762D01*
X189346732Y-92636054D01*
X189136429Y-92127081D01*
X188747359Y-91737332D01*
X188238754Y-91526141D01*
X187688046Y-91525660D01*
X187179073Y-91735963D01*
X186789324Y-92125033D01*
X186578133Y-92633638D01*
X186577652Y-93184346D01*
X186787955Y-93693319D01*
X187034974Y-93940769D01*
X164647043Y-93986835D01*
X164939020Y-93695367D01*
X165150211Y-93186762D01*
X165150692Y-92636054D01*
X164940389Y-92127081D01*
X164551319Y-91737332D01*
X164042714Y-91526141D01*
X163492006Y-91525660D01*
X162983033Y-91735963D01*
X162593284Y-92125033D01*
X162382093Y-92633638D01*
X162381612Y-93184346D01*
X162591915Y-93693319D01*
X162888532Y-93990453D01*
X94710000Y-94130738D01*
X94710000Y-90708000D01*
X97735560Y-90708000D01*
X97735560Y-92608000D01*
X97779838Y-92843317D01*
X97918910Y-93059441D01*
X98131110Y-93204431D01*
X98383000Y-93255440D01*
X100383000Y-93255440D01*
X100618317Y-93211162D01*
X100834441Y-93072090D01*
X100979431Y-92859890D01*
X101029927Y-92610532D01*
X106710073Y-92610532D01*
X106808736Y-92877387D01*
X107418461Y-93103908D01*
X108068460Y-93079856D01*
X108557264Y-92877387D01*
X108655927Y-92610532D01*
X113210073Y-92610532D01*
X113308736Y-92877387D01*
X113918461Y-93103908D01*
X114568460Y-93079856D01*
X115057264Y-92877387D01*
X115155927Y-92610532D01*
X114183000Y-91637605D01*
X113210073Y-92610532D01*
X108655927Y-92610532D01*
X107683000Y-91637605D01*
X106710073Y-92610532D01*
X101029927Y-92610532D01*
X101030440Y-92608000D01*
X101030440Y-91193461D01*
X106037092Y-91193461D01*
X106061144Y-91843460D01*
X106263613Y-92332264D01*
X106530468Y-92430927D01*
X107503395Y-91458000D01*
X107862605Y-91458000D01*
X108835532Y-92430927D01*
X109102387Y-92332264D01*
X109328908Y-91722539D01*
X109309331Y-91193461D01*
X112537092Y-91193461D01*
X112561144Y-91843460D01*
X112763613Y-92332264D01*
X113030468Y-92430927D01*
X114003395Y-91458000D01*
X114362605Y-91458000D01*
X115335532Y-92430927D01*
X115602387Y-92332264D01*
X115806893Y-91781795D01*
X119447716Y-91781795D01*
X119696106Y-92382943D01*
X120155637Y-92843278D01*
X120756352Y-93092716D01*
X121406795Y-93093284D01*
X122007943Y-92844894D01*
X122468278Y-92385363D01*
X122717716Y-91784648D01*
X122717718Y-91781795D01*
X125947716Y-91781795D01*
X126196106Y-92382943D01*
X126655637Y-92843278D01*
X127256352Y-93092716D01*
X127906795Y-93093284D01*
X128507943Y-92844894D01*
X128968278Y-92385363D01*
X129217716Y-91784648D01*
X129218284Y-91134205D01*
X128969894Y-90533057D01*
X128510363Y-90072722D01*
X127909648Y-89823284D01*
X127259205Y-89822716D01*
X126658057Y-90071106D01*
X126197722Y-90530637D01*
X125948284Y-91131352D01*
X125947716Y-91781795D01*
X122717718Y-91781795D01*
X122718284Y-91134205D01*
X122469894Y-90533057D01*
X122010363Y-90072722D01*
X121409648Y-89823284D01*
X120759205Y-89822716D01*
X120158057Y-90071106D01*
X119697722Y-90530637D01*
X119448284Y-91131352D01*
X119447716Y-91781795D01*
X115806893Y-91781795D01*
X115828908Y-91722539D01*
X115804856Y-91072540D01*
X115602387Y-90583736D01*
X115335532Y-90485073D01*
X114362605Y-91458000D01*
X114003395Y-91458000D01*
X113030468Y-90485073D01*
X112763613Y-90583736D01*
X112537092Y-91193461D01*
X109309331Y-91193461D01*
X109304856Y-91072540D01*
X109102387Y-90583736D01*
X108835532Y-90485073D01*
X107862605Y-91458000D01*
X107503395Y-91458000D01*
X106530468Y-90485073D01*
X106263613Y-90583736D01*
X106037092Y-91193461D01*
X101030440Y-91193461D01*
X101030440Y-90708000D01*
X100986162Y-90472683D01*
X100878563Y-90305468D01*
X106710073Y-90305468D01*
X107683000Y-91278395D01*
X108655927Y-90305468D01*
X113210073Y-90305468D01*
X114183000Y-91278395D01*
X115155927Y-90305468D01*
X115057264Y-90038613D01*
X114447539Y-89812092D01*
X113797540Y-89836144D01*
X113308736Y-90038613D01*
X113210073Y-90305468D01*
X108655927Y-90305468D01*
X108557264Y-90038613D01*
X107947539Y-89812092D01*
X107297540Y-89836144D01*
X106808736Y-90038613D01*
X106710073Y-90305468D01*
X100878563Y-90305468D01*
X100847090Y-90256559D01*
X100634890Y-90111569D01*
X100631808Y-90110945D01*
X100725914Y-90017003D01*
X100967724Y-89434659D01*
X100968275Y-88804107D01*
X100727481Y-88221343D01*
X100282003Y-87775086D01*
X99699659Y-87533276D01*
X99069107Y-87532725D01*
X98486343Y-87773519D01*
X98040086Y-88218997D01*
X97798276Y-88801341D01*
X97797725Y-89431893D01*
X98038519Y-90014657D01*
X98136029Y-90112337D01*
X97931559Y-90243910D01*
X97786569Y-90456110D01*
X97735560Y-90708000D01*
X94710000Y-90708000D01*
X94710000Y-87281795D01*
X106047716Y-87281795D01*
X106296106Y-87882943D01*
X106755637Y-88343278D01*
X107356352Y-88592716D01*
X108006795Y-88593284D01*
X108607943Y-88344894D01*
X109068278Y-87885363D01*
X109317716Y-87284648D01*
X109317718Y-87281795D01*
X112547716Y-87281795D01*
X112796106Y-87882943D01*
X113255637Y-88343278D01*
X113856352Y-88592716D01*
X114506795Y-88593284D01*
X115107943Y-88344894D01*
X115568278Y-87885363D01*
X115817716Y-87284648D01*
X115817718Y-87281795D01*
X119447716Y-87281795D01*
X119696106Y-87882943D01*
X120155637Y-88343278D01*
X120756352Y-88592716D01*
X121406795Y-88593284D01*
X122007943Y-88344894D01*
X122468278Y-87885363D01*
X122717716Y-87284648D01*
X122717718Y-87281795D01*
X125947716Y-87281795D01*
X126196106Y-87882943D01*
X126655637Y-88343278D01*
X127256352Y-88592716D01*
X127906795Y-88593284D01*
X128049260Y-88534418D01*
X132727921Y-93213079D01*
X132982593Y-93383245D01*
X133283000Y-93443000D01*
X155645494Y-93443000D01*
X155652673Y-93450192D01*
X155996201Y-93592838D01*
X156368167Y-93593162D01*
X156711943Y-93451117D01*
X156975192Y-93188327D01*
X157117838Y-92844799D01*
X157118162Y-92472833D01*
X156976117Y-92129057D01*
X156713327Y-91865808D01*
X156369799Y-91723162D01*
X155997833Y-91722838D01*
X155654057Y-91864883D01*
X155645926Y-91873000D01*
X133608158Y-91873000D01*
X129159648Y-87424490D01*
X129217716Y-87284648D01*
X129218284Y-86634205D01*
X128969894Y-86033057D01*
X128510363Y-85572722D01*
X127909648Y-85323284D01*
X127259205Y-85322716D01*
X126658057Y-85571106D01*
X126197722Y-86030637D01*
X125948284Y-86631352D01*
X125947716Y-87281795D01*
X122717718Y-87281795D01*
X122718284Y-86634205D01*
X122469894Y-86033057D01*
X122010363Y-85572722D01*
X121409648Y-85323284D01*
X120759205Y-85322716D01*
X120158057Y-85571106D01*
X119697722Y-86030637D01*
X119448284Y-86631352D01*
X119447716Y-87281795D01*
X115817718Y-87281795D01*
X115818284Y-86634205D01*
X115569894Y-86033057D01*
X115110363Y-85572722D01*
X114509648Y-85323284D01*
X113859205Y-85322716D01*
X113258057Y-85571106D01*
X112797722Y-86030637D01*
X112548284Y-86631352D01*
X112547716Y-87281795D01*
X109317718Y-87281795D01*
X109318284Y-86634205D01*
X109069894Y-86033057D01*
X108610363Y-85572722D01*
X108009648Y-85323284D01*
X107359205Y-85322716D01*
X106758057Y-85571106D01*
X106297722Y-86030637D01*
X106048284Y-86631352D01*
X106047716Y-87281795D01*
X94710000Y-87281795D01*
X94710000Y-80443167D01*
X104447838Y-80443167D01*
X104589883Y-80786943D01*
X104852673Y-81050192D01*
X105196201Y-81192838D01*
X105568167Y-81193162D01*
X105689569Y-81143000D01*
X106782995Y-81143000D01*
X106783000Y-81143001D01*
X107065484Y-81086810D01*
X107121675Y-81075633D01*
X107408790Y-80883790D01*
X109008787Y-79283792D01*
X109008790Y-79283790D01*
X109200633Y-78996675D01*
X109212051Y-78939272D01*
X109268001Y-78658000D01*
X109268000Y-78657995D01*
X109268000Y-78643167D01*
X125947838Y-78643167D01*
X125998000Y-78764569D01*
X125998000Y-84151178D01*
X125948162Y-84271201D01*
X125947838Y-84643167D01*
X126089883Y-84986943D01*
X126352673Y-85250192D01*
X126696201Y-85392838D01*
X127068167Y-85393162D01*
X127411943Y-85251117D01*
X127675192Y-84988327D01*
X127817838Y-84644799D01*
X127818162Y-84272833D01*
X127768000Y-84151431D01*
X127768000Y-80843167D01*
X141647838Y-80843167D01*
X141698000Y-80964569D01*
X141698000Y-85257995D01*
X141697999Y-85258000D01*
X141754190Y-85540484D01*
X141765367Y-85596675D01*
X141937388Y-85854124D01*
X141957210Y-85883790D01*
X142236391Y-86162970D01*
X142259797Y-86198000D01*
X142357210Y-86343790D01*
X145557208Y-89543787D01*
X145557210Y-89543790D01*
X145844325Y-89735633D01*
X146183000Y-89803000D01*
X152167274Y-89803000D01*
X152183330Y-89827029D01*
X152669511Y-90151885D01*
X153243000Y-90265959D01*
X153816489Y-90151885D01*
X154302670Y-89827029D01*
X154311805Y-89813358D01*
X154316238Y-89836917D01*
X154455310Y-90053041D01*
X154667510Y-90198031D01*
X154919400Y-90249040D01*
X156646600Y-90249040D01*
X156881917Y-90204762D01*
X157098041Y-90065690D01*
X157243031Y-89853490D01*
X157294040Y-89601600D01*
X157294040Y-89434999D01*
X157384272Y-89417051D01*
X157622723Y-89257723D01*
X167702724Y-79177723D01*
X167862051Y-78939272D01*
X167918000Y-78658000D01*
X167918000Y-67193118D01*
X167968167Y-67193162D01*
X168311943Y-67051117D01*
X168575192Y-66788327D01*
X168717838Y-66444799D01*
X168718162Y-66072833D01*
X168576117Y-65729057D01*
X168313327Y-65465808D01*
X167969799Y-65323162D01*
X167597833Y-65322838D01*
X167254057Y-65464883D01*
X167241683Y-65477236D01*
X165963973Y-64199527D01*
X165975192Y-64188327D01*
X166117838Y-63844799D01*
X166118162Y-63472833D01*
X165976117Y-63129057D01*
X165713327Y-62865808D01*
X165369799Y-62723162D01*
X165181557Y-62722998D01*
X165317838Y-62394799D01*
X165317839Y-62393167D01*
X171847838Y-62393167D01*
X171989883Y-62736943D01*
X172048000Y-62795162D01*
X172048000Y-65470581D01*
X171990808Y-65527673D01*
X171848162Y-65871201D01*
X171847838Y-66243167D01*
X171989883Y-66586943D01*
X172252673Y-66850192D01*
X172596201Y-66992838D01*
X172968167Y-66993162D01*
X173311943Y-66851117D01*
X173575192Y-66588327D01*
X173683089Y-66328482D01*
X173789883Y-66586943D01*
X174052673Y-66850192D01*
X174396201Y-66992838D01*
X174768167Y-66993162D01*
X175111943Y-66851117D01*
X175375192Y-66588327D01*
X175517838Y-66244799D01*
X175518162Y-65872833D01*
X175468000Y-65751431D01*
X175468000Y-63043167D01*
X177047838Y-63043167D01*
X177189883Y-63386943D01*
X177452673Y-63650192D01*
X177796201Y-63792838D01*
X177878463Y-63792910D01*
X179448000Y-65362447D01*
X179448000Y-65470581D01*
X179390808Y-65527673D01*
X179248162Y-65871201D01*
X179247838Y-66243167D01*
X179389883Y-66586943D01*
X179652673Y-66850192D01*
X179996201Y-66992838D01*
X180368167Y-66993162D01*
X180711943Y-66851117D01*
X180975192Y-66588327D01*
X181117838Y-66244799D01*
X181118162Y-65872833D01*
X180976117Y-65529057D01*
X180918000Y-65470838D01*
X180918000Y-65058000D01*
X180862051Y-64776728D01*
X180773899Y-64644799D01*
X180702724Y-64538277D01*
X178918092Y-62753645D01*
X178918162Y-62672833D01*
X178776117Y-62329057D01*
X178513327Y-62065808D01*
X178169799Y-61923162D01*
X177797833Y-61922838D01*
X177454057Y-62064883D01*
X177190808Y-62327673D01*
X177048162Y-62671201D01*
X177047838Y-63043167D01*
X175468000Y-63043167D01*
X175468000Y-61858005D01*
X175468001Y-61858000D01*
X175400633Y-61519326D01*
X175400633Y-61519325D01*
X175208790Y-61232210D01*
X175208787Y-61232208D01*
X174625744Y-60649165D01*
X174576117Y-60529057D01*
X174313327Y-60265808D01*
X173969799Y-60123162D01*
X173597833Y-60122838D01*
X173254057Y-60264883D01*
X172990808Y-60527673D01*
X172848162Y-60871201D01*
X172847838Y-61243167D01*
X172860192Y-61273067D01*
X172597833Y-61272838D01*
X172254057Y-61414883D01*
X171990808Y-61677673D01*
X171848162Y-62021201D01*
X171847838Y-62393167D01*
X165317839Y-62393167D01*
X165318162Y-62022833D01*
X165176117Y-61679057D01*
X164913327Y-61415808D01*
X164569799Y-61273162D01*
X164197833Y-61272838D01*
X163854057Y-61414883D01*
X163590808Y-61677673D01*
X163448162Y-62021201D01*
X163447838Y-62393167D01*
X163589883Y-62736943D01*
X163648000Y-62795162D01*
X163648000Y-63523056D01*
X163397833Y-63522838D01*
X163054057Y-63664883D01*
X162790808Y-63927673D01*
X162648162Y-64271201D01*
X162647838Y-64643167D01*
X162789883Y-64986943D01*
X163052673Y-65250192D01*
X163396201Y-65392838D01*
X163478464Y-65392910D01*
X165648000Y-67562447D01*
X165648000Y-74553553D01*
X157159065Y-83042489D01*
X156842670Y-82568971D01*
X156356489Y-82244115D01*
X155783000Y-82130041D01*
X155209511Y-82244115D01*
X154723330Y-82568971D01*
X154507336Y-82892228D01*
X154449821Y-82769510D01*
X154017947Y-82375312D01*
X153602026Y-82203042D01*
X153370000Y-82324183D01*
X153370000Y-83531000D01*
X153390000Y-83531000D01*
X153390000Y-83785000D01*
X153370000Y-83785000D01*
X153370000Y-83805000D01*
X153116000Y-83805000D01*
X153116000Y-83785000D01*
X151908531Y-83785000D01*
X151788032Y-84017027D01*
X152036179Y-84546490D01*
X152454161Y-84928008D01*
X152183330Y-85108971D01*
X151858474Y-85595152D01*
X151744400Y-86168641D01*
X151744400Y-86227359D01*
X151858474Y-86800848D01*
X152183330Y-87287029D01*
X152454172Y-87468000D01*
X152183330Y-87648971D01*
X151926730Y-88033000D01*
X146549579Y-88033000D01*
X143729608Y-85213028D01*
X143608790Y-85032210D01*
X143608787Y-85032208D01*
X143468000Y-84891421D01*
X143468000Y-83298973D01*
X151788032Y-83298973D01*
X151908531Y-83531000D01*
X153116000Y-83531000D01*
X153116000Y-82324183D01*
X152883974Y-82203042D01*
X152468053Y-82375312D01*
X152036179Y-82769510D01*
X151788032Y-83298973D01*
X143468000Y-83298973D01*
X143468000Y-80964822D01*
X143517838Y-80844799D01*
X143518162Y-80472833D01*
X143376117Y-80129057D01*
X143113327Y-79865808D01*
X142769799Y-79723162D01*
X142397833Y-79722838D01*
X142054057Y-79864883D01*
X141790808Y-80127673D01*
X141648162Y-80471201D01*
X141647838Y-80843167D01*
X127768000Y-80843167D01*
X127768000Y-78764822D01*
X127817838Y-78644799D01*
X127818162Y-78272833D01*
X127676117Y-77929057D01*
X127413327Y-77665808D01*
X127069799Y-77523162D01*
X126697833Y-77522838D01*
X126354057Y-77664883D01*
X126090808Y-77927673D01*
X125948162Y-78271201D01*
X125947838Y-78643167D01*
X109268000Y-78643167D01*
X109268000Y-75643167D01*
X152447838Y-75643167D01*
X152498000Y-75764569D01*
X152498000Y-77551178D01*
X152448162Y-77671201D01*
X152447838Y-78043167D01*
X152589883Y-78386943D01*
X152852673Y-78650192D01*
X153196201Y-78792838D01*
X153568167Y-78793162D01*
X153689569Y-78743000D01*
X154782995Y-78743000D01*
X154783000Y-78743001D01*
X155065484Y-78686810D01*
X155121675Y-78675633D01*
X155408790Y-78483790D01*
X156208787Y-77683792D01*
X156208790Y-77683790D01*
X156400633Y-77396675D01*
X156414358Y-77327673D01*
X156468001Y-77058000D01*
X156468000Y-77057995D01*
X156468000Y-75764822D01*
X156517838Y-75644799D01*
X156518162Y-75272833D01*
X156376117Y-74929057D01*
X156113327Y-74665808D01*
X155769799Y-74523162D01*
X155397833Y-74522838D01*
X155054057Y-74664883D01*
X154790808Y-74927673D01*
X154648162Y-75271201D01*
X154647838Y-75643167D01*
X154698000Y-75764569D01*
X154698000Y-76691421D01*
X154416420Y-76973000D01*
X154268000Y-76973000D01*
X154268000Y-75764822D01*
X154317838Y-75644799D01*
X154318162Y-75272833D01*
X154176117Y-74929057D01*
X153913327Y-74665808D01*
X153569799Y-74523162D01*
X153197833Y-74522838D01*
X152854057Y-74664883D01*
X152590808Y-74927673D01*
X152448162Y-75271201D01*
X152447838Y-75643167D01*
X109268000Y-75643167D01*
X109268000Y-64764822D01*
X109317838Y-64644799D01*
X109318162Y-64272833D01*
X109268000Y-64151431D01*
X109268000Y-58800316D01*
X109525315Y-58543000D01*
X110416420Y-58543000D01*
X112157208Y-60283787D01*
X112157210Y-60283790D01*
X112444325Y-60475633D01*
X112783000Y-60543001D01*
X112783005Y-60543000D01*
X115898000Y-60543000D01*
X115898000Y-63057995D01*
X115897999Y-63058000D01*
X115940815Y-63273245D01*
X115965367Y-63396675D01*
X116083183Y-63573000D01*
X116157210Y-63683790D01*
X119646421Y-67173000D01*
X119089822Y-67173000D01*
X118969799Y-67123162D01*
X118597833Y-67122838D01*
X118254057Y-67264883D01*
X117990808Y-67527673D01*
X117848162Y-67871201D01*
X117847838Y-68243167D01*
X117989883Y-68586943D01*
X118252673Y-68850192D01*
X118596201Y-68992838D01*
X118968167Y-68993162D01*
X119089569Y-68943000D01*
X119698000Y-68943000D01*
X119698000Y-73151178D01*
X119648162Y-73271201D01*
X119647838Y-73643167D01*
X119789883Y-73986943D01*
X120052673Y-74250192D01*
X120396201Y-74392838D01*
X120768167Y-74393162D01*
X121111943Y-74251117D01*
X121375192Y-73988327D01*
X121517838Y-73644799D01*
X121518162Y-73272833D01*
X121468000Y-73151431D01*
X121468000Y-68843167D01*
X131447838Y-68843167D01*
X131589883Y-69186943D01*
X131852673Y-69450192D01*
X132196201Y-69592838D01*
X132278463Y-69592910D01*
X134263277Y-71577724D01*
X134501728Y-71737051D01*
X134783000Y-71793000D01*
X144383000Y-71793000D01*
X144664272Y-71737051D01*
X144902723Y-71577723D01*
X147287447Y-69193000D01*
X156195581Y-69193000D01*
X156252673Y-69250192D01*
X156596201Y-69392838D01*
X156968167Y-69393162D01*
X157311943Y-69251117D01*
X157575192Y-68988327D01*
X157717838Y-68644799D01*
X157718162Y-68272833D01*
X157576117Y-67929057D01*
X157313327Y-67665808D01*
X156969799Y-67523162D01*
X156597833Y-67522838D01*
X156254057Y-67664883D01*
X156195838Y-67723000D01*
X155918118Y-67723000D01*
X155918162Y-67672833D01*
X155885200Y-67593059D01*
X155992439Y-67593152D01*
X156336215Y-67451107D01*
X156599464Y-67188317D01*
X156680604Y-66992912D01*
X156968167Y-66993162D01*
X157311943Y-66851117D01*
X157370162Y-66793000D01*
X158718894Y-66793000D01*
X159859175Y-67933282D01*
X160068029Y-68072833D01*
X160097626Y-68092609D01*
X160157302Y-68104479D01*
X160352673Y-68300192D01*
X160696201Y-68442838D01*
X161068167Y-68443162D01*
X161411943Y-68301117D01*
X161675192Y-68038327D01*
X161817838Y-67694799D01*
X161818162Y-67322833D01*
X161676117Y-66979057D01*
X161413327Y-66715808D01*
X161069799Y-66573162D01*
X160697833Y-66572838D01*
X160612771Y-66607985D01*
X159543063Y-65538277D01*
X159304612Y-65378949D01*
X159023340Y-65323000D01*
X157370419Y-65323000D01*
X157313327Y-65265808D01*
X156969799Y-65123162D01*
X156597833Y-65122838D01*
X156254057Y-65264883D01*
X155990808Y-65527673D01*
X155909691Y-65723023D01*
X155677447Y-65567842D01*
X155396175Y-65511893D01*
X147394084Y-65511893D01*
X147112812Y-65567842D01*
X146874360Y-65727170D01*
X145378530Y-67223001D01*
X134482999Y-67223001D01*
X134201727Y-67278950D01*
X134135864Y-67322958D01*
X133997833Y-67322838D01*
X133654057Y-67464883D01*
X133390808Y-67727673D01*
X133248162Y-68071201D01*
X133247960Y-68302931D01*
X133176117Y-68129057D01*
X132913327Y-67865808D01*
X132569799Y-67723162D01*
X132197833Y-67722838D01*
X131854057Y-67864883D01*
X131590808Y-68127673D01*
X131448162Y-68471201D01*
X131447838Y-68843167D01*
X121468000Y-68843167D01*
X121468000Y-66858005D01*
X121468001Y-66858000D01*
X121400634Y-66519326D01*
X121305353Y-66376728D01*
X121208790Y-66232210D01*
X121208787Y-66232208D01*
X117668000Y-62691420D01*
X117668000Y-59964822D01*
X117717838Y-59844799D01*
X117718162Y-59472833D01*
X117668000Y-59351431D01*
X117668000Y-56824580D01*
X118949579Y-55543000D01*
X134276178Y-55543000D01*
X134396201Y-55592838D01*
X134768167Y-55593162D01*
X134889569Y-55543000D01*
X136816420Y-55543000D01*
X139498000Y-58224579D01*
X139498000Y-60351178D01*
X139448162Y-60471201D01*
X139447838Y-60843167D01*
X139498000Y-60964569D01*
X139498000Y-65657995D01*
X139497999Y-65658000D01*
X139540733Y-65872833D01*
X139565367Y-65996675D01*
X139685674Y-66176728D01*
X139757210Y-66283790D01*
X140140255Y-66666835D01*
X140189883Y-66786943D01*
X140452673Y-67050192D01*
X140796201Y-67192838D01*
X141168167Y-67193162D01*
X141511943Y-67051117D01*
X141775192Y-66788327D01*
X141917838Y-66444799D01*
X141918162Y-66072833D01*
X141776117Y-65729057D01*
X141513327Y-65465808D01*
X141392013Y-65415434D01*
X141268000Y-65291420D01*
X141268000Y-61543000D01*
X144782995Y-61543000D01*
X144783000Y-61543001D01*
X145065484Y-61486810D01*
X145121675Y-61475633D01*
X145408790Y-61283790D01*
X147949579Y-58743000D01*
X154076178Y-58743000D01*
X154196201Y-58792838D01*
X154568167Y-58793162D01*
X154911943Y-58651117D01*
X155175192Y-58388327D01*
X155317838Y-58044799D01*
X155318162Y-57672833D01*
X155176117Y-57329057D01*
X154913327Y-57065808D01*
X154569799Y-56923162D01*
X154197833Y-56922838D01*
X154076431Y-56973000D01*
X147583005Y-56973000D01*
X147583000Y-56972999D01*
X147300516Y-57029190D01*
X147244325Y-57040367D01*
X146957210Y-57232210D01*
X146957208Y-57232213D01*
X144416420Y-59773000D01*
X141268000Y-59773000D01*
X141268000Y-58188707D01*
X141719767Y-58641264D01*
X142926706Y-59142429D01*
X144233560Y-59143569D01*
X145441372Y-58644511D01*
X146366264Y-57721233D01*
X146867429Y-56514294D01*
X146868569Y-55207440D01*
X146369511Y-53999628D01*
X145446233Y-53074736D01*
X144239294Y-52573571D01*
X142932440Y-52572431D01*
X141724628Y-53071489D01*
X140799736Y-53994767D01*
X140298571Y-55201706D01*
X140297431Y-56508560D01*
X140306086Y-56529507D01*
X137808790Y-54032210D01*
X137752752Y-53994767D01*
X137521675Y-53840367D01*
X137465484Y-53829190D01*
X137183000Y-53772999D01*
X137182995Y-53773000D01*
X134889822Y-53773000D01*
X134769799Y-53723162D01*
X134397833Y-53722838D01*
X134276431Y-53773000D01*
X118583000Y-53773000D01*
X118244325Y-53840367D01*
X117957210Y-54032210D01*
X117957208Y-54032213D01*
X116157210Y-55832210D01*
X115965367Y-56119325D01*
X115965367Y-56119326D01*
X115897999Y-56458000D01*
X115898000Y-56458005D01*
X115898000Y-58773000D01*
X113149579Y-58773000D01*
X111408790Y-57032210D01*
X111159750Y-56865808D01*
X111121675Y-56840367D01*
X111065484Y-56829190D01*
X110783000Y-56772999D01*
X110782995Y-56773000D01*
X109465558Y-56773000D01*
X109345535Y-56723162D01*
X108973569Y-56722838D01*
X108629793Y-56864883D01*
X108366544Y-57127673D01*
X108316170Y-57248987D01*
X107757210Y-57807946D01*
X107565367Y-58095061D01*
X107565367Y-58095062D01*
X107497999Y-58433736D01*
X107498000Y-58433741D01*
X107498000Y-64151178D01*
X107448162Y-64271201D01*
X107447838Y-64643167D01*
X107498000Y-64764569D01*
X107498000Y-78291421D01*
X106416420Y-79373000D01*
X105689822Y-79373000D01*
X105569799Y-79323162D01*
X105197833Y-79322838D01*
X104854057Y-79464883D01*
X104590808Y-79727673D01*
X104448162Y-80071201D01*
X104447838Y-80443167D01*
X94710000Y-80443167D01*
X94710000Y-49985000D01*
X94783262Y-49985000D01*
X114572221Y-49944198D01*
X114589883Y-49986943D01*
X114852673Y-50250192D01*
X115196201Y-50392838D01*
X115568167Y-50393162D01*
X115689569Y-50343000D01*
X143782995Y-50343000D01*
X143783000Y-50343001D01*
X144065484Y-50286810D01*
X144121675Y-50275633D01*
X144408790Y-50083790D01*
X144610316Y-49882264D01*
X157598000Y-49855485D01*
X157598000Y-49858000D01*
X157657755Y-50158407D01*
X157827921Y-50413079D01*
X158798000Y-51383158D01*
X158798000Y-54628000D01*
X158857755Y-54928407D01*
X159027921Y-55183079D01*
X162237919Y-58393076D01*
X162237921Y-58393079D01*
X162462295Y-58543000D01*
X162492594Y-58563245D01*
X162793000Y-58623001D01*
X162793005Y-58623000D01*
X176247842Y-58623000D01*
X180459965Y-62835123D01*
X180559883Y-63076943D01*
X180822673Y-63340192D01*
X181166201Y-63482838D01*
X181538167Y-63483162D01*
X181881943Y-63341117D01*
X182145192Y-63078327D01*
X182287838Y-62734799D01*
X182288162Y-62362833D01*
X182146117Y-62019057D01*
X181883327Y-61755808D01*
X181539799Y-61613162D01*
X181458249Y-61613091D01*
X177128079Y-57282921D01*
X176873407Y-57112755D01*
X176573000Y-57053000D01*
X163118157Y-57053000D01*
X160368000Y-54302842D01*
X160368000Y-53270196D01*
X166750409Y-53270196D01*
X166835467Y-53525539D01*
X167404965Y-53733516D01*
X168010700Y-53707723D01*
X168450533Y-53525539D01*
X168535591Y-53270196D01*
X167643000Y-52377605D01*
X166750409Y-53270196D01*
X160368000Y-53270196D01*
X160368000Y-51959965D01*
X166107484Y-51959965D01*
X166133277Y-52565700D01*
X166315461Y-53005533D01*
X166570804Y-53090591D01*
X167463395Y-52198000D01*
X166570804Y-51305409D01*
X166315461Y-51390467D01*
X166107484Y-51959965D01*
X160368000Y-51959965D01*
X160368000Y-51058000D01*
X160308245Y-50757593D01*
X160289939Y-50730196D01*
X166750409Y-50730196D01*
X166816300Y-50928000D01*
X166750409Y-51125804D01*
X167643000Y-52018395D01*
X168535591Y-51125804D01*
X168469700Y-50928000D01*
X168535591Y-50730196D01*
X167643000Y-49837605D01*
X166750409Y-50730196D01*
X160289939Y-50730196D01*
X160138079Y-50502921D01*
X159486748Y-49851590D01*
X166125280Y-49837903D01*
X166133277Y-50025700D01*
X166315461Y-50465533D01*
X166570804Y-50550591D01*
X167285885Y-49835510D01*
X167998645Y-49834040D01*
X168715196Y-50550591D01*
X168880138Y-50495647D01*
X168890262Y-50520149D01*
X169297737Y-50928336D01*
X168891769Y-51333596D01*
X168880595Y-51360506D01*
X168715196Y-51305409D01*
X167822605Y-52198000D01*
X168715196Y-53090591D01*
X168880138Y-53035647D01*
X168890262Y-53060149D01*
X169318596Y-53489231D01*
X169878528Y-53721735D01*
X170484812Y-53722264D01*
X171045149Y-53490738D01*
X171453336Y-53083263D01*
X171858596Y-53489231D01*
X172418528Y-53721735D01*
X173024812Y-53722264D01*
X173585149Y-53490738D01*
X173993336Y-53083263D01*
X174398596Y-53489231D01*
X174958528Y-53721735D01*
X175564812Y-53722264D01*
X176125149Y-53490738D01*
X176533336Y-53083263D01*
X176938596Y-53489231D01*
X177498528Y-53721735D01*
X178104812Y-53722264D01*
X178665149Y-53490738D01*
X179073336Y-53083263D01*
X179478596Y-53489231D01*
X180038528Y-53721735D01*
X180644812Y-53722264D01*
X181205149Y-53490738D01*
X181613336Y-53083263D01*
X182018596Y-53489231D01*
X182578528Y-53721735D01*
X183184812Y-53722264D01*
X183745149Y-53490738D01*
X183935292Y-53300926D01*
X183995673Y-53446699D01*
X184174302Y-53625327D01*
X184407691Y-53722000D01*
X185137250Y-53722000D01*
X185296000Y-53563250D01*
X185296000Y-52325000D01*
X185550000Y-52325000D01*
X185550000Y-53563250D01*
X185708750Y-53722000D01*
X186438309Y-53722000D01*
X186671698Y-53625327D01*
X186850327Y-53446699D01*
X186947000Y-53213310D01*
X186947000Y-52483750D01*
X186788250Y-52325000D01*
X185550000Y-52325000D01*
X185296000Y-52325000D01*
X185276000Y-52325000D01*
X185276000Y-52071000D01*
X185296000Y-52071000D01*
X185296000Y-52051000D01*
X185550000Y-52051000D01*
X185550000Y-52071000D01*
X186788250Y-52071000D01*
X186947000Y-51912250D01*
X186947000Y-51182690D01*
X186850327Y-50949301D01*
X186671698Y-50770673D01*
X186553326Y-50721642D01*
X186609788Y-50665180D01*
X186495198Y-50550590D01*
X186750539Y-50465533D01*
X186958516Y-49896035D01*
X186954212Y-49794956D01*
X191656000Y-49785262D01*
X191656000Y-93931261D01*
G37*
X191656000Y-93931261D02*
X188893059Y-93936946D01*
X189135060Y-93695367D01*
X189346251Y-93186762D01*
X189346732Y-92636054D01*
X189136429Y-92127081D01*
X188747359Y-91737332D01*
X188238754Y-91526141D01*
X187688046Y-91525660D01*
X187179073Y-91735963D01*
X186789324Y-92125033D01*
X186578133Y-92633638D01*
X186577652Y-93184346D01*
X186787955Y-93693319D01*
X187034974Y-93940769D01*
X164647043Y-93986835D01*
X164939020Y-93695367D01*
X165150211Y-93186762D01*
X165150692Y-92636054D01*
X164940389Y-92127081D01*
X164551319Y-91737332D01*
X164042714Y-91526141D01*
X163492006Y-91525660D01*
X162983033Y-91735963D01*
X162593284Y-92125033D01*
X162382093Y-92633638D01*
X162381612Y-93184346D01*
X162591915Y-93693319D01*
X162888532Y-93990453D01*
X94710000Y-94130738D01*
X94710000Y-90708000D01*
X97735560Y-90708000D01*
X97735560Y-92608000D01*
X97779838Y-92843317D01*
X97918910Y-93059441D01*
X98131110Y-93204431D01*
X98383000Y-93255440D01*
X100383000Y-93255440D01*
X100618317Y-93211162D01*
X100834441Y-93072090D01*
X100979431Y-92859890D01*
X101029927Y-92610532D01*
X106710073Y-92610532D01*
X106808736Y-92877387D01*
X107418461Y-93103908D01*
X108068460Y-93079856D01*
X108557264Y-92877387D01*
X108655927Y-92610532D01*
X113210073Y-92610532D01*
X113308736Y-92877387D01*
X113918461Y-93103908D01*
X114568460Y-93079856D01*
X115057264Y-92877387D01*
X115155927Y-92610532D01*
X114183000Y-91637605D01*
X113210073Y-92610532D01*
X108655927Y-92610532D01*
X107683000Y-91637605D01*
X106710073Y-92610532D01*
X101029927Y-92610532D01*
X101030440Y-92608000D01*
X101030440Y-91193461D01*
X106037092Y-91193461D01*
X106061144Y-91843460D01*
X106263613Y-92332264D01*
X106530468Y-92430927D01*
X107503395Y-91458000D01*
X107862605Y-91458000D01*
X108835532Y-92430927D01*
X109102387Y-92332264D01*
X109328908Y-91722539D01*
X109309331Y-91193461D01*
X112537092Y-91193461D01*
X112561144Y-91843460D01*
X112763613Y-92332264D01*
X113030468Y-92430927D01*
X114003395Y-91458000D01*
X114362605Y-91458000D01*
X115335532Y-92430927D01*
X115602387Y-92332264D01*
X115806893Y-91781795D01*
X119447716Y-91781795D01*
X119696106Y-92382943D01*
X120155637Y-92843278D01*
X120756352Y-93092716D01*
X121406795Y-93093284D01*
X122007943Y-92844894D01*
X122468278Y-92385363D01*
X122717716Y-91784648D01*
X122717718Y-91781795D01*
X125947716Y-91781795D01*
X126196106Y-92382943D01*
X126655637Y-92843278D01*
X127256352Y-93092716D01*
X127906795Y-93093284D01*
X128507943Y-92844894D01*
X128968278Y-92385363D01*
X129217716Y-91784648D01*
X129218284Y-91134205D01*
X128969894Y-90533057D01*
X128510363Y-90072722D01*
X127909648Y-89823284D01*
X127259205Y-89822716D01*
X126658057Y-90071106D01*
X126197722Y-90530637D01*
X125948284Y-91131352D01*
X125947716Y-91781795D01*
X122717718Y-91781795D01*
X122718284Y-91134205D01*
X122469894Y-90533057D01*
X122010363Y-90072722D01*
X121409648Y-89823284D01*
X120759205Y-89822716D01*
X120158057Y-90071106D01*
X119697722Y-90530637D01*
X119448284Y-91131352D01*
X119447716Y-91781795D01*
X115806893Y-91781795D01*
X115828908Y-91722539D01*
X115804856Y-91072540D01*
X115602387Y-90583736D01*
X115335532Y-90485073D01*
X114362605Y-91458000D01*
X114003395Y-91458000D01*
X113030468Y-90485073D01*
X112763613Y-90583736D01*
X112537092Y-91193461D01*
X109309331Y-91193461D01*
X109304856Y-91072540D01*
X109102387Y-90583736D01*
X108835532Y-90485073D01*
X107862605Y-91458000D01*
X107503395Y-91458000D01*
X106530468Y-90485073D01*
X106263613Y-90583736D01*
X106037092Y-91193461D01*
X101030440Y-91193461D01*
X101030440Y-90708000D01*
X100986162Y-90472683D01*
X100878563Y-90305468D01*
X106710073Y-90305468D01*
X107683000Y-91278395D01*
X108655927Y-90305468D01*
X113210073Y-90305468D01*
X114183000Y-91278395D01*
X115155927Y-90305468D01*
X115057264Y-90038613D01*
X114447539Y-89812092D01*
X113797540Y-89836144D01*
X113308736Y-90038613D01*
X113210073Y-90305468D01*
X108655927Y-90305468D01*
X108557264Y-90038613D01*
X107947539Y-89812092D01*
X107297540Y-89836144D01*
X106808736Y-90038613D01*
X106710073Y-90305468D01*
X100878563Y-90305468D01*
X100847090Y-90256559D01*
X100634890Y-90111569D01*
X100631808Y-90110945D01*
X100725914Y-90017003D01*
X100967724Y-89434659D01*
X100968275Y-88804107D01*
X100727481Y-88221343D01*
X100282003Y-87775086D01*
X99699659Y-87533276D01*
X99069107Y-87532725D01*
X98486343Y-87773519D01*
X98040086Y-88218997D01*
X97798276Y-88801341D01*
X97797725Y-89431893D01*
X98038519Y-90014657D01*
X98136029Y-90112337D01*
X97931559Y-90243910D01*
X97786569Y-90456110D01*
X97735560Y-90708000D01*
X94710000Y-90708000D01*
X94710000Y-87281795D01*
X106047716Y-87281795D01*
X106296106Y-87882943D01*
X106755637Y-88343278D01*
X107356352Y-88592716D01*
X108006795Y-88593284D01*
X108607943Y-88344894D01*
X109068278Y-87885363D01*
X109317716Y-87284648D01*
X109317718Y-87281795D01*
X112547716Y-87281795D01*
X112796106Y-87882943D01*
X113255637Y-88343278D01*
X113856352Y-88592716D01*
X114506795Y-88593284D01*
X115107943Y-88344894D01*
X115568278Y-87885363D01*
X115817716Y-87284648D01*
X115817718Y-87281795D01*
X119447716Y-87281795D01*
X119696106Y-87882943D01*
X120155637Y-88343278D01*
X120756352Y-88592716D01*
X121406795Y-88593284D01*
X122007943Y-88344894D01*
X122468278Y-87885363D01*
X122717716Y-87284648D01*
X122717718Y-87281795D01*
X125947716Y-87281795D01*
X126196106Y-87882943D01*
X126655637Y-88343278D01*
X127256352Y-88592716D01*
X127906795Y-88593284D01*
X128049260Y-88534418D01*
X132727921Y-93213079D01*
X132982593Y-93383245D01*
X133283000Y-93443000D01*
X155645494Y-93443000D01*
X155652673Y-93450192D01*
X155996201Y-93592838D01*
X156368167Y-93593162D01*
X156711943Y-93451117D01*
X156975192Y-93188327D01*
X157117838Y-92844799D01*
X157118162Y-92472833D01*
X156976117Y-92129057D01*
X156713327Y-91865808D01*
X156369799Y-91723162D01*
X155997833Y-91722838D01*
X155654057Y-91864883D01*
X155645926Y-91873000D01*
X133608158Y-91873000D01*
X129159648Y-87424490D01*
X129217716Y-87284648D01*
X129218284Y-86634205D01*
X128969894Y-86033057D01*
X128510363Y-85572722D01*
X127909648Y-85323284D01*
X127259205Y-85322716D01*
X126658057Y-85571106D01*
X126197722Y-86030637D01*
X125948284Y-86631352D01*
X125947716Y-87281795D01*
X122717718Y-87281795D01*
X122718284Y-86634205D01*
X122469894Y-86033057D01*
X122010363Y-85572722D01*
X121409648Y-85323284D01*
X120759205Y-85322716D01*
X120158057Y-85571106D01*
X119697722Y-86030637D01*
X119448284Y-86631352D01*
X119447716Y-87281795D01*
X115817718Y-87281795D01*
X115818284Y-86634205D01*
X115569894Y-86033057D01*
X115110363Y-85572722D01*
X114509648Y-85323284D01*
X113859205Y-85322716D01*
X113258057Y-85571106D01*
X112797722Y-86030637D01*
X112548284Y-86631352D01*
X112547716Y-87281795D01*
X109317718Y-87281795D01*
X109318284Y-86634205D01*
X109069894Y-86033057D01*
X108610363Y-85572722D01*
X108009648Y-85323284D01*
X107359205Y-85322716D01*
X106758057Y-85571106D01*
X106297722Y-86030637D01*
X106048284Y-86631352D01*
X106047716Y-87281795D01*
X94710000Y-87281795D01*
X94710000Y-80443167D01*
X104447838Y-80443167D01*
X104589883Y-80786943D01*
X104852673Y-81050192D01*
X105196201Y-81192838D01*
X105568167Y-81193162D01*
X105689569Y-81143000D01*
X106782995Y-81143000D01*
X106783000Y-81143001D01*
X107065484Y-81086810D01*
X107121675Y-81075633D01*
X107408790Y-80883790D01*
X109008787Y-79283792D01*
X109008790Y-79283790D01*
X109200633Y-78996675D01*
X109212051Y-78939272D01*
X109268001Y-78658000D01*
X109268000Y-78657995D01*
X109268000Y-78643167D01*
X125947838Y-78643167D01*
X125998000Y-78764569D01*
X125998000Y-84151178D01*
X125948162Y-84271201D01*
X125947838Y-84643167D01*
X126089883Y-84986943D01*
X126352673Y-85250192D01*
X126696201Y-85392838D01*
X127068167Y-85393162D01*
X127411943Y-85251117D01*
X127675192Y-84988327D01*
X127817838Y-84644799D01*
X127818162Y-84272833D01*
X127768000Y-84151431D01*
X127768000Y-80843167D01*
X141647838Y-80843167D01*
X141698000Y-80964569D01*
X141698000Y-85257995D01*
X141697999Y-85258000D01*
X141754190Y-85540484D01*
X141765367Y-85596675D01*
X141937388Y-85854124D01*
X141957210Y-85883790D01*
X142236391Y-86162970D01*
X142259797Y-86198000D01*
X142357210Y-86343790D01*
X145557208Y-89543787D01*
X145557210Y-89543790D01*
X145844325Y-89735633D01*
X146183000Y-89803000D01*
X152167274Y-89803000D01*
X152183330Y-89827029D01*
X152669511Y-90151885D01*
X153243000Y-90265959D01*
X153816489Y-90151885D01*
X154302670Y-89827029D01*
X154311805Y-89813358D01*
X154316238Y-89836917D01*
X154455310Y-90053041D01*
X154667510Y-90198031D01*
X154919400Y-90249040D01*
X156646600Y-90249040D01*
X156881917Y-90204762D01*
X157098041Y-90065690D01*
X157243031Y-89853490D01*
X157294040Y-89601600D01*
X157294040Y-89434999D01*
X157384272Y-89417051D01*
X157622723Y-89257723D01*
X167702724Y-79177723D01*
X167862051Y-78939272D01*
X167918000Y-78658000D01*
X167918000Y-67193118D01*
X167968167Y-67193162D01*
X168311943Y-67051117D01*
X168575192Y-66788327D01*
X168717838Y-66444799D01*
X168718162Y-66072833D01*
X168576117Y-65729057D01*
X168313327Y-65465808D01*
X167969799Y-65323162D01*
X167597833Y-65322838D01*
X167254057Y-65464883D01*
X167241683Y-65477236D01*
X165963973Y-64199527D01*
X165975192Y-64188327D01*
X166117838Y-63844799D01*
X166118162Y-63472833D01*
X165976117Y-63129057D01*
X165713327Y-62865808D01*
X165369799Y-62723162D01*
X165181557Y-62722998D01*
X165317838Y-62394799D01*
X165317839Y-62393167D01*
X171847838Y-62393167D01*
X171989883Y-62736943D01*
X172048000Y-62795162D01*
X172048000Y-65470581D01*
X171990808Y-65527673D01*
X171848162Y-65871201D01*
X171847838Y-66243167D01*
X171989883Y-66586943D01*
X172252673Y-66850192D01*
X172596201Y-66992838D01*
X172968167Y-66993162D01*
X173311943Y-66851117D01*
X173575192Y-66588327D01*
X173683089Y-66328482D01*
X173789883Y-66586943D01*
X174052673Y-66850192D01*
X174396201Y-66992838D01*
X174768167Y-66993162D01*
X175111943Y-66851117D01*
X175375192Y-66588327D01*
X175517838Y-66244799D01*
X175518162Y-65872833D01*
X175468000Y-65751431D01*
X175468000Y-63043167D01*
X177047838Y-63043167D01*
X177189883Y-63386943D01*
X177452673Y-63650192D01*
X177796201Y-63792838D01*
X177878463Y-63792910D01*
X179448000Y-65362447D01*
X179448000Y-65470581D01*
X179390808Y-65527673D01*
X179248162Y-65871201D01*
X179247838Y-66243167D01*
X179389883Y-66586943D01*
X179652673Y-66850192D01*
X179996201Y-66992838D01*
X180368167Y-66993162D01*
X180711943Y-66851117D01*
X180975192Y-66588327D01*
X181117838Y-66244799D01*
X181118162Y-65872833D01*
X180976117Y-65529057D01*
X180918000Y-65470838D01*
X180918000Y-65058000D01*
X180862051Y-64776728D01*
X180773899Y-64644799D01*
X180702724Y-64538277D01*
X178918092Y-62753645D01*
X178918162Y-62672833D01*
X178776117Y-62329057D01*
X178513327Y-62065808D01*
X178169799Y-61923162D01*
X177797833Y-61922838D01*
X177454057Y-62064883D01*
X177190808Y-62327673D01*
X177048162Y-62671201D01*
X177047838Y-63043167D01*
X175468000Y-63043167D01*
X175468000Y-61858005D01*
X175468001Y-61858000D01*
X175400633Y-61519326D01*
X175400633Y-61519325D01*
X175208790Y-61232210D01*
X175208787Y-61232208D01*
X174625744Y-60649165D01*
X174576117Y-60529057D01*
X174313327Y-60265808D01*
X173969799Y-60123162D01*
X173597833Y-60122838D01*
X173254057Y-60264883D01*
X172990808Y-60527673D01*
X172848162Y-60871201D01*
X172847838Y-61243167D01*
X172860192Y-61273067D01*
X172597833Y-61272838D01*
X172254057Y-61414883D01*
X171990808Y-61677673D01*
X171848162Y-62021201D01*
X171847838Y-62393167D01*
X165317839Y-62393167D01*
X165318162Y-62022833D01*
X165176117Y-61679057D01*
X164913327Y-61415808D01*
X164569799Y-61273162D01*
X164197833Y-61272838D01*
X163854057Y-61414883D01*
X163590808Y-61677673D01*
X163448162Y-62021201D01*
X163447838Y-62393167D01*
X163589883Y-62736943D01*
X163648000Y-62795162D01*
X163648000Y-63523056D01*
X163397833Y-63522838D01*
X163054057Y-63664883D01*
X162790808Y-63927673D01*
X162648162Y-64271201D01*
X162647838Y-64643167D01*
X162789883Y-64986943D01*
X163052673Y-65250192D01*
X163396201Y-65392838D01*
X163478464Y-65392910D01*
X165648000Y-67562447D01*
X165648000Y-74553553D01*
X157159065Y-83042489D01*
X156842670Y-82568971D01*
X156356489Y-82244115D01*
X155783000Y-82130041D01*
X155209511Y-82244115D01*
X154723330Y-82568971D01*
X154507336Y-82892228D01*
X154449821Y-82769510D01*
X154017947Y-82375312D01*
X153602026Y-82203042D01*
X153370000Y-82324183D01*
X153370000Y-83531000D01*
X153390000Y-83531000D01*
X153390000Y-83785000D01*
X153370000Y-83785000D01*
X153370000Y-83805000D01*
X153116000Y-83805000D01*
X153116000Y-83785000D01*
X151908531Y-83785000D01*
X151788032Y-84017027D01*
X152036179Y-84546490D01*
X152454161Y-84928008D01*
X152183330Y-85108971D01*
X151858474Y-85595152D01*
X151744400Y-86168641D01*
X151744400Y-86227359D01*
X151858474Y-86800848D01*
X152183330Y-87287029D01*
X152454172Y-87468000D01*
X152183330Y-87648971D01*
X151926730Y-88033000D01*
X146549579Y-88033000D01*
X143729608Y-85213028D01*
X143608790Y-85032210D01*
X143608787Y-85032208D01*
X143468000Y-84891421D01*
X143468000Y-83298973D01*
X151788032Y-83298973D01*
X151908531Y-83531000D01*
X153116000Y-83531000D01*
X153116000Y-82324183D01*
X152883974Y-82203042D01*
X152468053Y-82375312D01*
X152036179Y-82769510D01*
X151788032Y-83298973D01*
X143468000Y-83298973D01*
X143468000Y-80964822D01*
X143517838Y-80844799D01*
X143518162Y-80472833D01*
X143376117Y-80129057D01*
X143113327Y-79865808D01*
X142769799Y-79723162D01*
X142397833Y-79722838D01*
X142054057Y-79864883D01*
X141790808Y-80127673D01*
X141648162Y-80471201D01*
X141647838Y-80843167D01*
X127768000Y-80843167D01*
X127768000Y-78764822D01*
X127817838Y-78644799D01*
X127818162Y-78272833D01*
X127676117Y-77929057D01*
X127413327Y-77665808D01*
X127069799Y-77523162D01*
X126697833Y-77522838D01*
X126354057Y-77664883D01*
X126090808Y-77927673D01*
X125948162Y-78271201D01*
X125947838Y-78643167D01*
X109268000Y-78643167D01*
X109268000Y-75643167D01*
X152447838Y-75643167D01*
X152498000Y-75764569D01*
X152498000Y-77551178D01*
X152448162Y-77671201D01*
X152447838Y-78043167D01*
X152589883Y-78386943D01*
X152852673Y-78650192D01*
X153196201Y-78792838D01*
X153568167Y-78793162D01*
X153689569Y-78743000D01*
X154782995Y-78743000D01*
X154783000Y-78743001D01*
X155065484Y-78686810D01*
X155121675Y-78675633D01*
X155408790Y-78483790D01*
X156208787Y-77683792D01*
X156208790Y-77683790D01*
X156400633Y-77396675D01*
X156414358Y-77327673D01*
X156468001Y-77058000D01*
X156468000Y-77057995D01*
X156468000Y-75764822D01*
X156517838Y-75644799D01*
X156518162Y-75272833D01*
X156376117Y-74929057D01*
X156113327Y-74665808D01*
X155769799Y-74523162D01*
X155397833Y-74522838D01*
X155054057Y-74664883D01*
X154790808Y-74927673D01*
X154648162Y-75271201D01*
X154647838Y-75643167D01*
X154698000Y-75764569D01*
X154698000Y-76691421D01*
X154416420Y-76973000D01*
X154268000Y-76973000D01*
X154268000Y-75764822D01*
X154317838Y-75644799D01*
X154318162Y-75272833D01*
X154176117Y-74929057D01*
X153913327Y-74665808D01*
X153569799Y-74523162D01*
X153197833Y-74522838D01*
X152854057Y-74664883D01*
X152590808Y-74927673D01*
X152448162Y-75271201D01*
X152447838Y-75643167D01*
X109268000Y-75643167D01*
X109268000Y-64764822D01*
X109317838Y-64644799D01*
X109318162Y-64272833D01*
X109268000Y-64151431D01*
X109268000Y-58800316D01*
X109525315Y-58543000D01*
X110416420Y-58543000D01*
X112157208Y-60283787D01*
X112157210Y-60283790D01*
X112444325Y-60475633D01*
X112783000Y-60543001D01*
X112783005Y-60543000D01*
X115898000Y-60543000D01*
X115898000Y-63057995D01*
X115897999Y-63058000D01*
X115940815Y-63273245D01*
X115965367Y-63396675D01*
X116083183Y-63573000D01*
X116157210Y-63683790D01*
X119646421Y-67173000D01*
X119089822Y-67173000D01*
X118969799Y-67123162D01*
X118597833Y-67122838D01*
X118254057Y-67264883D01*
X117990808Y-67527673D01*
X117848162Y-67871201D01*
X117847838Y-68243167D01*
X117989883Y-68586943D01*
X118252673Y-68850192D01*
X118596201Y-68992838D01*
X118968167Y-68993162D01*
X119089569Y-68943000D01*
X119698000Y-68943000D01*
X119698000Y-73151178D01*
X119648162Y-73271201D01*
X119647838Y-73643167D01*
X119789883Y-73986943D01*
X120052673Y-74250192D01*
X120396201Y-74392838D01*
X120768167Y-74393162D01*
X121111943Y-74251117D01*
X121375192Y-73988327D01*
X121517838Y-73644799D01*
X121518162Y-73272833D01*
X121468000Y-73151431D01*
X121468000Y-68843167D01*
X131447838Y-68843167D01*
X131589883Y-69186943D01*
X131852673Y-69450192D01*
X132196201Y-69592838D01*
X132278463Y-69592910D01*
X134263277Y-71577724D01*
X134501728Y-71737051D01*
X134783000Y-71793000D01*
X144383000Y-71793000D01*
X144664272Y-71737051D01*
X144902723Y-71577723D01*
X147287447Y-69193000D01*
X156195581Y-69193000D01*
X156252673Y-69250192D01*
X156596201Y-69392838D01*
X156968167Y-69393162D01*
X157311943Y-69251117D01*
X157575192Y-68988327D01*
X157717838Y-68644799D01*
X157718162Y-68272833D01*
X157576117Y-67929057D01*
X157313327Y-67665808D01*
X156969799Y-67523162D01*
X156597833Y-67522838D01*
X156254057Y-67664883D01*
X156195838Y-67723000D01*
X155918118Y-67723000D01*
X155918162Y-67672833D01*
X155885200Y-67593059D01*
X155992439Y-67593152D01*
X156336215Y-67451107D01*
X156599464Y-67188317D01*
X156680604Y-66992912D01*
X156968167Y-66993162D01*
X157311943Y-66851117D01*
X157370162Y-66793000D01*
X158718894Y-66793000D01*
X159859175Y-67933282D01*
X160068029Y-68072833D01*
X160097626Y-68092609D01*
X160157302Y-68104479D01*
X160352673Y-68300192D01*
X160696201Y-68442838D01*
X161068167Y-68443162D01*
X161411943Y-68301117D01*
X161675192Y-68038327D01*
X161817838Y-67694799D01*
X161818162Y-67322833D01*
X161676117Y-66979057D01*
X161413327Y-66715808D01*
X161069799Y-66573162D01*
X160697833Y-66572838D01*
X160612771Y-66607985D01*
X159543063Y-65538277D01*
X159304612Y-65378949D01*
X159023340Y-65323000D01*
X157370419Y-65323000D01*
X157313327Y-65265808D01*
X156969799Y-65123162D01*
X156597833Y-65122838D01*
X156254057Y-65264883D01*
X155990808Y-65527673D01*
X155909691Y-65723023D01*
X155677447Y-65567842D01*
X155396175Y-65511893D01*
X147394084Y-65511893D01*
X147112812Y-65567842D01*
X146874360Y-65727170D01*
X145378530Y-67223001D01*
X134482999Y-67223001D01*
X134201727Y-67278950D01*
X134135864Y-67322958D01*
X133997833Y-67322838D01*
X133654057Y-67464883D01*
X133390808Y-67727673D01*
X133248162Y-68071201D01*
X133247960Y-68302931D01*
X133176117Y-68129057D01*
X132913327Y-67865808D01*
X132569799Y-67723162D01*
X132197833Y-67722838D01*
X131854057Y-67864883D01*
X131590808Y-68127673D01*
X131448162Y-68471201D01*
X131447838Y-68843167D01*
X121468000Y-68843167D01*
X121468000Y-66858005D01*
X121468001Y-66858000D01*
X121400634Y-66519326D01*
X121305353Y-66376728D01*
X121208790Y-66232210D01*
X121208787Y-66232208D01*
X117668000Y-62691420D01*
X117668000Y-59964822D01*
X117717838Y-59844799D01*
X117718162Y-59472833D01*
X117668000Y-59351431D01*
X117668000Y-56824580D01*
X118949579Y-55543000D01*
X134276178Y-55543000D01*
X134396201Y-55592838D01*
X134768167Y-55593162D01*
X134889569Y-55543000D01*
X136816420Y-55543000D01*
X139498000Y-58224579D01*
X139498000Y-60351178D01*
X139448162Y-60471201D01*
X139447838Y-60843167D01*
X139498000Y-60964569D01*
X139498000Y-65657995D01*
X139497999Y-65658000D01*
X139540733Y-65872833D01*
X139565367Y-65996675D01*
X139685674Y-66176728D01*
X139757210Y-66283790D01*
X140140255Y-66666835D01*
X140189883Y-66786943D01*
X140452673Y-67050192D01*
X140796201Y-67192838D01*
X141168167Y-67193162D01*
X141511943Y-67051117D01*
X141775192Y-66788327D01*
X141917838Y-66444799D01*
X141918162Y-66072833D01*
X141776117Y-65729057D01*
X141513327Y-65465808D01*
X141392013Y-65415434D01*
X141268000Y-65291420D01*
X141268000Y-61543000D01*
X144782995Y-61543000D01*
X144783000Y-61543001D01*
X145065484Y-61486810D01*
X145121675Y-61475633D01*
X145408790Y-61283790D01*
X147949579Y-58743000D01*
X154076178Y-58743000D01*
X154196201Y-58792838D01*
X154568167Y-58793162D01*
X154911943Y-58651117D01*
X155175192Y-58388327D01*
X155317838Y-58044799D01*
X155318162Y-57672833D01*
X155176117Y-57329057D01*
X154913327Y-57065808D01*
X154569799Y-56923162D01*
X154197833Y-56922838D01*
X154076431Y-56973000D01*
X147583005Y-56973000D01*
X147583000Y-56972999D01*
X147300516Y-57029190D01*
X147244325Y-57040367D01*
X146957210Y-57232210D01*
X146957208Y-57232213D01*
X144416420Y-59773000D01*
X141268000Y-59773000D01*
X141268000Y-58188707D01*
X141719767Y-58641264D01*
X142926706Y-59142429D01*
X144233560Y-59143569D01*
X145441372Y-58644511D01*
X146366264Y-57721233D01*
X146867429Y-56514294D01*
X146868569Y-55207440D01*
X146369511Y-53999628D01*
X145446233Y-53074736D01*
X144239294Y-52573571D01*
X142932440Y-52572431D01*
X141724628Y-53071489D01*
X140799736Y-53994767D01*
X140298571Y-55201706D01*
X140297431Y-56508560D01*
X140306086Y-56529507D01*
X137808790Y-54032210D01*
X137752752Y-53994767D01*
X137521675Y-53840367D01*
X137465484Y-53829190D01*
X137183000Y-53772999D01*
X137182995Y-53773000D01*
X134889822Y-53773000D01*
X134769799Y-53723162D01*
X134397833Y-53722838D01*
X134276431Y-53773000D01*
X118583000Y-53773000D01*
X118244325Y-53840367D01*
X117957210Y-54032210D01*
X117957208Y-54032213D01*
X116157210Y-55832210D01*
X115965367Y-56119325D01*
X115965367Y-56119326D01*
X115897999Y-56458000D01*
X115898000Y-56458005D01*
X115898000Y-58773000D01*
X113149579Y-58773000D01*
X111408790Y-57032210D01*
X111159750Y-56865808D01*
X111121675Y-56840367D01*
X111065484Y-56829190D01*
X110783000Y-56772999D01*
X110782995Y-56773000D01*
X109465558Y-56773000D01*
X109345535Y-56723162D01*
X108973569Y-56722838D01*
X108629793Y-56864883D01*
X108366544Y-57127673D01*
X108316170Y-57248987D01*
X107757210Y-57807946D01*
X107565367Y-58095061D01*
X107565367Y-58095062D01*
X107497999Y-58433736D01*
X107498000Y-58433741D01*
X107498000Y-64151178D01*
X107448162Y-64271201D01*
X107447838Y-64643167D01*
X107498000Y-64764569D01*
X107498000Y-78291421D01*
X106416420Y-79373000D01*
X105689822Y-79373000D01*
X105569799Y-79323162D01*
X105197833Y-79322838D01*
X104854057Y-79464883D01*
X104590808Y-79727673D01*
X104448162Y-80071201D01*
X104447838Y-80443167D01*
X94710000Y-80443167D01*
X94710000Y-49985000D01*
X94783262Y-49985000D01*
X114572221Y-49944198D01*
X114589883Y-49986943D01*
X114852673Y-50250192D01*
X115196201Y-50392838D01*
X115568167Y-50393162D01*
X115689569Y-50343000D01*
X143782995Y-50343000D01*
X143783000Y-50343001D01*
X144065484Y-50286810D01*
X144121675Y-50275633D01*
X144408790Y-50083790D01*
X144610316Y-49882264D01*
X157598000Y-49855485D01*
X157598000Y-49858000D01*
X157657755Y-50158407D01*
X157827921Y-50413079D01*
X158798000Y-51383158D01*
X158798000Y-54628000D01*
X158857755Y-54928407D01*
X159027921Y-55183079D01*
X162237919Y-58393076D01*
X162237921Y-58393079D01*
X162462295Y-58543000D01*
X162492594Y-58563245D01*
X162793000Y-58623001D01*
X162793005Y-58623000D01*
X176247842Y-58623000D01*
X180459965Y-62835123D01*
X180559883Y-63076943D01*
X180822673Y-63340192D01*
X181166201Y-63482838D01*
X181538167Y-63483162D01*
X181881943Y-63341117D01*
X182145192Y-63078327D01*
X182287838Y-62734799D01*
X182288162Y-62362833D01*
X182146117Y-62019057D01*
X181883327Y-61755808D01*
X181539799Y-61613162D01*
X181458249Y-61613091D01*
X177128079Y-57282921D01*
X176873407Y-57112755D01*
X176573000Y-57053000D01*
X163118157Y-57053000D01*
X160368000Y-54302842D01*
X160368000Y-53270196D01*
X166750409Y-53270196D01*
X166835467Y-53525539D01*
X167404965Y-53733516D01*
X168010700Y-53707723D01*
X168450533Y-53525539D01*
X168535591Y-53270196D01*
X167643000Y-52377605D01*
X166750409Y-53270196D01*
X160368000Y-53270196D01*
X160368000Y-51959965D01*
X166107484Y-51959965D01*
X166133277Y-52565700D01*
X166315461Y-53005533D01*
X166570804Y-53090591D01*
X167463395Y-52198000D01*
X166570804Y-51305409D01*
X166315461Y-51390467D01*
X166107484Y-51959965D01*
X160368000Y-51959965D01*
X160368000Y-51058000D01*
X160308245Y-50757593D01*
X160289939Y-50730196D01*
X166750409Y-50730196D01*
X166816300Y-50928000D01*
X166750409Y-51125804D01*
X167643000Y-52018395D01*
X168535591Y-51125804D01*
X168469700Y-50928000D01*
X168535591Y-50730196D01*
X167643000Y-49837605D01*
X166750409Y-50730196D01*
X160289939Y-50730196D01*
X160138079Y-50502921D01*
X159486748Y-49851590D01*
X166125280Y-49837903D01*
X166133277Y-50025700D01*
X166315461Y-50465533D01*
X166570804Y-50550591D01*
X167285885Y-49835510D01*
X167998645Y-49834040D01*
X168715196Y-50550591D01*
X168880138Y-50495647D01*
X168890262Y-50520149D01*
X169297737Y-50928336D01*
X168891769Y-51333596D01*
X168880595Y-51360506D01*
X168715196Y-51305409D01*
X167822605Y-52198000D01*
X168715196Y-53090591D01*
X168880138Y-53035647D01*
X168890262Y-53060149D01*
X169318596Y-53489231D01*
X169878528Y-53721735D01*
X170484812Y-53722264D01*
X171045149Y-53490738D01*
X171453336Y-53083263D01*
X171858596Y-53489231D01*
X172418528Y-53721735D01*
X173024812Y-53722264D01*
X173585149Y-53490738D01*
X173993336Y-53083263D01*
X174398596Y-53489231D01*
X174958528Y-53721735D01*
X175564812Y-53722264D01*
X176125149Y-53490738D01*
X176533336Y-53083263D01*
X176938596Y-53489231D01*
X177498528Y-53721735D01*
X178104812Y-53722264D01*
X178665149Y-53490738D01*
X179073336Y-53083263D01*
X179478596Y-53489231D01*
X180038528Y-53721735D01*
X180644812Y-53722264D01*
X181205149Y-53490738D01*
X181613336Y-53083263D01*
X182018596Y-53489231D01*
X182578528Y-53721735D01*
X183184812Y-53722264D01*
X183745149Y-53490738D01*
X183935292Y-53300926D01*
X183995673Y-53446699D01*
X184174302Y-53625327D01*
X184407691Y-53722000D01*
X185137250Y-53722000D01*
X185296000Y-53563250D01*
X185296000Y-52325000D01*
X185550000Y-52325000D01*
X185550000Y-53563250D01*
X185708750Y-53722000D01*
X186438309Y-53722000D01*
X186671698Y-53625327D01*
X186850327Y-53446699D01*
X186947000Y-53213310D01*
X186947000Y-52483750D01*
X186788250Y-52325000D01*
X185550000Y-52325000D01*
X185296000Y-52325000D01*
X185276000Y-52325000D01*
X185276000Y-52071000D01*
X185296000Y-52071000D01*
X185296000Y-52051000D01*
X185550000Y-52051000D01*
X185550000Y-52071000D01*
X186788250Y-52071000D01*
X186947000Y-51912250D01*
X186947000Y-51182690D01*
X186850327Y-50949301D01*
X186671698Y-50770673D01*
X186553326Y-50721642D01*
X186609788Y-50665180D01*
X186495198Y-50550590D01*
X186750539Y-50465533D01*
X186958516Y-49896035D01*
X186954212Y-49794956D01*
X191656000Y-49785262D01*
X191656000Y-93931261D01*
M02*
