G04 #@! TF.FileFunction,Soldermask,Top*
%FSLAX46Y46*%
G04 Gerber Fmt 4.6, Leading zero omitted, Abs format (unit mm)*
G04 Created by KiCad (PCBNEW 4.0.4+dfsg1-stable) date Thu May 11 11:58:33 2017*
%MOMM*%
%LPD*%
G01*
G04 APERTURE LIST*
%ADD10C,0.100000*%
%ADD11R,2.127200X2.127200*%
%ADD12O,2.127200X2.127200*%
%ADD13C,2.540000*%
%ADD14C,5.700000*%
%ADD15R,0.700000X1.900000*%
%ADD16R,1.900000X0.700000*%
%ADD17R,2.178000X15.400000*%
%ADD18C,2.400000*%
%ADD19R,2.400000X2.300000*%
%ADD20C,2.300000*%
%ADD21R,2.200000X1.630000*%
%ADD22R,2.432000X4.057600*%
%ADD23R,2.432000X1.416000*%
%ADD24R,0.877000X1.917400*%
%ADD25R,0.950000X2.000000*%
%ADD26R,2.000000X0.950000*%
%ADD27R,1.200000X1.150000*%
%ADD28R,1.150000X1.200000*%
%ADD29R,1.150000X1.300000*%
%ADD30C,2.178000*%
%ADD31R,2.178000X2.178000*%
%ADD32R,1.398220X1.898600*%
%ADD33R,2.400000X2.400000*%
%ADD34C,1.898600*%
G04 APERTURE END LIST*
D10*
D11*
X155783000Y-88738000D03*
D12*
X153243000Y-88738000D03*
X155783000Y-86198000D03*
X153243000Y-86198000D03*
X155783000Y-83658000D03*
X153243000Y-83658000D03*
D13*
X190783000Y-49458000D03*
X190783000Y-92658000D03*
D14*
X143583000Y-55858000D03*
D15*
X136083000Y-58458000D03*
X135583000Y-58458000D03*
X135083000Y-58458000D03*
X134583000Y-58458000D03*
X134083000Y-58458000D03*
X133583000Y-58458000D03*
X133083000Y-58458000D03*
X132583000Y-58458000D03*
X132083000Y-58458000D03*
X131583000Y-58458000D03*
X131083000Y-58458000D03*
X130583000Y-58458000D03*
X130083000Y-58458000D03*
X129583000Y-58458000D03*
X129083000Y-58458000D03*
X128583000Y-58458000D03*
X128083000Y-58458000D03*
X127583000Y-58458000D03*
X127083000Y-58458000D03*
X126583000Y-58458000D03*
X126083000Y-58458000D03*
X125583000Y-58458000D03*
X125083000Y-58458000D03*
X124583000Y-58458000D03*
X124083000Y-58458000D03*
D16*
X122383000Y-60158000D03*
X122383000Y-60658000D03*
X122383000Y-61158000D03*
X122383000Y-61658000D03*
X122383000Y-62158000D03*
X122383000Y-62658000D03*
X122383000Y-63158000D03*
X122383000Y-63658000D03*
X122383000Y-64158000D03*
X122383000Y-64658000D03*
X122383000Y-65158000D03*
X122383000Y-65658000D03*
X122383000Y-66158000D03*
X122383000Y-66658000D03*
X122383000Y-67158000D03*
X122383000Y-67658000D03*
X122383000Y-68158000D03*
X122383000Y-68658000D03*
X122383000Y-69158000D03*
X122383000Y-69658000D03*
X122383000Y-70158000D03*
X122383000Y-70658000D03*
X122383000Y-71158000D03*
X122383000Y-71658000D03*
X122383000Y-72158000D03*
D15*
X124083000Y-73858000D03*
X124583000Y-73858000D03*
X125083000Y-73858000D03*
X125583000Y-73858000D03*
X126083000Y-73858000D03*
X126583000Y-73858000D03*
X127083000Y-73858000D03*
X127583000Y-73858000D03*
X128083000Y-73858000D03*
X128583000Y-73858000D03*
X129083000Y-73858000D03*
X129583000Y-73858000D03*
X130083000Y-73858000D03*
X130583000Y-73858000D03*
X131083000Y-73858000D03*
X131583000Y-73858000D03*
X132083000Y-73858000D03*
X132583000Y-73858000D03*
X133083000Y-73858000D03*
X133583000Y-73858000D03*
X134083000Y-73858000D03*
X134583000Y-73858000D03*
X135083000Y-73858000D03*
X135583000Y-73858000D03*
X136083000Y-73858000D03*
D16*
X137783000Y-72158000D03*
X137783000Y-71658000D03*
X137783000Y-71158000D03*
X137783000Y-70658000D03*
X137783000Y-70158000D03*
X137783000Y-69658000D03*
X137783000Y-69158000D03*
X137783000Y-68658000D03*
X137783000Y-68158000D03*
X137783000Y-67658000D03*
X137783000Y-67158000D03*
X137783000Y-66658000D03*
X137783000Y-66158000D03*
X137783000Y-65658000D03*
X137783000Y-65158000D03*
X137783000Y-64658000D03*
X137783000Y-64158000D03*
X137783000Y-63658000D03*
X137783000Y-63158000D03*
X137783000Y-62658000D03*
X137783000Y-62158000D03*
X137783000Y-61658000D03*
X137783000Y-61158000D03*
X137783000Y-60658000D03*
X137783000Y-60158000D03*
D17*
X165143000Y-40158000D03*
X162603000Y-40158000D03*
X160063000Y-40158000D03*
X157523000Y-40158000D03*
X154983000Y-40158000D03*
X152443000Y-40158000D03*
X149903000Y-40158000D03*
X147363000Y-40158000D03*
X144823000Y-40158000D03*
X142283000Y-40158000D03*
X139743000Y-40158000D03*
X137203000Y-40158000D03*
X134663000Y-40158000D03*
X132123000Y-40158000D03*
X129583000Y-40158000D03*
X127043000Y-40158000D03*
X124503000Y-40158000D03*
X121963000Y-40158000D03*
D18*
X121083000Y-91458000D03*
X121083000Y-86958000D03*
X127583000Y-91458000D03*
X127583000Y-86958000D03*
D19*
X99383000Y-91658000D03*
D20*
X99383000Y-89118000D03*
D21*
X107383000Y-51258000D03*
X110003000Y-51258000D03*
X107363000Y-54058000D03*
X109983000Y-54058000D03*
D22*
X97379000Y-53858000D03*
D23*
X103983000Y-53858000D03*
X103983000Y-51572000D03*
X103983000Y-56144000D03*
D24*
X97383000Y-78268800D03*
X98183000Y-78268800D03*
X98983000Y-78268800D03*
X99783000Y-78268800D03*
X100583000Y-78268800D03*
X101383000Y-78268800D03*
X102183000Y-78268800D03*
X102983000Y-78268800D03*
X103783000Y-78268800D03*
X104583000Y-78268800D03*
X105383000Y-78268800D03*
X106183000Y-78268800D03*
X106983000Y-78268800D03*
X107783000Y-78268800D03*
X108583000Y-78268800D03*
X109383000Y-78268800D03*
X110183000Y-78268800D03*
X110983000Y-78268800D03*
X111783000Y-78268800D03*
X112583000Y-78268800D03*
X113383000Y-78268800D03*
X114183000Y-78268800D03*
X97383000Y-66858000D03*
X98183000Y-66858000D03*
X98983000Y-66858000D03*
X99783000Y-66858000D03*
X100583000Y-66858000D03*
X101383000Y-66858000D03*
X102183000Y-66858000D03*
X102983000Y-66858000D03*
X103783000Y-66858000D03*
X104583000Y-66858000D03*
X105383000Y-66858000D03*
X106183000Y-66858000D03*
X106983000Y-66858000D03*
X107783000Y-66858000D03*
X108583000Y-66858000D03*
X109383000Y-66858000D03*
X110183000Y-66858000D03*
X110983000Y-66858000D03*
X111783000Y-66858000D03*
X112583000Y-66858000D03*
X113383000Y-66858000D03*
X114183000Y-66858000D03*
D25*
X151983000Y-70708000D03*
X152783000Y-70708000D03*
X153583000Y-70708000D03*
X154383000Y-70708000D03*
X155183000Y-70708000D03*
X155983000Y-70708000D03*
X156783000Y-70708000D03*
X157583000Y-70708000D03*
D26*
X159033000Y-69258000D03*
X159033000Y-68458000D03*
X159033000Y-67658000D03*
X159033000Y-66858000D03*
X159033000Y-66058000D03*
X159033000Y-65258000D03*
X159033000Y-64458000D03*
X159033000Y-63658000D03*
D25*
X157583000Y-62208000D03*
X156783000Y-62208000D03*
X155983000Y-62208000D03*
X155183000Y-62208000D03*
X154383000Y-62208000D03*
X153583000Y-62208000D03*
X152783000Y-62208000D03*
X151983000Y-62208000D03*
D26*
X150533000Y-63658000D03*
X150533000Y-64458000D03*
X150533000Y-65258000D03*
X150533000Y-66058000D03*
X150533000Y-66858000D03*
X150533000Y-67658000D03*
X150533000Y-68458000D03*
X150533000Y-69258000D03*
D27*
X106583000Y-62858000D03*
X105083000Y-62858000D03*
X105483000Y-81658000D03*
X106983000Y-81658000D03*
X153483000Y-73858000D03*
X151983000Y-73858000D03*
X155633000Y-73858000D03*
X157133000Y-73858000D03*
X156783000Y-57858000D03*
X158283000Y-57858000D03*
X135883000Y-54658000D03*
X137383000Y-54658000D03*
D28*
X118383000Y-59658000D03*
X118383000Y-58158000D03*
D27*
X142083000Y-60658000D03*
X143583000Y-60658000D03*
X118783000Y-66858000D03*
X117283000Y-66858000D03*
X120583000Y-75058000D03*
X119083000Y-75058000D03*
X126883000Y-77058000D03*
X128383000Y-77058000D03*
X142783000Y-66258000D03*
X144283000Y-66258000D03*
D13*
X95983000Y-49458000D03*
D29*
X147008000Y-83858000D03*
X145658000Y-83858000D03*
X158958000Y-53258000D03*
X160308000Y-53258000D03*
D30*
X167643000Y-52198000D03*
X170183000Y-52198000D03*
X172723000Y-52198000D03*
X175263000Y-52198000D03*
X177803000Y-52198000D03*
X180343000Y-52198000D03*
X182883000Y-52198000D03*
D31*
X185423000Y-52198000D03*
D30*
X185423000Y-49658000D03*
X182883000Y-49658000D03*
X180343000Y-49658000D03*
X177803000Y-49658000D03*
X175263000Y-49658000D03*
X172723000Y-49658000D03*
X170183000Y-49658000D03*
X167643000Y-49658000D03*
D29*
X145658000Y-80658000D03*
X147008000Y-80658000D03*
X98833000Y-84258000D03*
X100183000Y-84258000D03*
D18*
X114183000Y-86958000D03*
X114183000Y-91458000D03*
X107683000Y-86958000D03*
X107683000Y-91458000D03*
D32*
X182780440Y-68658000D03*
X180281080Y-68658000D03*
X176704760Y-68658000D03*
X175058840Y-68658000D03*
X172783000Y-68658000D03*
X170283640Y-68658000D03*
X167852860Y-68658000D03*
X166153600Y-68658000D03*
X185279800Y-68658000D03*
X178579280Y-68658000D03*
D33*
X162000628Y-90863600D03*
X190950628Y-89663600D03*
D32*
X162803340Y-68658000D03*
D34*
X187979820Y-92965800D03*
X163783780Y-92965800D03*
M02*
