M48
INCH,TZ
T1C0.012
T2C0.016
T3C0.039
T4C0.040
T5C0.043
T6C0.197
T7C0.059
%
G90
G05
T1
X39442Y-18999
X45584Y-26322
X46607Y-22228
X46844Y-28920
X48025Y-20259
X48970Y-19157
X49048Y-24117
X49048Y-24669
X49048Y-27031
X49442Y-22149
X49954Y-30889
X49954Y-33251
X49993Y-19157
X50072Y-24354
X50151Y-23881
X50781Y-19157
X51017Y-28369
X51726Y-19157
X51962Y-28369
X52119Y-27031
X52356Y-28369
X52356Y-29944
X52749Y-19157
X52749Y-28369
X52828Y-26873
X52828Y-29944
X53064Y-26322
X53143Y-23802
X53143Y-28369
X53152Y-27730
X53300Y-29944
X53458Y-24117
X53537Y-28369
X53694Y-19157
X53773Y-29944
X54718Y-19157
X55111Y-27031
X55269Y-23881
X55505Y-26086
X55741Y-19157
X57710Y-19157
X58655Y-19157
X59678Y-19157
X60146Y-26475
X60702Y-19157
X60781Y-23724
X61017Y-26716
X61341Y-26243
X61489Y-36480
X61726Y-26007
X61726Y-26952
X62356Y-22070
X62670Y-19157
X63340Y-26578
X64403Y-25377
X64718Y-24491
X65033Y-25062
X66056Y-26086
X68025Y-24491
X68025Y-26007
X70072Y-24747
X70938Y-26007
X71399Y-24625
T2
X39915Y-31598
X40781Y-24747
X41411Y-25456
X41489Y-31598
X41804Y-22070
X41804Y-30102
X42119Y-32700
X42670Y-25377
X42976Y-22700
X44167Y-20180
X44167Y-21283
X45426Y-19472
X45978Y-23487
X46765Y-26794
X47474Y-28920
X50544Y-30889
X52985Y-21519
X54816Y-21381
X56135Y-31755
X56686Y-33015
X57395Y-26086
X57552Y-23881
X59285Y-29078
X60387Y-29708
X60387Y-30653
X60466Y-28527
X60781Y-22779
X61096Y-28527
X61253Y-29708
X62434Y-29078
X67080Y-26086
X68419Y-24039
X68733Y-26007
X69600Y-26086
T3
X39127Y-35086
X39127Y-36086
T4
X60332Y-32936
X60332Y-33936
X60332Y-34936
X61332Y-32936
X61332Y-33936
X61332Y-34936
X66001Y-19550
X66001Y-20550
X67001Y-19550
X67001Y-20550
X68001Y-19550
X68001Y-20550
X69001Y-19550
X69001Y-20550
X70001Y-19550
X70001Y-20550
X71001Y-19550
X71001Y-20550
X72001Y-19550
X72001Y-20550
X73001Y-19550
X73001Y-20550
T5
X42395Y-34235
X42395Y-36007
X44954Y-34235
X44954Y-36007
X47670Y-34235
X47670Y-36007
X50230Y-34235
X50230Y-36007
T6
X56529Y-21991
T7
X64482Y-36601
X74008Y-36601
T0
M30
