G04 #@! TF.FileFunction,Soldermask,Bot*
%FSLAX46Y46*%
G04 Gerber Fmt 4.6, Leading zero omitted, Abs format (unit mm)*
G04 Created by KiCad (PCBNEW 4.0.4+dfsg1-stable) date Thu May 11 11:58:33 2017*
%MOMM*%
%LPD*%
G01*
G04 APERTURE LIST*
%ADD10C,0.100000*%
%ADD11R,2.127200X2.127200*%
%ADD12O,2.127200X2.127200*%
%ADD13C,5.700000*%
%ADD14R,2.178000X15.400000*%
%ADD15C,2.400000*%
%ADD16R,2.400000X2.300000*%
%ADD17C,2.300000*%
%ADD18C,2.178000*%
%ADD19R,2.178000X2.178000*%
%ADD20C,1.898600*%
G04 APERTURE END LIST*
D10*
D11*
X155783000Y-88738000D03*
D12*
X153243000Y-88738000D03*
X155783000Y-86198000D03*
X153243000Y-86198000D03*
X155783000Y-83658000D03*
X153243000Y-83658000D03*
D13*
X143583000Y-55858000D03*
D14*
X165143000Y-40158000D03*
X162603000Y-40158000D03*
X160063000Y-40158000D03*
X157523000Y-40158000D03*
X154983000Y-40158000D03*
X152443000Y-40158000D03*
X149903000Y-40158000D03*
X147363000Y-40158000D03*
X144823000Y-40158000D03*
X142283000Y-40158000D03*
X139743000Y-40158000D03*
X137203000Y-40158000D03*
X134663000Y-40158000D03*
X132123000Y-40158000D03*
X129583000Y-40158000D03*
X127043000Y-40158000D03*
X124503000Y-40158000D03*
X121963000Y-40158000D03*
D15*
X121083000Y-91458000D03*
X121083000Y-86958000D03*
X127583000Y-91458000D03*
X127583000Y-86958000D03*
D16*
X99383000Y-91658000D03*
D17*
X99383000Y-89118000D03*
D18*
X167643000Y-52198000D03*
X170183000Y-52198000D03*
X172723000Y-52198000D03*
X175263000Y-52198000D03*
X177803000Y-52198000D03*
X180343000Y-52198000D03*
X182883000Y-52198000D03*
D19*
X185423000Y-52198000D03*
D18*
X185423000Y-49658000D03*
X182883000Y-49658000D03*
X180343000Y-49658000D03*
X177803000Y-49658000D03*
X175263000Y-49658000D03*
X172723000Y-49658000D03*
X170183000Y-49658000D03*
X167643000Y-49658000D03*
D15*
X114183000Y-86958000D03*
X114183000Y-91458000D03*
X107683000Y-86958000D03*
X107683000Y-91458000D03*
D20*
X187979820Y-92965800D03*
X163783780Y-92965800D03*
M02*
